<svg width="886" height="285" xmlns="http://www.w3.org/2000/svg" xmlns:xlink="http://www.w3.org/1999/xlink"><defs><path id="a" d="M.484.796h253.204V254H.484z"/><path id="c" d="M.484.016h117.822v117.821H.484z"/><path id="e" d="M0 .658h122.114v82.131H0z"/></defs><g fill="none" fill-rule="evenodd"><g transform="translate(632 31)"><mask id="b" fill="#fff"><use xlink:href="#a"/></mask><path d="M253.688 127.398c0 69.92-56.682 126.602-126.601 126.602C57.166 254 .484 197.32.484 127.398.484 57.478 57.166.796 127.087.796c69.92 0 126.601 56.682 126.601 126.602" fill="#F8B23F" mask="url(#b)"/></g><g transform="translate(161)"><mask id="d" fill="#fff"><use xlink:href="#c"/></mask><path d="M118.306 58.926c0 32.535-26.375 58.911-58.911 58.911-32.535 0-58.911-26.376-58.911-58.91C.484 26.39 26.86.014 59.394.014c32.537 0 58.912 26.376 58.912 58.911" fill="#297DA2" opacity=".492" mask="url(#d)"/></g><g transform="translate(0 42)"><mask id="f" fill="#fff"><use xlink:href="#e"/></mask><path d="M111.506 1.724c1.614-1.02 3.353-1.307 5.215-.867 1.862.443 3.303 1.47 4.324 3.08 1.022 1.61 1.311 3.344.867 5.202-.442 1.858-1.443 3.278-3.005 4.263L10.65 81.712c-1.615 1.018-3.364 1.314-5.255.89-1.889-.424-3.326-1.415-4.314-2.973-1.02-1.61-1.318-3.357-.893-5.243.428-1.884 1.447-3.335 3.062-4.353l108.257-68.31z" fill="#51215B" mask="url(#f)"/></g><path d="M644.67 48.738c15.193.035 28.215 5.52 39.087 16.44C694.617 76.11 700.035 89.17 700 104.38c-.034 14.707-5.512 27.493-16.421 38.364-10.923 10.88-23.97 16.292-39.163 16.257l-319.842-.738c-14.696-.034-27.468-5.384-38.33-16.056-10.872-10.67-16.279-23.61-16.244-38.82.035-15.207 5.384-28.243 16.046-39.124C296.706 53.39 309.634 47.965 324.829 48l319.84.738z" fill="#51215B"/><path d="M269.857 58.444c5.198-3.293 10.794-4.223 16.786-2.797 5.994 1.43 10.632 4.747 13.918 9.954 3.286 5.21 4.219 10.814 2.791 16.821-1.425 6.005-4.647 10.599-9.674 13.782l-109.403 69.31c-5.197 3.293-10.832 4.253-16.915 2.88-6.077-1.372-10.706-4.574-13.883-9.611-3.286-5.209-4.24-10.858-2.874-16.952 1.375-6.093 4.654-10.785 9.851-14.078l109.403-69.309z" fill="#51215B" opacity=".594"/><path d="M227 39.5v98.994c0 8.137 8.885 13.175 15.899 9.016l102.957-61.06c7.605-4.51 6.57-15.8-1.732-18.857L241.167 29.66C234.297 27.129 227 32.197 227 39.5" fill="#F8B23F"/><path d="M188 91c0 9.389-7.61 17-17 17s-17-7.611-17-17 7.61-17 17-17 17 7.611 17 17" fill="#297DA2"/><path d="M138 125.5a7.5 7.5 0 11-15 0 7.5 7.5 0 0115 0" fill="#F8B23F"/><path d="M741 111.5c0 48.324-39.175 87.5-87.5 87.5S566 159.824 566 111.5c0-48.326 39.175-87.5 87.5-87.5S741 63.174 741 111.5" fill="#FFF"/><path d="M625.66 75.292c11.012-6.972 22.87-8.941 35.565-5.922 12.7 3.029 22.527 10.05 29.489 21.079 6.96 11.03 8.939 22.899 5.914 35.62-3.017 12.716-9.847 22.44-20.497 29.184l-134.51 84.367c-11.012 6.972-22.949 9.004-35.84 6.096-12.875-2.905-22.682-9.686-29.414-20.353-6.96-11.03-8.986-22.99-6.088-35.894 2.911-12.902 9.86-22.839 20.87-29.812L625.66 75.292z" fill="#E73C4A"/><path d="M257 59c0 18.227-14.774 33-33 33-18.224 0-33-14.773-33-33 0-18.225 14.776-33 33-33 18.226 0 33 14.775 33 33" fill="#FFF"/></g></svg>