<svg width="300" height="169" xmlns="http://www.w3.org/2000/svg" xmlns:xlink="http://www.w3.org/1999/xlink"><defs><path id="a" d="M0 0h300v169H0z"/><path id="c" d="M0 .288h31.896V32.18H0z"/></defs><g fill="none" fill-rule="evenodd"><mask id="b" fill="#fff"><use xlink:href="#a"/></mask><g mask="url(#b)"><path d="M138.5 111c-5.791 0-10.5-4.828-10.5-10.758 0-.687.541-1.242 1.21-1.242h18.58c.669 0 1.21.555 1.21 1.242 0 5.93-4.709 10.758-10.5 10.758" fill="#51215B" fill-rule="nonzero"/><path d="M83.871 50a13.025 13.025 0 01-7.371 2.267A13.03 13.03 0 0169.129 50C61.47 52.916 56.013 60.23 56 68.774c0 .326.131.636.365.867.23.23.55.359.878.359h38.511c.332 0 .648-.128.881-.359.234-.23.365-.541.365-.867C96.985 60.23 91.53 52.916 83.871 50" fill="#FFF" fill-rule="nonzero"/><path d="M90 39.5C90 46.402 84.18 52 76.999 52 69.822 52 64 46.402 64 39.5S69.822 27 76.999 27C84.18 27 90 32.598 90 39.5" fill="#FFF" fill-rule="nonzero"/><path d="M137.486 92h3.803c1.496 0 2.711-1.263 2.711-2.825 0-1.561-1.215-2.827-2.711-2.827h-2.864v-6.523c0-1.562-1.215-2.825-2.714-2.825-1.496 0-2.711 1.263-2.711 2.825v7.525c0 2.564 2.013 4.65 4.486 4.65M121.5 86c1.382 0 2.5-1.238 2.5-2.769v-6.46c0-1.53-1.118-2.771-2.5-2.771s-2.5 1.24-2.5 2.771v6.46c0 1.53 1.118 2.769 2.5 2.769m34 0c1.382 0 2.5-1.238 2.5-2.769v-6.46c0-1.53-1.118-2.771-2.5-2.771s-2.5 1.24-2.5 2.771v6.46c0 1.53 1.118 2.769 2.5 2.769" fill="#51215B" fill-rule="nonzero"/><path d="M218.55 162.629c0 .492-.415.91-.908.91H44.358a.923.923 0 01-.91-.91v-6.639c0-.494.417-.91.91-.91h173.284a.92.92 0 01.908.91v6.639zM56.37 149.622h5.138v-27.223h-5.137v27.223zm-6.8-32.684a2.134 2.134 0 01-2.124-2.14v-5.618h58.204v5.617c0 1.18-.953 2.14-2.123 2.14H49.57zM47.446 15.72h39.597a2.727 2.727 0 002.724-2.729c0-1.509-1.22-2.73-2.724-2.73H47.446V7.6c0-1.18.951-2.14 2.124-2.14h53.957c1.17 0 2.123.96 2.123 2.14v2.664h-5.529a2.725 2.725 0 00-2.724 2.729 2.725 2.725 0 002.724 2.73h5.53v88H47.445v-88zm63.652 99.076v-1.073a30.794 30.794 0 0014.35 9.396v3.647h-23.386c-9.22 0-16.72 7.437-16.72 16.578v6.277H66.959v-27.223h36.568c4.176 0 7.571-3.41 7.571-7.602zm0-48.092c1.34-2.83 3.398-5.175 6.18-7.005 4.897-3.216 12.112-4.919 20.864-4.919 8.751 0 15.967 1.703 20.863 4.919 5.328 3.504 8.032 8.891 8.032 16.012v18.351c0 13.749-11.31 24.94-25.213 24.94h-7.365c-10.555 0-19.607-6.451-23.36-15.572V66.705zm0-16.83c1.34-2.83 3.398-5.175 6.18-7.005 4.897-3.219 12.112-4.921 20.864-4.921 8.751 0 15.967 1.702 20.863 4.92 5.328 3.502 8.032 8.89 8.032 16.008v.72c-5.647-6.658-15.517-10.274-28.895-10.274-12.018 0-21.207 2.923-27.044 8.34v-7.787zm19.798 81.342v-6.965c1.17.138 2.355.209 3.563.209h7.365c1.206 0 2.394-.077 3.564-.212v6.968c0 4.026-3.25 7.304-7.246 7.304-3.996 0-7.246-3.278-7.246-7.304zM172.45 95.39c.018-.444.034-.882.034-1.328v-11.5h1.584c1.704 0 3.088 1.33 3.088 2.966v6.894c0 1.638-1.384 2.966-3.088 2.966h-1.618v.003zm1.618 5.459c4.708 0 8.535-3.78 8.535-8.428v-6.894c0-4.646-3.827-8.427-8.535-8.427h-1.584v-7.727h22.556v14.034a2.724 2.724 0 105.448 0V68.464a4.547 4.547 0 00-4.54-4.549h-23.464v-5.036c0-.058-.003-.117-.006-.176h32.24a.92.92 0 01.905.91v90.009h-5.135V96.148a2.725 2.725 0 10-5.448 0v53.474h-4.1v-6.277c0-9.141-7.5-16.578-16.72-16.578h-3.987a2.725 2.725 0 00-2.724 2.73 2.725 2.725 0 002.724 2.729h3.988c6.213 0 11.27 4.987 11.27 11.119v6.277H90.79v-6.277c0-6.132 5.056-11.119 11.272-11.119h23.43c.513 6.567 5.989 11.756 12.65 11.756 6.66 0 12.137-5.189 12.65-11.756h6.727a2.725 2.725 0 002.724-2.73 2.725 2.725 0 00-2.724-2.729h-6.683v-3.647c10.381-3.172 18.421-11.674 20.868-22.27h2.365zm43.573 48.772h-6.567V59.61c0-3.512-2.851-6.369-6.356-6.369H171.96c-2.57-13.27-14.571-20.752-33.82-20.752-12.017 0-21.206 2.92-27.043 8.344V7.599c0-4.192-3.395-7.599-7.571-7.599H49.57c-4.176 0-7.574 3.407-7.574 7.6v107.197c0 4.192 3.398 7.602 7.574 7.602h1.355v27.223h-6.567c-3.507 0-6.358 2.856-6.358 6.368v6.639c0 3.512 2.851 6.371 6.358 6.371h173.284c3.504 0 6.358-2.86 6.358-6.371v-6.639c0-3.512-2.854-6.368-6.358-6.368z" fill="#51215B" fill-rule="nonzero"/><path d="M59.51 66.582c.565-6.179 4.492-11.427 9.975-13.976a15.64 15.64 0 007.512 1.912c2.727 0 5.287-.696 7.516-1.912 5.482 2.549 9.412 7.797 9.974 13.976H59.51zm17.487-37.164c5.56 0 10.084 4.414 10.084 9.84 0 5.428-4.525 9.842-10.084 9.842-5.558 0-10.08-4.414-10.08-9.842 0-5.426 4.522-9.84 10.08-9.84zm12.035 19.47c2.183-2.63 3.491-5.98 3.491-9.63C92.523 30.846 85.559 24 76.997 24c-8.559 0-15.525 6.846-15.525 15.258 0 3.65 1.313 7 3.493 9.63C58.403 52.861 54.01 59.972 54 68.077a3.911 3.911 0 001.169 2.784A3.937 3.937 0 0057.95 72h38.096a3.958 3.958 0 002.782-1.135A3.925 3.925 0 00100 68.079c-.013-8.106-4.405-15.217-10.968-19.192zM90.25 79H62.753C61.232 79 60 80.118 60 81.499S61.232 84 62.752 84H90.25c1.52 0 2.75-1.12 2.75-2.501C93 80.118 91.77 79 90.25 79m-5 10H68.753C67.232 89 66 90.118 66 91.499S67.232 94 68.752 94H85.25c1.52 0 2.75-1.12 2.75-2.501C88 90.118 86.77 89 85.25 89" fill="#51215B" fill-rule="nonzero"/><path d="M260 154.001C260 177.748 240.748 197 216.999 197 193.252 197 174 177.748 174 154.001c0-23.75 19.252-43.001 42.999-43.001 23.75 0 43.001 19.252 43.001 43.001" fill="#FFF" fill-rule="nonzero"/><path d="M240 154.001C240 166.703 229.703 177 216.999 177 204.297 177 194 166.703 194 154.001 194 141.3 204.297 131 216.999 131 229.703 131 240 141.3 240 154.001" fill="#F8B23F" fill-rule="nonzero"/><path d="M300 99c0 19.33-15.67 35-35 35s-35-15.67-35-35 15.67-35 35-35 35 15.67 35 35" fill="#E73C4A" fill-rule="nonzero"/><g transform="translate(0 116)"><mask id="d" fill="#fff"><use xlink:href="#c"/></mask><path d="M31.896 16.234c0 8.809-7.141 15.947-15.95 15.947C7.14 32.18 0 25.043 0 16.234 0 7.426 7.14.288 15.946.288c8.809 0 15.95 7.138 15.95 15.946" fill="#297DA2" fill-rule="nonzero" mask="url(#d)"/></g></g></g></svg>