<svg width="155" height="208" xmlns="http://www.w3.org/2000/svg" xmlns:xlink="http://www.w3.org/1999/xlink"><defs><path id="a" d="M0 208h155V0H0z"/></defs><g fill="none" fill-rule="evenodd"><path d="M74.715 117h2.938c1.296 0 2.347-1.084 2.347-2.423 0-1.337-1.05-2.42-2.347-2.42h-1.961v-4.737c0-1.337-1.05-2.42-2.346-2.42-1.297 0-2.346 1.083-2.346 2.42v5.764c0 2.103 1.667 3.816 3.715 3.816M62.5 103c-1.38 0-2.5 1.096-2.5 2.45v5.102c0 1.353 1.12 2.448 2.5 2.448s2.5-1.095 2.5-2.448v-5.102c0-1.354-1.12-2.45-2.5-2.45m27 10c1.38 0 2.5-1.095 2.5-2.448v-5.102c0-1.354-1.12-2.45-2.5-2.45s-2.5 1.096-2.5 2.45v5.102c0 1.353 1.12 2.448 2.5 2.448m-13.974 10c-2.83 0-5.663 1.027-7.82 3.08a2.219 2.219 0 000 3.248c.943.896 2.471.896 3.413 0 1.173-1.117 2.732-1.733 4.391-1.736h.016c1.65 0 3.195.607 4.355 1.71a2.502 2.502 0 003.412 0 2.22 2.22 0 000-3.248c-2.14-2.036-4.953-3.054-7.767-3.054M42.883 80.558v-6.675h6.675a2.44 2.44 0 100-4.883h-9.116A2.442 2.442 0 0038 71.442v9.116a2.442 2.442 0 004.883 0M110.558 83A2.441 2.441 0 00113 80.558V71.44a2.44 2.44 0 00-2.442-2.44h-9.115a2.441 2.441 0 100 4.882h6.674v6.676A2.441 2.441 0 00110.558 83m-70.116 46A2.442 2.442 0 0038 131.443v9.115A2.442 2.442 0 0040.442 143h9.115a2.442 2.442 0 100-4.883h-6.674v-6.674A2.442 2.442 0 0040.442 129M45.5 51a2.5 2.5 0 11-.001 5.001A2.5 2.5 0 0145.5 51m8 0a2.5 2.5 0 11-.001 5.001A2.5 2.5 0 0153.5 51m10.914 0C63.08 51 62 52.12 62 53.502 62 54.882 63.08 56 64.414 56h23.172C88.921 56 90 54.882 90 53.502 90 52.12 88.92 51 87.586 51H64.414zM75.5 173.777c4.259 0 7.723 3.465 7.723 7.723s-3.464 7.721-7.722 7.721c-4.258 0-7.723-3.463-7.723-7.721s3.465-7.723 7.723-7.723m0 20.223C82.394 194 88 188.392 88 181.5c0-6.893-5.606-12.5-12.5-12.5-6.892 0-12.5 5.607-12.5 12.5 0 6.892 5.608 12.5 12.5 12.5" fill="#51215B"/><mask id="b" fill="#fff"><use xlink:href="#a"/></mask><path d="M97.787 184.213h5.425v-5.426h-5.425v5.426zm6.862 4.787a3.354 3.354 0 003.351-3.35v-8.299a3.354 3.354 0 00-3.351-3.351h-8.298A3.354 3.354 0 0093 177.351v8.3A3.354 3.354 0 0096.351 189h8.298zm-56.862-4.787h5.426v-5.426h-5.426v5.426zM54.65 174h-8.3a3.354 3.354 0 00-3.35 3.351v8.3A3.353 3.353 0 0046.351 189h8.298A3.354 3.354 0 0058 185.65v-8.299A3.355 3.355 0 0054.649 174z" fill="#51215B" mask="url(#b)"/><path d="M84.485 154.513a10.41 10.41 0 001.378-3.205h15.185a5.664 5.664 0 015.094 3.205H84.485zm-3.178-5.668c0 3.125-2.534 5.668-5.648 5.668-3.117 0-5.65-2.543-5.65-5.668v-5.848c.894.1 1.802.153 2.722.153h5.855c.92 0 1.828-.053 2.721-.153v5.848zm-36.132 5.668a5.664 5.664 0 015.094-3.205h15.186a10.41 10.41 0 001.377 3.205H45.175zm7.776-35.66v-14.511c0-5.614 2.05-9.686 6.268-12.441 3.85-2.518 9.535-3.85 16.44-3.85 6.904 0 12.589 1.332 16.44 3.85 4.216 2.756 6.265 6.827 6.265 12.44v14.513c0 10.73-8.871 19.464-19.778 19.464h-5.855c-10.907 0-19.78-8.733-19.78-19.464zm6.268-40.262c3.85-2.518 9.535-3.85 16.44-3.85 6.904 0 12.589 1.332 16.44 3.85 4.183 2.736 6.231 6.766 6.262 12.315-4.596-4.987-12.338-7.688-22.702-7.688-10.365 0-18.109 2.701-22.705 7.688.032-5.549 2.08-9.579 6.265-12.315zM34.457 174.44a4.04 4.04 0 01-4.041 4.028H23.41a4.04 4.04 0 01-4.041-4.028v-1.96a4.04 4.04 0 014.041-4.03h7.005a4.04 4.04 0 014.04 4.03v1.96zm-17.352-14.852v-1.962a4.038 4.038 0 014.04-4.029h7.004a4.038 4.038 0 014.041 4.03v1.961a4.038 4.038 0 01-4.041 4.029h-7.005a4.038 4.038 0 01-4.04-4.029zm-2.584-14.851v-1.962a4.04 4.04 0 014.041-4.029h10.855v10.02H18.562a4.042 4.042 0 01-4.041-4.03zm-2.63-10.825a4.04 4.04 0 01-4.04-4.028v-1.962a4.038 4.038 0 014.04-4.028h17.526v10.018H11.89zm36.211-15.698h-1c-1.21 0-2.193-.936-2.193-2.087v-5.452c0-1.152.983-2.088 2.194-2.088h1v9.627zm55.111-9.627h1.002c1.209 0 2.194.936 2.194 2.088v5.452c0 1.15-.985 2.087-2.194 2.087h-1.002v-9.627zm50.397 74.21l-12.021-11.965a27.81 27.81 0 00.316-8.894 2.425 2.425 0 00-4.812.597 22.93 22.93 0 01-.383 7.924 3.549 3.549 0 00.964 3.306l12.429 12.374-15.605 15.535-12.598-12.542v-34.79a2.41 2.41 0 00-.355-1.257l-7.62-12.475c-2.418-3.974-3.107-7.302-2.051-9.89.978-2.403 3.318-3.84 4.967-4.59 0 0 12.24 21.41 12.321 21.51 0 0 3.206 3.337 4.443 5.266a2.428 2.428 0 003.348.732 2.41 2.41 0 00.737-3.337c-1.284-2-2.83-3.837-4.582-5.452L121.9 125.176V97.783a2.42 2.42 0 00-2.425-2.416 2.42 2.42 0 00-2.424 2.416v23.3a4.092 4.092 0 00-1.356.28c-2.336.928-6.52 3.139-8.314 7.536-1.14 2.794-1.12 5.918.05 9.33h-5.586a2.419 2.419 0 00-2.425 2.417 2.42 2.42 0 002.425 2.417h7.901a.732.732 0 01.035.059l6.959 11.391h-5.477c-1.106-4.602-5.268-8.037-10.215-8.037H86.156v-4.505c8.575-2.74 15.1-10.002 16.682-18.922h1.377c3.883 0 7.043-3.105 7.043-6.922v-5.452c0-3.818-3.16-6.922-7.043-6.922h-1.002V91.032c0-13.425-10.043-21.124-27.554-21.124-17.512 0-27.557 7.699-27.557 21.124v12.721h-1c-3.885 0-7.043 3.104-7.043 6.922v5.452c0 3.817 3.158 6.922 7.044 6.922h1.374c1.583 8.92 8.108 16.183 16.682 18.922v4.505H50.27c-4.947 0-9.11 3.435-10.216 8.037h-3.58a8.914 8.914 0 00-2.207-3.307v-99.12a4.257 4.257 0 014.25-4.254H112.8c2.343 0 4.25 1.91 4.25 4.255v34.097a2.421 2.421 0 002.425 2.417 2.421 2.421 0 002.425-2.417V52.087c0-5.012-4.082-9.087-9.1-9.087H38.515c-5.016 0-9.098 4.075-9.098 9.087v66.972H11.89c-4.902 0-8.89 3.976-8.89 8.863v1.962c0 4.48 3.354 8.192 7.69 8.778a8.796 8.796 0 00-1.018 4.113v1.962c0 3.228 1.743 6.057 4.338 7.607a8.81 8.81 0 00-1.756 5.282v1.962c0 3.14 1.648 5.902 4.126 7.477a8.8 8.8 0 00-1.86 5.414v1.96c0 4.887 3.989 8.863 8.891 8.863h6.006v15.61c0 5.011 4.082 9.088 9.098 9.088H53.46a2.42 2.42 0 002.425-2.417 2.42 2.42 0 00-2.425-2.418H38.515a4.256 4.256 0 01-4.249-4.253v-16.485c2.98-1.433 5.04-4.474 5.04-7.987v-1.96c0-3.14-1.65-5.903-4.126-7.477a8.804 8.804 0 001.86-5.415v-.241h80.01v39.565a4.256 4.256 0 01-4.25 4.253H65.098a2.421 2.421 0 00-2.424 2.418A2.421 2.421 0 0065.098 208H112.8c5.018 0 9.1-4.077 9.1-9.088v-2.948l9.25 9.208a4.716 4.716 0 003.348 1.377 4.716 4.716 0 003.351-1.38l15.76-15.69a4.677 4.677 0 001.391-3.34 4.678 4.678 0 00-1.39-3.342z" fill="#51215B" mask="url(#b)"/><path d="M145 84.5c0 14.635-11.865 26.5-26.5 26.5C103.863 111 92 99.135 92 84.5S103.863 58 118.5 58c14.635 0 26.5 11.865 26.5 26.5" fill="#E73C4A" mask="url(#b)"/><path d="M118.5 61.229c-12.832 0-23.27 10.438-23.27 23.27 0 12.834 10.438 23.272 23.27 23.272 12.832 0 23.27-10.438 23.27-23.272 0-12.832-10.438-23.27-23.27-23.27m0 52.771C102.234 114 89 100.766 89 84.5S102.234 55 118.5 55 148 68.234 148 84.5 134.766 114 118.5 114" fill="#51215B" mask="url(#b)"/><path d="M130.855 100c-.818 0-1.633-.31-2.249-.93l-22.71-22.82a3.051 3.051 0 01.051-4.369 3.185 3.185 0 014.448.048l22.709 22.821a3.051 3.051 0 01-.05 4.37 3.161 3.161 0 01-2.2.88" fill="#FFF" mask="url(#b)"/><path d="M108.09 100a3.05 3.05 0 01-2.21-.947 3.185 3.185 0 01.05-4.447l22.821-22.708a3.05 3.05 0 014.37.048 3.185 3.185 0 01-.052 4.448l-22.82 22.71c-.6.599-1.38.896-2.16.896M44 40c0 12.151-9.85 22-22 22S0 52.151 0 40s9.85-22 22-22 22 9.849 22 22" fill="#FFF" mask="url(#b)"/><path d="M34 40c0 6.627-5.372 12-12 12s-12-5.373-12-12c0-6.629 5.372-12 12-12s12 5.371 12 12" fill="#297DA2" mask="url(#b)"/><path d="M70 17.5C70 27.166 61.94 35 52 35s-18-7.835-18-17.5S42.06 0 52 0s18 7.835 18 17.5" fill="#F8B23F" mask="url(#b)"/></g></svg>