<svg width="303" height="355" xmlns="http://www.w3.org/2000/svg" xmlns:xlink="http://www.w3.org/1999/xlink"><defs><path id="a" d="M.082.638h100.771v100.128H.082z"/><path id="c" d="M0 .175h156.825V157H0z"/></defs><g fill="none" fill-rule="evenodd"><path d="M294.132 209.168c6.196 6.474 9.143 14.203 8.848 23.179-.3 8.98-3.679 16.57-10.145 22.772-6.466 6.205-14.18 9.161-23.15 8.86-8.966-.297-16.441-3.572-22.435-9.834L68.013 68.988c-6.197-6.475-9.197-14.249-9.004-23.341.193-9.081 3.413-16.624 9.667-22.623 6.466-6.203 14.235-9.205 23.31-9.016 9.078.2 16.712 3.53 22.908 10.004l179.238 185.156z" fill-opacity=".4" fill="#297DA2"/><path d="M20.24 231h252.52c8.216 0 12.33-9.885 6.52-15.665L153.02 89.686c-3.6-3.581-9.44-3.581-13.04 0L13.72 215.335C7.91 221.115 12.024 231 20.24 231" fill="#51215B"/><g transform="translate(1)"><mask id="b" fill="#fff"><use xlink:href="#a"/></mask><path d="M100.853 50.702c0 27.65-22.557 50.064-50.385 50.064-27.827 0-50.386-22.414-50.386-50.064S22.64.637 50.468.637c27.828 0 50.385 22.415 50.385 50.065" fill="#F8B23F" mask="url(#b)"/></g><path d="M160.384 136.706c3.225 3.341 4.758 7.33 4.606 11.96-.156 4.635-1.916 8.551-5.28 11.75-3.367 3.203-7.382 4.728-12.05 4.573-4.667-.153-8.558-1.844-11.678-5.074l-93.29-95.542c-3.225-3.341-4.787-7.352-4.688-12.043.101-4.687 1.778-8.578 5.033-11.673 3.365-3.203 7.409-4.75 12.132-4.653 4.725.103 8.698 1.82 11.923 5.162l93.292 95.54z" fill="#FFF"/><g transform="translate(0 198)"><mask id="d" fill="#fff"><use xlink:href="#c"/></mask><path d="M156.825 78.588c0 43.305-35.106 78.412-78.412 78.412C35.107 157 0 121.893 0 78.588 0 35.28 35.107.175 78.413.175s78.412 35.106 78.412 78.413" fill="#FFF" mask="url(#d)"/></g><path d="M129 278c0 28.166-22.834 51-51 51-28.167 0-51-22.834-51-51 0-28.167 22.833-51 51-51 28.166 0 51 22.833 51 51" fill="#E73C4A"/><path d="M185 288.5c0 11.322-9.178 20.5-20.5 20.5s-20.5-9.178-20.5-20.5 9.178-20.5 20.5-20.5 20.5 9.178 20.5 20.5" fill="#297DA2"/></g></svg>