<svg width="206" height="169" xmlns="http://www.w3.org/2000/svg" xmlns:xlink="http://www.w3.org/1999/xlink"><defs><path id="a" d="M.006.231h184.47V169H.006z"/></defs><g fill="none" fill-rule="evenodd"><g transform="translate(21)"><mask id="b" fill="#fff"><use xlink:href="#a"/></mask><path d="M171.032 88.35c-1.022.278-2.133.319-3.204.324-7.742.025-15.484.013-23.226.013v-.07c-8.043 0-16.087.077-24.126-.025-5.742-.074-9.622-5.429-8.04-10.843 1.073-3.676 4.44-6.086 8.603-6.088 13.205 0 26.409.019 39.613.033 2.7.001 5.403-.074 8.1.029 4.483.167 7.961 3.357 8.458 7.617.466 4.004-2.17 7.915-6.178 9.01m-3.252 24.482c-.638.14-1.307.18-1.962.18-16.872-.002-33.741-.016-50.611-.023-3.522-.001-6.367-1.131-7.798-4.626-1.528-3.732-.753-7.666 1.972-10.305 1.659-1.61 3.66-2.138 5.921-2.13 8.405.035 16.809.014 25.215.014v.11c8.585 0 17.17-.036 25.755.013 4.506.024 7.353 2.771 7.78 7.312.424 4.527-2.245 8.571-6.272 9.455m-9.413 22.646c-1.498 1.362-3.27 1.951-5.264 1.946-14.214-.032-28.427-.036-42.64-.12-4.493-.026-7.964-3.857-7.937-8.514.033-5.126 3.113-8.416 8.043-8.447 7.136-.046 14.274-.013 21.41-.013v.075c6.898 0 13.793-.007 20.69.002 4.038.005 6.51 1.507 7.734 4.658 1.555 4.001.794 7.844-2.036 10.413m-15.77 26.272c-10.672.022-21.346.012-32.02-.027-4.837-.016-7.984-3.421-7.972-8.51.012-5.085 3.155-8.402 8.027-8.441 2.636-.023 5.276-.006 7.914-.006h7.915v.028c5.336 0 10.673-.012 16.01.003 5.047.016 8.163 3.353 8.16 8.705-.004 4.885-3.22 8.24-8.034 8.248m36.218-69.496c6.968-5.909 7.6-16.088 1.366-22.764-3.357-3.597-7.614-5.036-12.466-5.033-19.371.009-38.742-.013-58.114-.024h-2.459c2.908-9.19 6.788-22.917-1.037-45.415-3.302-9.493-8.996-14.07-13.19-16.24-5.202-2.69-11.209-3.282-16.481-1.62-8.164 2.57-12.345 9.757-10.169 17.478.945 3.35 1.983 5.859 2.9 8.071 2.252 5.442 3.625 8.764 1.216 19.89-.33.438-.93 1.204-1.515 1.954-3.023 3.863-8.338 10.662-11.952 17.01-.307.453-.577.979-.838 1.523a47.148 47.148 0 00-.954 1.902c-.665 1.158-1.505 2.07-2.913 2.073-15.731.037-31.463-.007-47.196-.059-2.44-.006-4.215.702-5.007 3.152v19.822c1.546 2.448 2.804 3.146 4.695 2.597 1.907-.552 2.612-1.82 2.617-4.73.007-3.905.004-7.809.017-11.713.002-.57.07-1.14.11-1.715h44.327c-.109.73-.218 1.31-.276 1.896-.338 3.399-.771 6.796-.954 10.205-.125 2.301 1.5 3.868 3.592 3.867 2.065-.002 3.437-1.402 3.59-3.686.053-.778.065-1.56.101-2.34.418-8.785 1.717-12.981 3.534-17.303l-.075-.12c3.17-6.343 9.575-14.53 12.626-18.433 2.177-2.78 2.404-3.072 2.599-3.945C79.527 35 77.567 30.26 75.082 24.256c-.889-2.151-1.809-4.372-2.65-7.358-1.483-5.257 2.089-8.42 5.925-9.63 6.114-1.923 16.94.177 21.697 13.855 7.387 21.24 3.518 33.4.694 42.28-.11.348-.22.69-.326 1.03h-.05c-.23.364-.458.73-.688 1.093-.857 1.36-1.289 2.724-.466 4.221.815 1.482 2.148 1.95 3.785 1.909 2.259-.058 1.72-.015 4.25-.015-3.529 6.442-3.128 12.489.932 18.303-4.631 2.526-7.387 6.284-8.43 11.261-1.05 5.023.229 9.586 3.058 13.82-4.763 2.89-6.977 7.18-7.421 12.437-.449 5.317 1.375 9.865 5.085 13.646-5.763 6.173-6.421 13.063-3.218 20.463-7.804.812-15.085-.52-22.018-3.83-9.068-4.328-17.208-10.02-24.458-16.947-1.574-1.502-3.166-2.113-5.282-2.103-12.008.058-24.016.029-36.024.029H7.25c0-.891-.003-1.54 0-2.187.014-3.665.048-7.328.036-10.992-.007-1.62-.864-2.755-2.358-3.282-1.488-.523-2.865-.18-3.906 1.051-.413.492-.681 1.103-1.016 1.66v18.021c1.058 2.28 2.78 3.037 5.326 3.013 12.907-.12 25.818-.08 38.729-.019.901.005 1.997.43 2.665 1.033 6.81 6.142 14.157 11.507 22.32 15.703 6.835 3.515 13.937 6.212 21.757 6.235 17.174.05 34.347.053 51.52.032 7.388-.008 13.497-4.98 15.147-12.206.976-4.277.145-8.31-1.79-12.183 8.977-1.664 16.385-12.067 10.865-24.196 13.153-.876 19.466-15.686 10.883-27.023.46-.372.932-.739 1.387-1.126" fill="#51215B" mask="url(#b)"/></g><path d="M26.235 112.525c1.485-.855 2.138-2.623 1.55-4.206-.603-1.63-2.206-2.746-3.847-2.162-1.122.397-1.968 1.568-2.938 2.395v2.107c.278.352.545.715.839 1.056 1.155 1.347 2.907 1.666 4.396.81" fill="#000"/><path d="M48 105c0 13.254-10.746 24-24 24-13.256 0-24-10.746-24-24s10.744-24 24-24c13.254 0 24 10.746 24 24" fill="#FFF"/><path d="M41 105.5c0 9.664-7.836 17.5-17.5 17.5-9.666 0-17.5-7.836-17.5-17.5C6 95.834 13.834 88 23.5 88c9.664 0 17.5 7.835 17.5 17.5" fill="#F8B23F"/><path d="M178 37.5c0 10.218-8.282 18.5-18.5 18.5S141 47.718 141 37.5 149.282 19 159.5 19 178 27.282 178 37.5" fill="#297DA2"/><path d="M67 121.5c0 6.351-5.149 11.5-11.5 11.5S44 127.851 44 121.5 49.149 110 55.5 110 67 115.149 67 121.5" fill="#E73C4A"/></g></svg>