<svg width="224" height="98" xmlns="http://www.w3.org/2000/svg" xmlns:xlink="http://www.w3.org/1999/xlink"><defs><path id="a" d="M0 .284h105.057v64.828H0z"/></defs><g fill="none" fill-rule="evenodd"><path d="M157.849 48.772c0 26.937-21.837 48.772-48.772 48.772-26.936 0-48.773-21.835-48.773-48.772C60.304 21.836 82.141 0 109.076 0c26.936 0 48.773 21.835 48.773 48.77" fill-opacity=".1" fill="#297DA2"/><path fill="#FFF" d="M52 20.055h48.267l3.303 1.816v57.963l-1.673 3.634-48.199-.826zm70.612 0h35.236l2.143 62.587h-36.77l-3.632-2.312V23.193z"/><path d="M131.47 73.496h21.082a1.393 1.393 0 000-2.785h-20.188v-6.54h80.343v6.54h-54.162a1.393 1.393 0 000 2.785h55.056c1.042 0 1.89-.849 1.89-1.89v-8.329c0-1.042-.848-1.89-1.89-1.89H131.47c-1.042 0-1.89.848-1.89 1.89v8.328c0 1.042.848 1.891 1.89 1.891M10.402 53.347H55.67c.849 0 1.539-.623 1.539-1.393 0-.768-.69-1.391-1.54-1.391H10.403c-.85 0-1.54.623-1.54 1.39 0 .77.69 1.394 1.54 1.394m-.001-7.433H55.67c.849 0 1.539-.624 1.539-1.393 0-.768-.69-1.392-1.54-1.392H10.403c-.85 0-1.54.624-1.54 1.392 0 .77.69 1.393 1.54 1.393m-.366 14.866h20.656c.85 0 1.539-.624 1.539-1.393s-.689-1.392-1.539-1.392H10.037c-.85 0-1.539.623-1.539 1.392 0 .77.689 1.392 1.539 1.392m56.245-25.582c0-.027.024-.05.054-.05h28.658c.03 0 .055.023.055.05v33.515c0 .027-.025.048-.055.048h-3.548v-.867c0-2.137-.766-4.115-2.06-5.723 1.073-1.482 1.699-3.25 1.699-5.149v-10.52c0-1.566-.346-3.018-1.03-4.317-.674-1.283-1.636-2.387-2.858-3.283-3.785-2.773-9.28-2.773-13.063 0a9.598 9.598 0 00-2.86 3.283c-.682 1.3-1.03 2.751-1.03 4.316v10.521c0 1.9.628 3.666 1.7 5.148-1.293 1.608-2.06 3.587-2.06 5.724v.867h-3.548c-.03 0-.054-.02-.054-.048V35.197zM76.29 57.321v1.661c-.755.305-1.465.686-2.117 1.132a6.094 6.094 0 01-.85-3.093v-1.855a9.493 9.493 0 002.967 2.155zm5.695-12.57c-.278-.42-.78-.678-1.32-.678-.541 0-1.042.257-1.32.677-1.768 2.668-4.366 3.685-6.021 4.073V46.5c0-1.148.246-2.197.73-3.119a6.784 6.784 0 012.017-2.317c1.33-.974 2.962-1.463 4.594-1.463 1.63 0 3.263.49 4.594 1.463a6.767 6.767 0 012.016 2.316c.486.922.732 1.972.732 3.12v2.32c-1.656-.39-4.26-1.41-6.022-4.07zm3.055 12.57a9.497 9.497 0 002.967-2.16v1.86a6.087 6.087 0 01-.85 3.093 11.082 11.082 0 00-2.117-1.132V57.32zm-3.078.883v1.642c0 .647-.582 1.173-1.297 1.173s-1.297-.526-1.297-1.173v-1.642c.425.052.857.082 1.297.082.44 0 .873-.03 1.297-.082zm-1.297-2.702c-2.89 0-5.34-1.722-6.17-4.09 1.793-.476 4.179-1.474 6.17-3.57 1.992 2.097 4.379 3.094 6.172 3.57-.83 2.368-3.282 4.09-6.172 4.09zm7.702 13.258H72.963v-.867c0-2.598 1.583-4.868 3.92-6.065.759 1.18 2.169 1.976 3.782 1.976s3.02-.795 3.78-1.974c2.338 1.197 3.922 3.465 3.922 6.063v.867zm-22.031 2.785h28.658c1.727 0 3.133-1.27 3.133-2.833V35.197c0-1.562-1.406-2.834-3.133-2.834H66.336c-1.727 0-3.132 1.272-3.132 2.834v33.515c0 1.562 1.405 2.833 3.132 2.833z" fill="#51215B"/><g transform="translate(0 18.544)"><mask id="b" fill="#fff"><use xlink:href="#a"/></mask><path d="M100.539.284H24.605c-.85 0-1.54.623-1.54 1.392 0 .768.69 1.392 1.54 1.392h75.934c.793 0 1.439.584 1.439 1.302v56.655c0 .718-.645 1.303-1.44 1.303H4.519c-.794 0-1.44-.585-1.44-1.303V4.371c0-.719.646-1.303 1.44-1.303H17.5c.85 0 1.539-.624 1.539-1.392 0-.769-.69-1.392-1.54-1.392H4.519C2.027.284 0 2.117 0 4.37v56.655c0 2.254 2.027 4.087 4.518 4.087h96.02c2.492 0 4.519-1.834 4.519-4.087V4.37c0-2.253-2.027-4.086-4.518-4.086" fill="#51215B" mask="url(#b)"/></g><path d="M10.402 33.089H55.67c.849 0 1.539-.623 1.539-1.392 0-.769-.69-1.392-1.54-1.392H10.403c-.85 0-1.54.623-1.54 1.392 0 .769.69 1.392 1.54 1.392m44.234 36.799c-1.465.137-2.529.8-3.985.989-1.185.154-2.368.155-3.556.199-.078-.435-.34-.857-.708-1.061-2.334-1.3-5.543-.707-8.072-.337-.03.004-.05.023-.08.029-.513-.29-1.268-.617-1.397-.627-.843-.061-1.54.38-2.169.889a2.771 2.771 0 00-2.097.167 1.75 1.75 0 00-1.129-.152c-1.506.316-2.917.42-4.34.43.573-.842.866-1.781.677-3.141-.147-1.066-1.83-1.481-2.487-.657-1.272 1.596-2.295 4.288-3.996 1.938-.478-.661-1.277-.96-2.036-.534-1.514.847-4.773 3.22-5.149.25-.19-1.511-2.543-2.195-2.923-.395.001.14-.024.268-.046.397l-.007-.001.003.036c-.109.594-.454 1.059-1.06 1.379-1.784.652-1.013 3.53.792 2.87a6.327 6.327 0 001.046-.494c.301.51.736.934 1.431 1.18 1.898.677 4.483-.878 6.334-2.007 1.154 1.275 2.143 1.734 3.096 1.582a1.54 1.54 0 001.024.473c2.537.134 4.488.202 6.916-.166.406.854 1.73 1.112 2.382.38L34.146 73c.583.394 1.315.175 1.804-.232.791-.657 2.43.45 3.495.235.351-.071.632-.314.826-.616.904-.111 2.058-.208 3.048-.147-.398 1.078.373 2.275 1.715 2 2.352-.48 4.501-.044 6.788-.377.988-.144 1.82-.907 2.815-1 1.891-.177 1.91-3.155 0-2.976m160.142-17.933c0-.769-.69-1.392-1.54-1.392h-45.266c-.85 0-1.54.623-1.54 1.392 0 .77.69 1.393 1.54 1.393h45.267c.85 0 1.539-.623 1.539-1.393m0-10.824c0-.77-.69-1.393-1.54-1.393h-45.266c-.85 0-1.54.623-1.54 1.393 0 .769.69 1.392 1.54 1.392h45.267c.85 0 1.539-.623 1.539-1.392m-26.096-9.433c.85 0 1.538-.623 1.538-1.393 0-.768-.689-1.392-1.538-1.392h-20.656c-.85 0-1.54.624-1.54 1.392 0 .77.69 1.393 1.54 1.393h20.656z" fill="#51215B"/><path d="M123.103 18.827l75.933.001c.85 0 1.54.623 1.54 1.392 0 .77-.69 1.392-1.54 1.392h-75.933c-.794 0-1.44.584-1.44 1.302V79.57c0 .718.646 1.303 1.44 1.303h96.02c.794 0 1.44-.584 1.44-1.303V22.915c0-.719-.645-1.303-1.44-1.303h-12.981c-.85 0-1.54-.623-1.54-1.392 0-.769.689-1.392 1.54-1.392h12.982c2.49 0 4.518 1.833 4.518 4.086V79.57c0 2.254-2.027 4.087-4.518 4.087h-96.021c-2.491 0-4.518-1.834-4.518-4.087V22.914c0-2.253 2.027-4.087 4.518-4.087" fill="#51215B"/><path d="M135.861 30.412a3.115 3.115 0 00-3.112 3.112v15.341a3.115 3.115 0 003.112 3.111h11.533a3.115 3.115 0 003.112-3.11V33.523a3.115 3.115 0 00-3.112-3.112h-11.533zm11.533 24.564h-11.533a6.118 6.118 0 01-6.112-6.11V33.523a6.12 6.12 0 016.112-6.112h11.533a6.12 6.12 0 016.112 6.112v15.341a6.118 6.118 0 01-6.112 6.111z" fill="#51215B"/></g></svg>