<svg width="95" height="109" xmlns="http://www.w3.org/2000/svg" xmlns:xlink="http://www.w3.org/1999/xlink"><defs><path id="a" d="M0 .221h56.76V70H0z"/><path id="c" d="M.457.653h38.072v38.07H.457z"/></defs><g fill="none" fill-rule="evenodd"><path d="M95 67c0 22.643-18.356 41-41 41-22.643 0-41-18.357-41-41s18.357-41 41-41c22.644 0 41 18.357 41 41" fill-opacity=".1" fill="#E73C4A"/><path d="M40.031 54c-.064.728-.132 1.254-.151 1.783-.031.87.04 1.752-.059 2.616-.265 2.354-1.39 4.067-4.25 3.901-1.36-.079-2.73-.109-4.087-.015-1.184.082-2.387.253-3.521.59-1.81.539-2.678 2.038-2.426 3.917.095.7.262 1.392.416 2.083.52 2.344.974 4.688.831 7.117-.18 3.058-1.554 5.006-4.443 5.994-1.023.35-2.094.659-3.164.747-1.091.09-1.46.608-1.695 1.58-.334 1.373-.851 2.701-1.261 4.055-.241.795-.73 1.174-1.565 1.12-.325-.022-.656.027-.98-.005-1.01-.1-1.569.392-2.042 1.263-2.625 4.838-5.307 9.646-7.957 14.47-.246.446-.409.939-.677 1.569 1.323-.179 2.448-.317 3.569-.482 5.445-.804 10.906-1.174 16.422-.95 4.15.17 8.244.614 12.278 1.587.623.15 1.029.031 1.384-.507.951-1.446.834-4.114-.405-5.332-.724-.713-1.638-1.239-2.495-1.807-.915-.608-1.055-1.1-.467-2.015a4.95 4.95 0 01.512-.636c1.802-1.966 3.096-4.176 3.558-6.855.25-1.449.531-1.523 2.044-1.172 1.267.294 2.544.649 3.833.74 3.536.247 4.699-1.433 4.44-4.434-.115-1.338-.165-2.625 1.3-3.383-.2-.278-.308-.463-.451-.614-1.182-1.252-1.106-1.62.435-2.299.466-.205.894-.505 1.286-.73-.689-2.932-.384-3.465 2.311-4.388.44-.15.859-.37 1.446-.623-.587-.932-1.034-1.733-1.572-2.469-1.027-1.407-2.107-2.778-3.166-4.161-.474-.619-.72-1.32-.123-1.927 1.243-1.264.759-2.413.012-3.687-.655-1.118-1.14-2.337-1.689-3.517-.275-.592-.509-1.201-.79-1.789-.346-.722-.835-.971-1.71-.819-.882.154-1.827.007-2.736-.08-.637-.063-1.262-.246-2.195-.436" fill="#FFF"/><g transform="translate(0 39)"><mask id="b" fill="#fff"><use xlink:href="#a"/></mask><path d="M49.83 7.207c-.85-.202-1.703-.381-2.542-.607-3.606-.972-7.205-1.971-10.814-2.932-2.768-.738-5.567-1.23-8.457-1.226-2.822.004-5.294.768-7.387 2.708-.463.43-1.095.91-1.674.944-2.397.137-4.191 1.472-5.696 3.028-4.383 4.535-5.89 10.024-4.698 16.188 1.164 6.02 4.472 10.882 8.65 15.224.237.247.641.44.98.46.71.043 1.44.03 2.137-.096 3.59-.648 5.007-2.357 4.806-6.035-.09-1.624-.547-3.228-.786-4.848-.199-1.346-.47-2.706-.444-4.055.039-2.018 1.067-3.515 2.933-4.408 1.313-.63 2.7-.94 4.14-.974 1.65-.039 3.302-.005 4.953-.006 1.68-.002 1.991-.238 2.297-1.903.118-.641.117-1.306.144-1.96.034-.767-.023-1.542.069-2.3.217-1.78 1.364-2.548 3.123-2.152.484.109.959.335 1.44.342 1.03.015 2.151.16 3.071-.181 1.39-.518 2.492-1.572 3.362-2.818.468-.668.708-1.353.393-2.393m-9.21 7.118c-.064.732-.134 1.26-.153 1.79-.032.876.04 1.76-.059 2.628-.269 2.365-1.404 4.087-4.29 3.92-1.373-.08-2.757-.11-4.126-.016-1.195.082-2.41.254-3.556.593-1.825.541-2.701 2.046-2.447 3.934.094.704.264 1.398.42 2.092.525 2.355.983 4.71.839 7.15-.182 3.07-1.57 5.028-4.485 6.02-1.034.352-2.115.661-3.194.75-1.102.091-1.475.611-1.713 1.589-.335 1.379-.859 2.712-1.273 4.073-.242.797-.736 1.178-1.578 1.124-.328-.021-.663.026-.99-.006-1.02-.098-1.584.394-2.061 1.27-2.65 4.86-5.357 9.689-8.033 14.535-.247.448-.412.942-.682 1.575 1.335-.179 2.47-.318 3.602-.485 5.497-.807 11.01-1.178 16.577-.952 4.19.17 8.323.616 12.395 1.593.63.15 1.039.031 1.397-.51.96-1.452.841-4.132-.409-5.356-.73-.716-1.655-1.243-2.52-1.814-.922-.61-1.063-1.105-.47-2.025.148-.229.332-.436.517-.637 1.818-1.975 3.124-4.196 3.59-6.888.253-1.454.537-1.53 2.065-1.176 1.28.296 2.568.652 3.87.742 3.568.249 4.742-1.438 4.481-4.453-.116-1.344-.166-2.637 1.313-3.397-.204-.28-.312-.467-.456-.618-1.194-1.257-1.117-1.626.439-2.308.471-.207.902-.507 1.299-.735-.696-2.945-.388-3.48 2.333-4.407.444-.152.866-.37 1.458-.626-.593-.935-1.043-1.74-1.585-2.48-1.039-1.413-2.128-2.79-3.197-4.18-.478-.62-.727-1.324-.124-1.935 1.255-1.27.766-2.423.012-3.704-.662-1.122-1.15-2.347-1.705-3.532-.277-.594-.514-1.207-.798-1.797-.348-.725-.842-.976-1.727-.823-.89.154-1.843.007-2.761-.081-.643-.062-1.273-.245-2.215-.437M14.59 47.893c.233-.571.393-.916.519-1.275 1.273-3.632 1.245-3.663-1.26-6.534-3.559-4.076-6.213-8.65-7.332-13.978-1.492-7.1.245-13.36 5.3-18.612 1.695-1.761 3.71-3.081 6.24-3.432.398-.055.8-.343 1.125-.614C22.622.593 26.554-.192 30.928.413c3.556.492 7.005 1.363 10.447 2.324 2.749.769 5.519 1.47 8.299 2.119 1.936.45 2.995 1.865 2.453 3.812-.285 1.02-.901 1.971-1.479 2.884-.496.786-1.151 1.473-1.748 2.218.423 1.078.956 2.489 1.535 3.881.229.554.525 1.085.845 1.592 1.849 2.93 1.9 3.29.742 6.509.88 1.173 1.821 2.38 2.71 3.625.571.802 1.158 1.614 1.58 2.496.928 1.935.422 3.082-1.578 3.825-.611.227-1.234.427-1.952.675.08.46.165.873.221 1.288.124.911.012 1.798-.713 2.42-.535.458-.578.958-.593 1.592-.013.575-.112 1.285-.462 1.685-.607.692-.684 1.364-.648 2.227.039.91-.108 1.868-.378 2.743-.665 2.164-2.225 3.405-4.474 3.533-1.522.087-3.062-.14-4.593-.23-.375-.022-.748-.048-.94-.06-1.219 2.29-2.368 4.452-3.636 6.837.296.276.746.725 1.226 1.14 3.491 3.028 2.518 7.021.388 9.868-.408.546-.953.644-1.618.467-6.71-1.79-13.567-2.113-20.455-1.824-4.666.197-9.302.797-13.886 1.73-.69.14-1.437.494-1.978-.225-.52-.692-.094-1.37.245-1.993 2.151-3.948 4.31-7.892 6.482-11.83 1.217-2.206 2.515-4.37 3.673-6.608.512-.986 1.182-1.35 2.236-1.248.54.052 1.089.008 1.71.008" fill="#51215B" mask="url(#b)"/></g><path d="M45.033 61.614c-.908.638-1.795 1.2-2.579 1.832-.634.51-.559 1.03-.054 1.366.458.303 1.097.24 1.664-.191 1.124-.853 2.247-1.567 3.777-1.643.704-.035 1.16-.53 1.159-1.065 0-.546-.302-.999-1.106-.9-.937.117-1.895.39-2.861.601M36.578 101C32.166 95.87 13.191 89.831 13 89.772L13.566 88c.802.253 19.678 6.263 24.434 11.793L36.578 101z" fill="#51215B"/><g transform="translate(54)"><mask id="d" fill="#fff"><use xlink:href="#c"/></mask><path d="M23.333 13.949c.003-.061.006-.101.006-.141.001-.624.003-1.246 0-1.868a1.054 1.054 0 00-1.056-1.049h-5.57c-.591 0-1.057.47-1.058 1.066v1.987c2.563-.494 5.11-.521 7.678.005zm-8.748 19.68c.02.06.028.092.04.123.257.71.704 1.281 1.291 1.745.899.71 1.932 1.066 3.068 1.136 1.366.084 2.618-.243 3.725-1.062.635-.47 1.116-1.068 1.389-1.82.012-.035.012-.074.02-.122h-9.533zM2.536 31.561h33.88c-.194-4.68-2.803-10.43-8.536-13.711-5.454-3.122-12.402-3.037-17.831.673-4.572 3.125-7.015 7.516-7.513 13.038zm22.879-17.06a18.83 18.83 0 013.768 1.713c2.962 1.773 5.29 4.162 6.972 7.177a18.599 18.599 0 012.118 6.04c.177 1.062.293 2.13.246 3.207-.026.608-.448.991-1.06.991-2.878.002-5.756.001-8.635.001h-2.522c-.121.367-.215.73-.362 1.072-.613 1.439-1.666 2.467-3.041 3.176-1.414.73-2.924.976-4.493.78-2-.249-3.68-1.108-4.924-2.731a5.367 5.367 0 01-1.007-2.187c-.007-.034-.021-.067-.036-.11H7.77c-2.067 0-4.135-.011-6.202.007A1.091 1.091 0 01.457 32.52c.038-3.854 1.11-7.39 3.277-10.577 2.435-3.582 5.732-6.041 9.846-7.451v-2.504a3.141 3.141 0 013.176-3.172h1.505v-.212c0-2.302.004-4.605-.001-6.908-.001-.582.424-.968.832-1.028.597-.086 1.055.205 1.197.751.032.122.03.256.03.384l.001 6.803v.21c.41 0 .801-.01 1.192.003.486.016.984-.01 1.455.087 1.445.303 2.441 1.575 2.447 3.06.004.84.001 1.68.001 2.535z" fill="#51215B" mask="url(#d)"/></g><path d="M67 39.01a1.06 1.06 0 01-.309.717c-1.327 1.327-2.652 2.658-3.988 3.978-.45.445-1.053.334-1.385.013-.425-.412-.422-1.036-.004-1.466.479-.49.97-.967 1.455-1.451.827-.827 1.653-1.656 2.484-2.48.541-.536 1.38-.38 1.654.309.049.119.063.252.093.38M80.966 38c.327-.002.567.094.763.29 1.317 1.317 2.633 2.635 3.949 3.954.414.415.43 1.037.041 1.441a1.008 1.008 0 01-1.452.011c-1.075-1.063-2.14-2.137-3.21-3.206-.256-.257-.518-.507-.766-.771a1.01 1.01 0 01.518-1.7c.067-.015.137-.017.157-.019M72 44.467v-2.42c0-.6.421-1.045.987-1.047.584 0 1.01.432 1.012 1.04v4.885c-.001.599-.36 1.001-.94 1.07-.456.054-.925-.308-1.04-.807a1.13 1.13 0 01-.018-.244L72 44.467" fill="#51215B"/><path d="M24 26.5C24 32.852 18.85 38 12.5 38S1 32.852 1 26.5 6.15 15 12.5 15 24 20.148 24 26.5" fill-opacity=".1" fill="#F8B23F"/><path d="M49.857 45.818c-.855-.204-1.711-.385-2.554-.614-3.623-.982-7.239-1.993-10.865-2.965-2.781-.745-5.593-1.243-8.496-1.239-2.836.005-5.32.777-7.422 2.738-.466.434-1.1.921-1.682.955-2.41.138-4.211 1.488-5.723 3.06C8.71 52.34 7.197 57.89 8.395 64.12c1.17 6.088 4.493 11.002 8.69 15.392.238.25.645.445.985.466.712.043 1.446.03 2.147-.098 3.607-.655 5.03-2.383 4.829-6.101-.09-1.642-.55-3.263-.79-4.902-.2-1.36-.472-2.736-.446-4.1.039-2.04 1.071-3.553 2.946-4.456 1.32-.636 2.713-.95 4.16-.984 1.659-.04 3.317-.005 4.976-.007 1.688-.002 2-.24 2.308-1.923.119-.649.118-1.321.145-1.983.034-.775-.024-1.558.069-2.324.219-1.8 1.37-2.576 3.138-2.177.486.11.963.339 1.447.347 1.035.015 2.161.161 3.085-.184 1.397-.523 2.504-1.589 3.378-2.85.47-.674.711-1.367.395-2.418M57 32h34c-.196-4.697-2.814-10.468-8.567-13.76-5.473-3.132-12.447-3.046-17.894.676C59.952 22.052 57.5 26.458 57 32m11 2l.04.122c.271.706.74 1.275 1.356 1.736.943.705 2.027 1.06 3.218 1.13 1.433.083 2.748-.243 3.908-1.057.667-.467 1.17-1.062 1.457-1.81.013-.035.013-.074.021-.121H68z" fill="#FFF"/></g></svg>