<svg width="275" height="273" xmlns="http://www.w3.org/2000/svg" xmlns:xlink="http://www.w3.org/1999/xlink"><defs><path id="a" d="M0 .31h120.689v120.643H0z"/></defs><g fill="none" fill-rule="evenodd"><path d="M275 101c0 55.78-45.22 101-101 101S73 156.78 73 101 118.22 0 174 0s101 45.22 101 101" fill-opacity=".2" fill="#F8B23F"/><g transform="translate(0 152)"><mask id="b" fill="#fff"><use xlink:href="#a"/></mask><path d="M120.689 60.632c0 33.313-27.017 60.321-60.345 60.321C27.017 120.953 0 93.945 0 60.633 0 27.317 27.017.31 60.344.31c33.328 0 60.345 27.007 60.345 60.321" fill="#297DA2" mask="url(#b)"/></g><path d="M158.27 79.48c6.471-5.163 13.832-7.238 22.076-6.235 8.248 1.008 14.96 4.731 20.145 11.177 5.184 6.445 7.274 13.77 6.261 21.983-1.01 8.21-4.64 14.808-10.9 19.801l-112.97 112.22c-6.472 5.163-13.879 7.285-22.238 6.366-8.35-.919-15.033-4.491-20.046-10.725-5.184-6.445-7.31-13.825-6.391-22.145.928-8.32 4.621-15.06 11.093-20.222L158.27 79.48z" fill="#E73C4A"/><path d="M179 207c0 26.51-21.267 48-47.5 48-26.232 0-47.5-21.49-47.5-48s21.268-48 47.5-48c26.233 0 47.5 21.49 47.5 48" fill="#FFF"/><path d="M155 206c0 13.255-10.745 24-24 24-13.256 0-24-10.745-24-24s10.744-24 24-24c13.255 0 24 10.745 24 24" fill="#E73C4A"/></g></svg>