<svg width="126" height="60" xmlns="http://www.w3.org/2000/svg" xmlns:xlink="http://www.w3.org/1999/xlink"><defs><path id="a" d="M.696.317h39.16V44H.696z"/><path id="c" d="M.7.433h10.987v59.54H.7z"/><path id="e" d="M.153.433H11.14v59.54H.153z"/></defs><g fill="none" fill-rule="evenodd"><path d="M20.478 50.1l-9.473-37.585V53.24c0 2.255-.504 3.943-1.512 5.07C8.486 59.436 7.148 60 5.482 60c-1.613 0-2.93-.557-3.95-1.67C.51 57.215 0 55.52 0 53.238V6.559c0-2.575.671-4.311 2.015-5.211C3.358.45 5.172 0 7.457 0h3.709c2.23 0 3.85.201 4.858.604 1.007.402 1.752 1.126 2.236 2.173.485 1.045 1.035 2.75 1.654 5.11L28.499 40.2l8.587-32.314c.618-2.36 1.17-4.065 1.653-5.11.484-1.047 1.229-1.771 2.237-2.173C41.984.2 43.603 0 45.834 0h3.708c2.285 0 4.099.45 5.443 1.348C56.328 2.248 57 3.984 57 6.559v46.68c0 2.255-.504 3.943-1.511 5.07C54.48 59.436 53.129 60 51.437 60c-1.586 0-2.89-.564-3.91-1.69-1.022-1.128-1.532-2.816-1.532-5.071V12.515L36.522 50.1c-.619 2.441-1.122 4.233-1.511 5.373-.39 1.14-1.109 2.18-2.158 3.118C31.806 59.531 30.354 60 28.5 60c-1.397 0-2.579-.302-3.546-.906-.968-.603-1.72-1.374-2.258-2.314a13.177 13.177 0 01-1.27-3.118c-.31-1.14-.625-2.328-.947-3.562" fill="#00779A"/><g transform="translate(58 15)"><mask id="b" fill="#fff"><use xlink:href="#a"/></mask><path d="M29.553 37.939v-1.377c-1.315 1.627-2.696 2.99-4.145 4.092a15.397 15.397 0 01-4.75 2.46c-1.717.537-3.676.807-5.876.807-2.656 0-5.038-.539-7.143-1.613-2.107-1.076-3.737-2.558-4.89-4.447-1.37-2.283-2.053-5.562-2.053-9.839V6.732c0-2.15.496-3.758 1.489-4.82C3.177.849 4.492.317 6.129.317c1.664 0 3.005.539 4.025 1.614 1.019 1.076 1.529 2.676 1.529 4.801V23.93c0 2.493.214 4.584.644 6.277.429 1.691 1.2 3.017 2.314 3.974 1.114.958 2.623 1.437 4.528 1.437 1.852 0 3.596-.538 5.232-1.614 1.637-1.075 2.83-2.48 3.582-4.211.617-1.521.926-4.854.926-9.996V6.732c0-2.125.509-3.725 1.529-4.8C31.458.855 32.786.316 34.423.316c1.636 0 2.95.532 3.944 1.595.992 1.062 1.489 2.67 1.489 4.82V37.86c0 2.046-.476 3.581-1.428 4.604-.953 1.024-2.18 1.535-3.683 1.535-1.503 0-2.744-.532-3.723-1.595-.98-1.063-1.47-2.55-1.47-4.466" fill="#5B1659" mask="url(#b)"/></g><g transform="translate(99)"><mask id="d" fill="#fff"><use xlink:href="#c"/></mask><path d="M11.687 22.165V53.4c0 2.164-.523 3.8-1.57 4.909-1.046 1.108-2.374 1.664-3.984 1.664-1.61 0-2.918-.57-3.924-1.704C1.203 57.135.7 55.511.7 53.4V22.482c0-2.138.503-3.747 1.509-4.83 1.006-1.08 2.314-1.623 3.924-1.623 1.61 0 2.938.542 3.984 1.623 1.047 1.083 1.57 2.587 1.57 4.513M6.254 11.002c-1.529 0-2.838-.461-3.924-1.386C1.243 8.694.7 7.387.7 5.698c0-1.531.556-2.791 1.67-3.78C3.483.927 4.778.432 6.254.432c1.422 0 2.683.449 3.783 1.346 1.1.899 1.65 2.205 1.65 3.92 0 1.662-.537 2.962-1.61 3.899-1.073.937-2.348 1.405-3.823 1.405" fill="#F3A93E" mask="url(#d)"/></g><g transform="translate(114)"><mask id="f" fill="#fff"><use xlink:href="#e"/></mask><path d="M11.14 22.165V53.4c0 2.164-.523 3.8-1.57 4.909-1.046 1.108-2.374 1.664-3.984 1.664-1.61 0-2.918-.57-3.924-1.704C.656 57.135.153 55.511.153 53.4V22.482c0-2.138.503-3.747 1.51-4.83 1.005-1.08 2.313-1.623 3.923-1.623 1.61 0 2.938.542 3.984 1.623 1.047 1.083 1.57 2.587 1.57 4.513M5.707 11.002c-1.529 0-2.838-.461-3.924-1.386C.696 8.694.153 7.387.153 5.698c0-1.531.556-2.791 1.67-3.78C2.936.927 4.231.432 5.707.432 7.13.432 8.39.881 9.49 1.778c1.1.899 1.65 2.205 1.65 3.92 0 1.662-.537 2.962-1.61 3.899-1.073.937-2.348 1.405-3.823 1.405" fill="#E13D4C" mask="url(#f)"/></g></g></svg>