<svg width="85" height="41" xmlns="http://www.w3.org/2000/svg" xmlns:xlink="http://www.w3.org/1999/xlink"><defs><path id="a" d="M.002.103H25.94V30H0z"/><path id="c" d="M.123.042H6.88V40.98H.123z"/><path id="e" d="M.111.042H6.87V40.98H.11z"/></defs><g fill="none" fill-rule="evenodd"><path d="M13.652 34.236L7.337 8.552V36.38c0 1.54-.336 2.695-1.008 3.465C5.657 40.615 4.765 41 3.655 41c-1.075 0-1.953-.38-2.634-1.141C.341 39.099 0 37.939 0 36.38V4.482c0-1.76.448-2.947 1.344-3.56C2.239.306 3.449 0 4.972 0h2.472c1.487 0 2.567.137 3.239.412.671.275 1.168.77 1.49 1.485.323.715.69 1.88 1.103 3.493L19 27.47l5.724-22.08c.412-1.613.78-2.778 1.102-3.493.323-.715.82-1.21 1.492-1.485C27.989.137 29.068 0 30.556 0h2.472c1.523 0 2.732.307 3.628.921C37.552 1.535 38 2.722 38 4.482V36.38c0 1.54-.336 2.695-1.008 3.465-.672.77-1.572 1.155-2.7 1.155-1.058 0-1.927-.385-2.607-1.155-.681-.77-1.022-1.925-1.022-3.465V8.552l-6.315 25.684c-.412 1.668-.748 2.892-1.008 3.67-.26.78-.739 1.49-1.438 2.132-.698.641-1.666.962-2.902.962-.932 0-1.72-.206-2.365-.619a4.406 4.406 0 01-1.505-1.58 9.12 9.12 0 01-.846-2.132 279.07 279.07 0 01-.632-2.433" fill="#FFF"/><g transform="translate(40 11)"><mask id="b" fill="#fff"><use xlink:href="#a"/></mask><path d="M19.116 25.852v-.943c-.871 1.114-1.786 2.047-2.746 2.801a10.072 10.072 0 01-3.145 1.684c-1.138.368-2.436.552-3.892.552-1.76 0-3.338-.368-4.732-1.104-1.396-.736-2.476-1.751-3.24-3.044-.906-1.562-1.36-3.807-1.36-6.733V4.493c0-1.472.33-2.572.987-3.3C1.646.466 2.517.103 3.601.103c1.102 0 1.99.368 2.666 1.104.675.736 1.013 1.831 1.013 3.286v11.77c0 1.706.142 3.138.426 4.296.284 1.159.795 2.065 1.533 2.72.737.657 1.737.984 3 .984 1.225 0 2.38-.368 3.465-1.104a6.434 6.434 0 002.372-2.882c.409-1.042.614-3.322.614-6.842V4.493c0-1.455.337-2.55 1.013-3.286C20.378.47 21.257.103 22.342.103c1.084 0 1.955.363 2.612 1.09.658.728.987 1.828.987 3.3v21.305c0 1.4-.316 2.451-.947 3.152-.63.7-1.444 1.05-2.439 1.05-.996 0-1.817-.364-2.466-1.09-.649-.728-.973-1.747-.973-3.058" fill="#FFF" mask="url(#b)"/></g><g transform="translate(68)"><mask id="d" fill="#fff"><use xlink:href="#c"/></mask><path d="M6.88 14.986v21.476c0 1.489-.322 2.614-.965 3.376-.644.762-1.46 1.143-2.45 1.143-.991 0-1.795-.39-2.414-1.17-.62-.78-.928-1.897-.928-3.349V15.203c0-1.47.309-2.576.928-3.32.619-.744 1.423-1.117 2.413-1.117.99 0 1.807.373 2.451 1.116.643.745.965 1.78.965 3.104M3.538 7.31c-.94 0-1.745-.318-2.413-.953C.457 5.722.123 4.824.123 3.662c0-1.052.342-1.919 1.027-2.6.684-.68 1.48-1.02 2.388-1.02.875 0 1.65.309 2.327.925.677.617 1.015 1.516 1.015 2.695 0 1.143-.33 2.037-.99 2.681-.66.645-1.444.967-2.352.967" fill="#FFF" mask="url(#d)"/></g><g transform="translate(78)"><mask id="f" fill="#fff"><use xlink:href="#e"/></mask><path d="M6.869 14.986v21.476c0 1.489-.322 2.614-.965 3.376-.644.762-1.461 1.143-2.451 1.143s-1.795-.39-2.414-1.17c-.619-.78-.928-1.897-.928-3.349V15.203c0-1.47.31-2.576.928-3.32.62-.744 1.424-1.117 2.414-1.117.99 0 1.807.373 2.45 1.116.644.745.966 1.78.966 3.104M3.527 7.31c-.94 0-1.745-.318-2.413-.953C.445 5.722.11 4.824.11 3.662c0-1.052.342-1.919 1.027-2.6.685-.68 1.481-1.02 2.39-1.02.874 0 1.65.309 2.326.925.676.617 1.015 1.516 1.015 2.695 0 1.143-.33 2.037-.99 2.681-.66.645-1.445.967-2.352.967" fill="#FFF" mask="url(#f)"/></g></g></svg>