<svg width="86" height="41" xmlns="http://www.w3.org/2000/svg" xmlns:xlink="http://www.w3.org/1999/xlink"><defs><path id="a" d="M.47.216h26.433V30H.47z"/><path id="c" d="M.467.296H7.79v40.686H.467z"/><path id="e" d="M.102.296h7.325v40.686H.102z"/></defs><g fill="none" fill-rule="evenodd"><path d="M14.011 34.235L7.53 8.552V36.38c0 1.54-.344 2.695-1.034 3.465-.69.77-1.604 1.155-2.744 1.155-1.104 0-2.005-.38-2.703-1.142C.348 39.098 0 37.938 0 36.38V4.482C0 2.722.46 1.536 1.379.921 2.298.307 3.539 0 5.102 0H7.64c1.526 0 2.634.137 3.324.413.689.274 1.199.769 1.53 1.484.331.715.708 1.88 1.131 3.492L19.5 27.471l5.875-22.082c.423-1.612.8-2.777 1.13-3.492.332-.715.841-1.21 1.531-1.484C28.726.137 29.833 0 31.36 0h2.537c1.563 0 2.804.307 3.724.921.92.615 1.379 1.802 1.379 3.561V36.38c0 1.54-.345 2.695-1.034 3.465-.69.77-1.614 1.155-2.772 1.155-1.086 0-1.977-.385-2.676-1.155-.699-.77-1.047-1.924-1.047-3.465V8.552l-6.482 25.683c-.424 1.668-.768 2.892-1.034 3.671-.267.78-.759 1.49-1.476 2.131-.717.642-1.71.963-2.98.963-.955 0-1.764-.206-2.426-.619a4.45 4.45 0 01-1.545-1.581 8.998 8.998 0 01-.869-2.131c-.211-.779-.427-1.59-.648-2.434" fill="#00779A"/><g transform="translate(40 10)"><mask id="b" fill="#fff"><use xlink:href="#a"/></mask><path d="M19.948 25.867v-.938c-.888 1.11-1.82 2.038-2.798 2.79a10.356 10.356 0 01-3.206 1.677c-1.159.366-2.481.55-3.966.55-1.793 0-3.401-.367-4.822-1.1-1.422-.733-2.522-1.744-3.3-3.032C.93 24.257.47 22.022.47 19.106V4.59c0-1.466.334-2.562 1.005-3.287C2.145.58 3.032.216 4.137.216c1.123 0 2.028.367 2.717 1.1.688.734 1.032 1.825 1.032 3.274v11.726c0 1.7.144 3.125.435 4.28.29 1.153.81 2.057 1.561 2.71.752.653 1.771.979 3.057.979 1.25 0 2.427-.367 3.531-1.1 1.105-.734 1.911-1.69 2.418-2.872.417-1.037.625-3.309.625-6.815V4.59c0-1.449.344-2.54 1.032-3.273.689-.734 1.585-1.1 2.69-1.1s1.992.362 2.663 1.086c.67.725 1.005 1.821 1.005 3.287v21.224c0 1.395-.322 2.442-.964 3.14-.644.697-1.472 1.046-2.486 1.046-1.015 0-1.853-.363-2.513-1.087-.661-.725-.992-1.74-.992-3.046" fill="#5B1659" mask="url(#b)"/></g><g transform="translate(68)"><mask id="d" fill="#fff"><use xlink:href="#c"/></mask><path d="M7.791 15.146V36.49c0 1.479-.348 2.597-1.046 3.354-.698.758-1.583 1.138-2.656 1.138-1.074 0-1.946-.39-2.616-1.165C.802 39.042.467 37.933.467 36.49V15.363c0-1.461.335-2.56 1.006-3.3.67-.74 1.542-1.11 2.616-1.11 1.073 0 1.958.37 2.656 1.11.698.74 1.046 1.767 1.046 3.083M4.17 7.518c-1.019 0-1.892-.315-2.616-.947C.83 5.941.467 5.048.467 3.893c0-1.046.37-1.907 1.113-2.583C2.322.633 3.185.295 4.17.295a3.82 3.82 0 012.521.92c.734.614 1.1 1.507 1.1 2.678 0 1.136-.358 2.025-1.073 2.665-.715.64-1.565.96-2.549.96" fill="#F3A93E" mask="url(#d)"/></g><g transform="translate(78)"><mask id="f" fill="#fff"><use xlink:href="#e"/></mask><path d="M7.427 15.146V36.49c0 1.479-.349 2.597-1.047 3.354-.697.758-1.583 1.138-2.656 1.138-1.073 0-1.945-.39-2.616-1.165-.67-.775-1.006-1.884-1.006-3.327V15.363c0-1.461.335-2.56 1.006-3.3.67-.74 1.543-1.11 2.616-1.11 1.073 0 1.959.37 2.656 1.11.698.74 1.047 1.767 1.047 3.083M3.805 7.518c-1.02 0-1.892-.315-2.616-.947C.464 5.941.102 5.048.102 3.893c0-1.046.37-1.907 1.113-2.583C1.957.633 2.821.295 3.805.295c.948 0 1.788.307 2.522.92.733.614 1.1 1.507 1.1 2.678 0 1.136-.358 2.025-1.074 2.665-.715.64-1.565.96-2.548.96" fill="#E13D4C" mask="url(#f)"/></g></g></svg>