<svg width="126" height="100" xmlns="http://www.w3.org/2000/svg" xmlns:xlink="http://www.w3.org/1999/xlink"><defs><path id="a" d="M.532.28h49.422v48.505H.532z"/><path id="c" d="M0 .122h14.345v14.346H0z"/></defs><g fill="none" fill-rule="evenodd"><path d="M69.789 80.52c-1.936-.054-3.86-.147-5.783-.153-1.988-.006-3.98.019-5.963.131-1.887.108-3.797-.417-5.671.025.12 2.141.86 2.953 2.72 2.971 3.925.038 7.853.06 11.777.004 1.965-.03 2.656-.79 2.92-2.978zM28.326 30.307c-.075.22-.16.356-.16.493 0 13.218.005 26.435.016 39.652 0 .444.047.888.078 1.331.003.042.044.085.076.12.033.037.074.066.137.117h65.375V30.307H28.326zM60.98 88.941c-13.834 0-27.668-.002-41.502.003-2.886 0-5.215-2.172-5.391-5.059-.21-3.461-.207-3.46 2-6.234.775-.972 1.496-1.992 2.312-2.924.8-.915 1.104-1.922 1.112-3.131.042-5.912.172-11.823.216-17.735.049-6.61.023-13.22.065-19.83.012-1.836.034-3.686.254-5.505.293-2.44 1.841-4.111 3.833-5.4 1.35-.873 2.882-1.041 4.44-1.05 6.866-.03 13.734-.073 20.601-.075 13.983-.006 27.966.013 41.948.023 1.146 0 2.29-.002 3.434.03 3.356.091 5.782 1.75 7.247 4.669.509 1.013.62 2.297.652 3.464.098 3.577.079 7.155.088 10.734.024 10.09.058 20.179.036 30.268-.003 1.27.32 2.326 1.102 3.296 1.281 1.585 2.51 3.213 3.813 4.779.547.655.794 1.341.753 2.178-.036.746-.078 1.498-.007 2.236.248 2.645-2.938 5.35-5.356 5.322-9.901-.117-19.806-.052-29.707-.054H60.98v-.005z" fill="#51215B"/><path d="M59.237 39.52c.05-.84.053-1.618.158-2.383.122-.889.352-1.06 1.25-1.125.296-.02.596-.01.895-.004 1.77.036 1.966.219 2.06 1.907.075 1.316.16 1.379 1.518 1.732 1.002.263 1.996.57 2.966.929.687.252.997.735.69 1.505-.269.676-.414 1.397-.664 2.083-.368 1.008-.614 1.172-1.664.739-1.715-.708-3.492-.705-5.28-.622-.47.021-1.004.17-1.375.436-.871.623-.93 1.828-.056 2.52.8.633 1.74 1.112 2.66 1.58 1.279.649 2.642 1.144 3.885 1.848 2.746 1.555 4.187 4.519 3.584 7.402-.498 2.387-1.977 4.089-4.218 5.151-.402.19-.823.341-1.244.488-.59.207-.85.606-.873 1.213a24.477 24.477 0 01-.172 1.885c-.028.235-.042.542-.193.683-.875.813-1.97.414-2.977.423-.765.006-.934-.605-1.034-1.208-.017-.096-.024-.193-.034-.29-.217-2.043-.224-2.017-2.164-2.524-1.052-.275-2.083-.632-3.108-.994-.717-.253-.97-.809-.792-1.518.204-.8.4-1.608.692-2.376.35-.92.6-.96 1.615-.683 1.475.403 2.954.822 4.458 1.099.707.13 1.495.037 2.21-.116.908-.194 1.659-.679 1.825-1.69.162-1-.087-1.85-1.043-2.367a66.568 66.568 0 00-2.645-1.334c-1.246-.602-2.576-1.074-3.738-1.803-2.918-1.83-3.872-4.389-2.938-7.678.467-1.64 1.634-2.747 3.12-3.554.865-.469 1.75-.904 2.626-1.354" fill="#51215B"/><path d="M40 80.5c0 10.77-8.731 19.5-19.5 19.5S1 91.27 1 80.5C1 69.733 9.731 61 20.5 61S40 69.732 40 80.5" fill="#FFF"/><path d="M31 80.5C31 86.85 25.85 92 19.5 92S8 86.85 8 80.5C8 74.148 13.15 69 19.5 69S31 74.148 31 80.5" fill="#F8B23F"/><g transform="translate(76)"><mask id="b" fill="#fff"><use xlink:href="#a"/></mask><path d="M49.954 24.532c0 13.394-11.064 24.253-24.71 24.253C11.595 48.785.531 37.926.531 24.532.532 11.137 11.596.279 25.243.279s24.711 10.858 24.711 24.253" fill="#FFF" mask="url(#b)"/></g><path d="M116 24.5c0 8.008-6.492 14.5-14.5 14.5S87 32.508 87 24.5c0-8.007 6.492-14.5 14.5-14.5S116 16.493 116 24.5" fill="#297DA2"/><g transform="translate(0 54)"><mask id="d" fill="#fff"><use xlink:href="#c"/></mask><path d="M14.345 7.295A7.173 7.173 0 110 7.295a7.173 7.173 0 0114.345 0" fill="#E73C4A" mask="url(#d)"/></g></g></svg>