<svg width="129" height="76" xmlns="http://www.w3.org/2000/svg" xmlns:xlink="http://www.w3.org/1999/xlink"><defs><path id="a" d="M.845.014h85.384V67H.845z"/><path id="c" d="M.365.228h12.617v12.617H.365z"/><path id="e" d="M.168.761h17.948V18.71H.168z"/></defs><g fill="none" fill-rule="evenodd"><path d="M89.755 43h-56.51C32.005 43 31 42.028 31 40.83v-2.66c0-1.197 1.005-2.17 2.245-2.17h56.51c1.24 0 2.245.973 2.245 2.171v2.659c0 1.198-1.005 2.17-2.245 2.17" fill="#51215B"/><path d="M59.777 17.84H40.296c.487 1.192.355 1.868-.493 2.394a3.58 3.58 0 01-1.294.495c-.705.113-1.421.112-2.151.16.026.107.036.187.063.252 1.408 3.213 2.812 6.43 4.24 9.627.09.201.372.302.575.338.813.146 1.656.115 2.44.4 1.052.381 2.06.994 2.395 2.633h14.634c-.098-.1-.125-.144-.16-.16-.09-.045-.188-.072-.28-.116-2.545-1.214-4.63-3.198-5.765-6.69-.828-2.54-.37-4.983 1.2-6.75 1.196-1.346 2.609-2.028 4.077-2.583zm6.465-.027l-.012.119c.084.027.17.054.255.083 1.4.493 2.74 1.165 3.862 2.479 1.519 1.779 1.945 4.128 1.151 6.634-1.01 3.188-2.86 5.136-5.14 6.415-.347.194-.704.354-1.055.53 2.976.131 5.925.131 8.873.131 1.75 0 3.5.01 5.25-.016.193-.003.51-.15.555-.333.215-.875.695-1.357 1.237-1.758 1.085-.8 2.254-1.097 3.473-.973.366.037.559-.121.744-.55 1.06-2.462 2.144-4.906 3.22-7.356l.966-2.204c-1.074-.205-2.139-.276-3.148-.637-1.095-.393-1.283-1.16-.812-2.564H66.242zM31 16h64c-.519 1.075-.99 2.059-1.468 3.036-2.648 5.428-5.303 10.848-7.94 16.284-.23.473-.456.681-.886.68a19408.42 19408.42 0 00-43.417 0c-.425.001-.666-.194-.899-.676-3.008-6.2-6.032-12.385-9.052-18.575-.104-.215-.2-.441-.338-.749zm0-10h64c-.431 1.794-.607 1.999-1.687 1.999L32.659 8c-1.06 0-1.215-.182-1.659-2m64 3c-.25.6-.427 1.178-.694 1.611-.149.241-.448.33-.68.331-5.058.019-10.118.014-15.176.015-15.176 0-30.352-.018-45.53.043-1 .004-1.591-.47-1.92-2h64zm-64 4h64c-.36 1.679-.595 1.967-1.611 1.967-20.309 0-40.617-.009-60.925.033-.897.002-.976-1.098-1.464-2" fill="#51215B"/><path d="M75.787 27c-.217-.058-.663-.086-1.04-.306-.293-.171-.608-.53-.715-.896-.143-.492.218-.83.54-1.061a3.798 3.798 0 012.816-.698c.388.052.786.178 1.136.384.576.342.632.952.152 1.483-.76.839-1.7 1.038-2.889 1.094m-26.414 0c-.733-.089-1.428-.287-2.01-.962-.181-.21-.392-.644-.36-.914.038-.312.295-.69.512-.806 1.035-.557 2.049-.358 3.013.407.265.21.5.513.47 1.036-.034.548-.314.784-.616.916-.33.143-.672.218-1.01.323m48.414-14.502l-.685-.001.001.002.797.004c-.04-.001-.072-.005-.113-.005m-1.282.01l-.003-.015-.005.014z" fill="#51215B"/><g transform="translate(17 9)"><mask id="b" fill="#fff"><use xlink:href="#a"/></mask><path d="M82.508 50.23c-.073 1.12-.702 1.742-1.816 1.85-.203.02-.41.015-.615.015-24.351.001-48.703.002-73.055 0-1.875 0-2.463-.598-2.471-2.456v-1.204h77.964c0 .642.03 1.22-.007 1.795zM34.622 63.213c.262-1.643.496-3.222.768-4.796.444-2.581.455-2.58 3.066-2.58 3.963 0 7.926.012 11.888-.01.646-.004.952.122 1.054.856.296 2.16.697 4.304 1.071 6.53H34.622zM80.672.038L79.271 3.73l.003.016H80c.043 0 .077.005.12.006l-.846-.004.001.008h.933c1.767.046 2.311.638 2.311 2.491.003 12.411.002 24.822.002 37.233v1.081H4.552v-1.089c0-12.41-.002-24.821 0-37.232 0-1.925.573-2.49 2.526-2.493 3.215-.006 4.916-.002 5.272-.002-1.2-2.226-.909-1.428-1.956-3.73-.5 0 .094-.003-3.327.001C3.093.02.845 2.28.845 6.273v43.095c0 4.25 2.207 6.468 6.444 6.469 7.832.002 15.666 0 23.5 0h1.278l-1.255 7.439c-1.414 0-2.711-.034-4.008.008-1.365.045-2.24 1.31-1.684 2.503.226.481.772.813 1.173 1.213H60.78c1.168-.792 1.51-1.458 1.243-2.415-.26-.932-.943-1.311-2.373-1.313-1.118-.003-2.234 0-3.398 0l-1.244-7.434h1.279c7.97 0 15.94.012 23.911-.006 3.697-.01 6.026-2.37 6.027-6.056.005-14.571.005-29.142 0-43.713 0-3.546-2.127-5.824-5.553-6.025z" fill="#51215B" mask="url(#b)"/></g><path d="M96.496 12.499l-.001.002h.01v-.002h-.01z" fill="#51215B"/><path d="M36 57c0 9.941-8.06 18-18 18-9.941 0-18-8.059-18-18 0-9.94 8.059-18 18-18 9.94 0 18 8.06 18 18" fill="#FFF"/><path d="M30 57c0 6.628-5.373 12-12 12-6.628 0-12-5.372-12-12s5.372-12 12-12c6.627 0 12 5.372 12 12" fill="#E73C4A"/><g transform="translate(103)"><mask id="d" fill="#fff"><use xlink:href="#c"/></mask><path d="M12.982 6.536a6.309 6.309 0 11-12.617.001 6.309 6.309 0 0112.617-.001" fill="#F8B23F" mask="url(#d)"/></g><g transform="translate(110 13)"><mask id="f" fill="#fff"><use xlink:href="#e"/></mask><path d="M18.117 9.735a8.975 8.975 0 11-17.95-.002 8.975 8.975 0 0117.95.002" fill="#297DA2" mask="url(#f)"/></g></g></svg>