<svg width="111" height="84" xmlns="http://www.w3.org/2000/svg" xmlns:xlink="http://www.w3.org/1999/xlink"><defs><path id="a" d="M.397.738h21.037v21.036H.396z"/></defs><g fill="none" fill-rule="evenodd"><path d="M13.05 66.164c3.957-3.553 7.623-6.89 11.344-10.162 1.388-1.222 2.947-1.442 4.544-.284.22.16.503.23.74.37 6.971 4.057 13.938 4.09 20.99.143 1.55-.867 3.637-2.714 4.926-.001 1.255 2.639-1.472 3.12-3.04 3.98-7.913 4.333-15.93 4.815-23.968.365-1.335-.74-2.363-.715-3.433.334-2.944 2.884-5.9 5.753-9.062 8.836 6.105 5.51 12.576 8.874 19.98 9.362 5.232.345 10.567-.593 15.826-1.21 1.656-.195 3.289-.8 3.869 1.247.541 1.906-1.055 2.47-2.531 2.949C30.351 89.517 5.237 74.478.757 50.657-3.5 28.03 10.606 6.514 32.736 1.867c22.105-4.64 43.707 9.813 48.43 32.462.472 2.258.585 4.598.798 6.906.158 1.714-.133 3.394-2.267 3.353-1.942-.036-2.089-1.644-2.158-3.244-.703-16.372-11.114-29.858-26.445-34.313-15.102-4.387-31.398 1.603-40.297 14.814-8.85 13.137-8.321 30.808 1.3 43.235.385.495.83.944.953 1.084" fill="#51215B"/><path d="M79.201 58.904c.542-3.277-.3-5.851-3.125-7.564-2.412-1.463-4.901-1.378-7.235.162-2.645 1.746-3.375 4.28-2.833 7.521 3.625 0 7.176.008 10.726-.005.805-.003 1.61-.073 2.467-.114zm-15.619 18.5h17.9V63.467h-17.9v13.935zm8.86 4.573c-3.393.001-6.789-.052-10.18.021-2.155.045-3.273-.767-3.262-2.986.03-5.69-.001-11.382.028-17.073.003-.612.058-1.595.414-1.773 2.501-1.249 1.778-3.62 2.208-5.597 1.132-5.203 6.323-8.94 11.821-8.54 5.486.4 9.804 4.844 10.245 10.308.085 1.05.946 2.028 1.39 3.062.343.794.836 1.622.847 2.44.071 5.78.019 11.563.047 17.345.01 1.922-.865 2.817-2.826 2.8-3.577-.034-7.153-.01-10.731-.007zm-31.25-59.425c-6.078.03-10.066 2.919-11.304 8.487-1.52 6.845.15 12.981 4.89 18.155 4.104 4.475 9.06 4.505 13.199.066 4.414-4.735 6.037-10.412 4.99-16.798-1.095-6.691-4.975-9.943-11.775-9.91M25 35.73c-.015-9.208 4.122-15.376 11.47-17.102 13.475-3.165 23.188 5.954 21.294 20.049-.754 5.619-2.99 10.57-7.246 14.474-5.586 5.125-12.335 5.124-17.939.044-4.787-4.34-7.568-10.748-7.579-17.465" fill="#51215B"/><path d="M72.06 67c2.268.023 3.56 2.03 2.642 3.95-.551 1.153-.82 2.413-1.352 3.573-.252.553-.826.989-1.255 1.477-.54-.49-1.29-.9-1.577-1.49-.56-1.148-.795-2.423-1.286-3.603-.81-1.943.591-3.93 2.827-3.907" fill="#51215B"/><path d="M109 22.5C109 34.924 98.926 45 86.5 45S64 34.925 64 22.5C64 10.073 74.074 0 86.5 0S109 10.074 109 22.5" fill="#FFF"/><path d="M104 27c0 9.39-7.612 17-17 17-9.39 0-17-7.61-17-17 0-9.388 7.61-17 17-17 9.388 0 17 7.612 17 17" fill="#F8B23F"/><g transform="translate(89 46)"><mask id="b" fill="#fff"><use xlink:href="#a"/></mask><path d="M21.434 11.257c0 5.81-4.71 10.517-10.518 10.517-5.81 0-10.52-4.708-10.52-10.517C.397 5.446 5.107.738 10.917.738c5.809 0 10.518 4.708 10.518 10.519" fill="#E73C4A" mask="url(#b)"/></g></g></svg>