<svg width="125" height="92" xmlns="http://www.w3.org/2000/svg" xmlns:xlink="http://www.w3.org/1999/xlink"><defs><path id="a" d="M0 .158h43.842v43.841H0z"/><path id="c" d="M.07.33h38.783v38.59H.07z"/><path id="e" d="M.186.145h23.666v23.489H.186z"/></defs><g fill="none" fill-rule="evenodd"><path d="M55.701 25.435c-5.892.029-9.76 2.845-10.961 8.27-1.474 6.67.146 12.65 4.742 17.69 3.98 4.36 8.785 4.39 12.799.063 4.28-4.612 5.852-10.144 4.839-16.366-1.064-6.521-4.825-9.688-11.419-9.657M40 38.277c-.013-8.973 3.997-14.984 11.122-16.664 13.067-3.086 22.486 5.801 20.649 19.534-.733 5.474-2.899 10.3-7.025 14.102-5.418 4.995-11.962 4.993-17.397.043-4.642-4.228-7.34-10.471-7.349-17.015" fill="#51215B"/><path d="M55.5 7.03c-20.138 0-36.52 16.585-36.52 36.969 0 20.386 16.382 36.971 36.52 36.971S92.02 64.385 92.02 44c0-20.384-16.382-36.97-36.52-36.97m0 77.97C33.167 85 15 66.608 15 43.999 15 21.392 33.168 3 55.5 3S96 21.392 96 43.999C96 66.609 77.832 85 55.5 85" fill="#51215B"/><g transform="translate(0 48)"><mask id="b" fill="#fff"><use xlink:href="#a"/></mask><path d="M43.842 22.08c0 12.106-9.813 21.92-21.92 21.92C9.814 44 0 34.185 0 22.08 0 9.97 9.814.157 21.922.157c12.107 0 21.92 9.813 21.92 21.921" fill="#FFF" mask="url(#b)"/></g><path d="M37 69c0 8.285-6.716 15-15 15-8.284 0-15-6.715-15-15s6.716-15 15-15c8.284 0 15 6.715 15 15" fill="#51215B"/><path d="M21.855 80a1.84 1.84 0 01-1.277-.495c-.366-.331-.546-.793-.546-1.388 0-.527.175-.97.528-1.329a1.74 1.74 0 011.295-.541c.504 0 .927.181 1.272.541.344.36.517.802.517 1.33 0 .586-.181 1.045-.54 1.381a1.78 1.78 0 01-1.249.501M16 66.247c0-.797.243-1.602.732-2.417.487-.816 1.2-1.49 2.135-2.028.936-.535 2.028-.802 3.277-.802 1.16 0 2.184.224 3.07.672.89.448 1.575 1.056 2.06 1.826a4.63 4.63 0 01.726 2.51c0 .71-.137 1.334-.413 1.87a5.856 5.856 0 01-.985 1.386 73.277 73.277 0 01-2.046 1.965c-.272.26-.49.486-.654.682a2.69 2.69 0 00-.366.541 2.68 2.68 0 00-.186.49c-.045.164-.11.448-.2.86-.151.869-.626 1.305-1.426 1.305a1.42 1.42 0 01-1.05-.427c-.284-.286-.426-.709-.426-1.267 0-.704.103-1.314.312-1.827a4.65 4.65 0 01.828-1.355c.342-.39.807-.852 1.39-1.387a23.31 23.31 0 001.11-1.06c.23-.239.421-.505.577-.798a2 2 0 00.235-.955c0-.668-.239-1.233-.715-1.694-.477-.457-1.09-.688-1.841-.688-.88 0-1.528.232-1.944.696-.417.464-.769 1.147-1.057 2.051-.27.946-.786 1.42-1.548 1.42a1.49 1.49 0 01-1.133-.498c-.308-.33-.462-.686-.462-1.07" fill="#FFF"/><path d="M84.026 71c-.373 0-.749-.102-1.083-.314-.279-.177-6.805-4.336-11.492-7.788-14.252 7.715-23.598 2.633-27.6.454-.299-.161-.565-.307-.799-.428-.964-.49-1.332-1.647-.823-2.578.508-.935 1.702-1.29 2.665-.797.261.132.559.294.89.474 3.74 2.036 11.517 6.262 23.978-.588 1.224-.674 2.76-.557 3.912.298 4.58 3.393 11.368 7.72 11.437 7.763a1.87 1.87 0 01.564 2.643 1.987 1.987 0 01-1.65.861" fill="#51215B"/><g transform="translate(71)"><mask id="d" fill="#fff"><use xlink:href="#c"/></mask><path d="M38.853 19.626c0 10.657-8.682 19.295-19.391 19.295C8.752 38.92.07 30.283.07 19.626.07 8.968 8.753.33 19.46.33c10.71 0 19.392 8.638 19.392 19.296" fill="#FFF" mask="url(#d)"/></g><path d="M95 21a9.001 9.001 0 11-18.002-.002A9.001 9.001 0 0195 21" fill="#E73C4A"/><g transform="translate(101 17)"><mask id="f" fill="#fff"><use xlink:href="#e"/></mask><path d="M23.853 11.89c0 6.485-5.299 11.744-11.834 11.744-6.536 0-11.833-5.259-11.833-11.745C.186 5.404 5.483.145 12.02.145c6.535 0 11.834 5.259 11.834 11.744" fill="#297DA2" mask="url(#f)"/></g></g></svg>