<svg width="402" height="295" xmlns="http://www.w3.org/2000/svg" xmlns:xlink="http://www.w3.org/1999/xlink"><defs><path id="a" d="M.01.485h124.704V142H.009z"/><path id="c" d="M.571.196h34.755V192.91H.57z"/></defs><g fill="none" fill-rule="evenodd"><path d="M65.027 263.487L34.945 143.84v129.64c0 7.174-1.6 12.554-4.8 16.141-3.2 3.587-7.446 5.38-12.736 5.38-5.121 0-9.303-1.773-12.545-5.316C1.62 286.14 0 280.739 0 273.479V124.88c0-8.198 2.132-13.727 6.4-16.59 4.266-2.86 10.026-4.29 17.281-4.29h11.776c7.083 0 12.225.64 15.426 1.921 3.2 1.282 5.567 3.587 7.103 6.918 1.537 3.33 3.285 8.754 5.249 16.268L90.5 231.974l27.265-102.867c1.962-7.514 3.713-12.938 5.249-16.268 1.536-3.331 3.904-5.636 7.104-6.918 3.2-1.28 8.34-1.921 15.425-1.921h11.776c7.253 0 13.013 1.43 17.28 4.29 4.267 2.863 6.401 8.392 6.401 16.59v148.6c0 7.174-1.6 12.554-4.8 16.141-3.2 3.587-7.489 5.38-12.864 5.38-5.037 0-9.175-1.793-12.417-5.38-3.244-3.587-4.864-8.967-4.864-16.141V143.84l-30.082 119.648c-1.964 7.772-3.564 13.473-4.8 17.102-1.238 3.63-3.52 6.94-6.848 9.928C100.996 293.505 96.389 295 90.5 295c-4.438 0-8.192-.961-11.264-2.882-3.073-1.921-5.463-4.375-7.169-7.366-1.708-2.989-3.052-6.297-4.032-9.928-.982-3.629-1.984-7.409-3.008-11.337" fill="#FFF"/><g transform="translate(190 153)"><mask id="b" fill="#fff"><use xlink:href="#a"/></mask><path d="M91.903 122.367v-4.462c-4.187 5.27-8.586 9.689-13.2 13.258-4.614 3.57-9.656 6.227-15.124 7.968-5.469 1.742-11.707 2.614-18.711 2.614-8.46 0-16.044-1.743-22.75-5.227-6.709-3.484-11.9-8.287-15.572-14.407C2.188 114.717.01 104.093.01 90.239V21.267c0-6.969 1.58-12.176 4.743-15.619C7.912 2.207 12.099.485 17.312.485c5.296 0 9.568 1.743 12.816 5.227 3.246 3.487 4.87 8.67 4.87 15.555V76.98c0 8.075.683 14.853 2.051 20.335 1.366 5.482 3.823 9.774 7.37 12.875 3.544 3.105 8.35 4.654 14.419 4.654 5.894 0 11.448-1.74 16.66-5.226 5.21-3.484 9.015-8.032 11.408-13.642 1.964-4.929 2.948-15.723 2.948-32.383V21.267c0-6.886 1.622-12.068 4.87-15.555 3.245-3.484 7.475-5.227 12.688-5.227 5.211 0 9.398 1.722 12.56 5.163 3.16 3.443 4.742 8.65 4.742 15.619V122.11c0 6.63-1.518 11.602-4.55 14.917-3.034 3.315-6.943 4.972-11.727 4.972-4.786 0-8.736-1.721-11.855-5.163-3.12-3.443-4.679-8.265-4.679-14.47" fill="#FFF" mask="url(#b)"/></g><path d="M359 172.45v101.248c0 7.017-1.667 12.32-5 15.913-3.333 3.594-7.564 5.389-12.693 5.389-5.128 0-9.295-1.84-12.5-5.518-3.205-3.677-4.807-8.939-4.807-15.784v-100.22c0-6.931 1.602-12.148 4.807-15.657 3.205-3.506 7.372-5.261 12.5-5.261 5.129 0 9.36 1.755 12.694 5.26 3.332 3.51 4.999 8.386 4.999 14.63m-17.308-36.187c-4.873 0-9.038-1.496-12.5-4.492-3.461-2.994-5.192-7.227-5.192-12.704 0-4.96 1.772-9.047 5.32-12.255 3.545-3.208 7.67-4.812 12.372-4.812 4.53 0 8.545 1.456 12.052 4.363 3.504 2.91 5.256 7.144 5.256 12.704 0 5.39-1.711 9.605-5.128 12.64-3.42 3.038-7.48 4.556-12.18 4.556" fill="#FFF"/><g transform="translate(366 102)"><mask id="d" fill="#fff"><use xlink:href="#c"/></mask><path d="M35.326 70.542V171.64c0 7.005-1.655 12.301-4.964 15.888-3.311 3.59-7.513 5.382-12.605 5.382-5.092 0-9.23-1.837-12.412-5.51-3.183-3.672-4.774-8.926-4.774-15.76V71.567c0-6.92 1.591-12.128 4.774-15.633 3.183-3.5 7.32-5.253 12.412-5.253 5.092 0 9.294 1.753 12.605 5.253 3.309 3.505 4.964 8.373 4.964 14.608M18.139 34.408c-4.838 0-8.975-1.493-12.412-4.484C2.29 26.934.571 22.706.571 17.238c0-4.953 1.76-9.033 5.283-12.236C9.375 1.798 13.47.196 18.139.196c4.498 0 8.486 1.454 11.968 4.357 3.478 2.905 5.219 7.133 5.219 12.685 0 5.382-1.7 9.591-5.092 12.621-3.396 3.034-7.429 4.55-12.095 4.55" fill="#FFF" mask="url(#d)"/></g><path d="M179 56c0 20.435-16.566 37-37 37s-37-16.565-37-37 16.566-37 37-37 37 16.565 37 37" fill="#FFF"/><path d="M191.199 62.725h4.712l.89-5.486h-4.712l-.89 5.486zm-3.544 8.913c-.26-.24-.39-.54-.39-.901 0-.096.297-1.925.89-5.486H185.3c-.347 0-.649-.126-.91-.379-.258-.253-.389-.547-.389-.885 0-.336.13-.63.39-.884.26-.252.562-.378.91-.378h3.264l.891-5.486h-2.858a1.26 1.26 0 01-.908-.378 1.198 1.198 0 010-1.77c.26-.252.562-.378.908-.378h3.266l.928-5.703a1.16 1.16 0 01.426-.722c.235-.191.526-.288.872-.288.396 0 .712.12.946.36.235.242.353.542.353.903 0 .169-.297 1.985-.89 5.45h4.711l.928-5.703a1.16 1.16 0 01.427-.722c.235-.191.526-.288.872-.288.395 0 .71.12.946.36.235.242.353.542.353.903 0 .169-.297 1.985-.89 5.45h2.856c.347 0 .65.126.91.378a1.196 1.196 0 010 1.77c-.26.252-.563.378-.91.378h-3.265l-.89 5.486h2.857c.346 0 .649.126.909.378a1.198 1.198 0 010 1.77c-.26.252-.563.378-.91.378h-3.265l-.928 5.702a1.21 1.21 0 01-.444.74 1.305 1.305 0 01-.854.307c-.347 0-.65-.121-.91-.362a1.18 1.18 0 01-.389-.901c0-.096.297-1.925.891-5.486h-4.712l-.928 5.702a1.21 1.21 0 01-.445.74 1.306 1.306 0 01-.854.307c-.346 0-.65-.121-.909-.362zm20.365-1.443a1.669 1.669 0 01-.729-.62 1.616 1.616 0 01-.291-.922c0-.426.14-.796.419-1.11.279-.312.637-.47 1.073-.47.243 0 .473.051.692.15 2.232 1.03 4.622 1.543 7.17 1.543 4.247 0 6.37-1.441 6.37-4.324 0-.753-.273-1.38-.82-1.88-.545-.502-1.218-.896-2.018-1.185-.801-.288-1.942-.633-3.423-1.034-1.965-.527-3.554-1.035-4.768-1.523a8.312 8.312 0 01-3.13-2.2c-.873-.978-1.31-2.281-1.31-3.911 0-1.43.364-2.726 1.091-3.892.729-1.166 1.802-2.093 3.222-2.782 1.42-.69 3.124-1.035 5.114-1.035 2.67 0 5.083.414 7.244 1.241.678.25 1.019.752 1.019 1.504 0 .402-.134.765-.4 1.09a1.3 1.3 0 01-1.056.49c-.146 0-.34-.05-.582-.151a17.272 17.272 0 00-5.86-1.015c-1.918 0-3.477.376-4.678 1.128-1.201.752-1.802 1.805-1.802 3.159 0 .903.285 1.635.855 2.2.57.564 1.286 1.003 2.148 1.316.86.313 2.032.645 3.512.996 1.917.477 3.464.953 4.641 1.43a7.611 7.611 0 013.021 2.218c.837 1.002 1.256 2.356 1.256 4.06 0 1.405-.388 2.665-1.165 3.78-.777 1.116-1.868 1.987-3.276 2.614-1.407.626-3.033.94-4.877.94-3.081 0-5.97-.601-8.663-1.805m33.394-1.851c.928-.455 1.695-1.171 2.3-2.151.607-.98.91-2.223.91-3.729 0-1.482-.303-2.712-.91-3.692-.605-.98-1.372-1.691-2.3-2.133a6.683 6.683 0 00-2.913-.664 6.76 6.76 0 00-2.95.664c-.928.442-1.689 1.153-2.282 2.133-.595.98-.891 2.21-.891 3.692 0 1.506.296 2.749.89 3.729.594.98 1.355 1.696 2.283 2.15a6.61 6.61 0 002.95.682 6.543 6.543 0 002.913-.681m-7.923 2.473a8.17 8.17 0 01-3.321-3.352C229.389 66.02 229 64.364 229 62.5c0-1.864.39-3.519 1.169-4.965a8.173 8.173 0 013.321-3.352c1.435-.789 3.105-1.183 5.01-1.183 1.88 0 3.537.394 4.973 1.183a8.295 8.295 0 013.34 3.352c.79 1.446 1.187 3.101 1.187 4.965 0 1.864-.396 3.52-1.188 4.965a8.29 8.29 0 01-3.34 3.352C242.038 71.606 240.38 72 238.5 72c-1.905 0-3.575-.394-5.01-1.183m18.986.713a1.564 1.564 0 01-.476-1.16V54.845c0-.457.158-.85.476-1.175.316-.326.707-.49 1.171-.49.463 0 .86.164 1.19.49.329.325.493.718.493 1.175v1.484a9.074 9.074 0 012.471-2.388c.964-.627 2.215-.941 3.752-.941 1.366 0 2.537.362 3.513 1.085.976.724 1.672 1.605 2.087 2.642 1.512-2.484 3.757-3.727 6.735-3.727 1.365 0 2.507.339 3.422 1.013a6.06 6.06 0 012.031 2.607 8.63 8.63 0 01.659 3.329V70.37c0 .46-.165.845-.494 1.159-.33.313-.727.47-1.19.47-.464 0-.854-.157-1.171-.47a1.564 1.564 0 01-.476-1.159V60.6c0-1.568-.28-2.72-.841-3.456-.562-.736-1.526-1.104-2.892-1.104-1.245 0-2.275.32-3.093.959-.818.64-1.544 1.478-2.178 2.515v10.857c0 .46-.165.845-.494 1.159-.33.313-.726.47-1.19.47-.463 0-.853-.157-1.17-.47a1.564 1.564 0 01-.476-1.159V60.6c0-1.568-.28-2.72-.843-3.456-.56-.736-1.525-1.104-2.891-1.104-1.244 0-2.276.32-3.093.959-.817.64-1.543 1.478-2.178 2.515v10.857c0 .46-.164.845-.493 1.159-.33.313-.727.47-1.19.47a1.6 1.6 0 01-1.171-.47m44.937-3.186c.928-.455 1.695-1.171 2.3-2.151.607-.98.91-2.223.91-3.729 0-1.482-.303-2.712-.91-3.692-.605-.98-1.372-1.691-2.3-2.133a6.683 6.683 0 00-2.913-.664 6.76 6.76 0 00-2.95.664c-.928.442-1.689 1.153-2.282 2.133-.595.98-.891 2.21-.891 3.692 0 1.506.296 2.749.89 3.729.594.98 1.355 1.696 2.283 2.15a6.61 6.61 0 002.95.682 6.543 6.543 0 002.913-.681m-7.923 2.473a8.17 8.17 0 01-3.321-3.352C285.389 66.02 285 64.364 285 62.5c0-1.864.39-3.519 1.169-4.965a8.173 8.173 0 013.321-3.352c1.435-.789 3.105-1.183 5.01-1.183 1.88 0 3.537.394 4.973 1.183a8.295 8.295 0 013.34 3.352c.79 1.446 1.187 3.101 1.187 4.965 0 1.864-.396 3.52-1.188 4.965a8.29 8.29 0 01-3.34 3.352C298.038 71.606 296.38 72 294.5 72c-1.905 0-3.575-.394-5.01-1.183m17.16-.43c-.434-.286-.65-.681-.65-1.184 0-.381.14-.716.421-1.003.28-.287.637-.43 1.071-.43.23 0 .46.048.69.143a16.27 16.27 0 002.448.79c.816.191 1.735.286 2.755.286 2.831 0 4.248-.848 4.248-2.545 0-.55-.326-.969-.976-1.255-.65-.287-1.716-.61-3.195-.969-1.506-.334-2.75-.68-3.731-1.039a6.574 6.574 0 01-2.526-1.631c-.702-.73-1.052-1.691-1.052-2.886 0-1.672.644-3.035 1.932-4.087 1.289-1.051 3.131-1.577 5.53-1.577 1.964 0 3.813.3 5.548.896.357.096.632.275.823.538.191.263.287.538.287.824 0 .383-.147.717-.44 1.004a1.5 1.5 0 01-1.091.43c-.128 0-.294-.023-.498-.072a15.59 15.59 0 00-4.361-.645c-1.378 0-2.456.233-3.234.7-.778.466-1.167 1.07-1.167 1.81 0 .717.357 1.243 1.072 1.577.714.335 1.823.658 3.329.968 1.504.358 2.729.712 3.673 1.058.943.347 1.754.89 2.43 1.631.675.74 1.014 1.733 1.014 2.976 0 1.53-.645 2.796-1.933 3.8-1.288 1.003-3.105 1.505-5.452 1.505-2.552 0-4.873-.538-6.965-1.613m20.838 1.117a1.671 1.671 0 01-.488-1.22V47.517c0-.686.237-1.277.713-1.773a2.306 2.306 0 011.728-.744h1.24c.5 0 .959.153 1.371.458.414.305.72.686.92 1.144l8.528 21.585 8.527-21.585c.2-.458.507-.84.92-1.144.414-.305.87-.458 1.372-.458h1.24c.676 0 1.252.248 1.728.744.475.496.713 1.087.713 1.773v22.767c0 .483-.163.89-.488 1.22-.326.33-.727.496-1.202.496-.476 0-.883-.166-1.221-.496a1.64 1.64 0 01-.508-1.22v-21.66l-8.677 21.774c-.2.484-.52.87-.958 1.163-.438.292-.92.439-1.446.439a2.55 2.55 0 01-1.446-.439 2.537 2.537 0 01-.958-1.163l-8.677-21.775v21.661c0 .483-.17.89-.508 1.22-.338.33-.745.496-1.22.496-.477 0-.877-.166-1.203-.496m36.625-.444a6.18 6.18 0 01-2.311-2.57c-.535-1.086-.802-2.28-.802-3.583V54.63c0-.458.168-.844.504-1.158a1.712 1.712 0 011.211-.471c.472 0 .87.158 1.193.471.323.314.485.7.485 1.158v9.916c0 2.944 1.366 4.415 4.1 4.415 1.243 0 2.355-.313 3.337-.941.982-.627 1.907-1.47 2.777-2.533V54.63c0-.458.168-.844.504-1.158a1.712 1.712 0 011.211-.471c.472 0 .87.158 1.194.471.322.314.484.7.484 1.158v15.526c0 .458-.162.85-.484 1.175-.324.326-.722.49-1.194.49s-.875-.164-1.21-.49a1.577 1.577 0 01-.505-1.175V68.67c-.945 1.013-1.963 1.822-3.056 2.424-1.094.603-2.387.905-3.877.905-1.368 0-2.555-.314-3.561-.94m19.665.457a1.624 1.624 0 01-.481-1.192V54.348c0-.472.16-.875.48-1.21a1.58 1.58 0 011.186-.504c.493 0 .9.163 1.222.484.321.324.481.734.481 1.23v15.976c0 .472-.166.87-.499 1.192a1.673 1.673 0 01-1.204.484c-.47 0-.865-.162-1.185-.484m-.222-23.127a1.834 1.834 0 01-.556-1.34v-.15c0-.521.186-.968.556-1.34.37-.372.814-.559 1.333-.559h.222c.518 0 .963.187 1.333.559.37.372.556.819.556 1.34v.15c0 .52-.186.968-.556 1.34-.37.372-.815.559-1.333.559h-.222c-.519 0-.963-.187-1.333-.559m9.222 23.127a1.624 1.624 0 01-.481-1.192V54.348c0-.472.16-.875.48-1.21a1.58 1.58 0 011.186-.504c.493 0 .9.163 1.222.484.321.324.481.734.481 1.23v15.976c0 .472-.166.87-.499 1.192a1.673 1.673 0 01-1.204.484c-.47 0-.865-.162-1.185-.484m-.222-23.127a1.834 1.834 0 01-.556-1.34v-.15c0-.521.186-.968.556-1.34.37-.372.814-.559 1.333-.559h.222c.518 0 .963.187 1.333.559.37.372.556.819.556 1.34v.15c0 .52-.186.968-.556 1.34-.37.372-.815.559-1.333.559h-.222c-.519 0-.963-.187-1.333-.559" fill="#F8B23F"/><path fill="#E73C4A" d="M114.92 73h-3.723l3.1-14.823H110l.671-3.177H123l-.671 3.177h-4.31zm16.21-8.648c0-1.587-.608-2.38-1.826-2.38-.638 0-1.21.246-1.717.737-.507.491-.92 1.211-1.24 2.161a9.179 9.179 0 00-.477 2.936c0 1.49.637 2.235 1.915 2.235.638 0 1.213-.248 1.723-.742.511-.496.909-1.184 1.195-2.067.285-.881.427-1.841.427-2.88m3.87 0c0 1.699-.3 3.205-.9 4.517-.6 1.313-1.467 2.33-2.6 3.05-1.132.72-2.477 1.081-4.034 1.081-1.661 0-2.987-.472-3.979-1.419-.99-.946-1.487-2.205-1.487-3.775 0-1.715.304-3.244.913-4.584.608-1.341 1.488-2.38 2.637-3.116 1.15-.737 2.494-1.106 4.035-1.106 1.67 0 2.989.475 3.959 1.426.97.95 1.456 2.259 1.456 3.926m7.226 5.719c.52 0 1.027-.275 1.52-.826.492-.55.888-1.285 1.188-2.2.3-.917.45-1.901.45-2.954 0-.643-.148-1.158-.445-1.543-.295-.387-.699-.579-1.211-.579-.536 0-1.047.29-1.532.869-.484.578-.87 1.34-1.158 2.29a9.672 9.672 0 00-.432 2.821c0 1.415.54 2.122 1.62 2.122M140.736 73c-1.159 0-2.071-.43-2.737-1.29-.667-.86-.999-2.065-.999-3.616 0-1.576.281-3.08.845-4.515.564-1.435 1.307-2.552 2.229-3.352.922-.8 1.94-1.2 3.05-1.2.647 0 1.204.15 1.674.446.469.298.912.808 1.33 1.531h.095l.024-.337a14.64 14.64 0 01.295-2.352L147.44 54H151l-3.902 18.76h-2.708l.166-1.749h-.048c-.56.7-1.145 1.205-1.756 1.52a4.357 4.357 0 01-2.015.469m18.393-8.648c0-1.587-.609-2.38-1.826-2.38-.638 0-1.21.246-1.717.737-.507.491-.92 1.211-1.239 2.161a9.158 9.158 0 00-.479 2.936c0 1.49.638 2.235 1.915 2.235.639 0 1.214-.248 1.724-.742.51-.496.91-1.184 1.194-2.067.285-.881.428-1.841.428-2.88m3.87 0c0 1.699-.3 3.205-.9 4.517-.602 1.313-1.468 2.33-2.6 3.05-1.131.72-2.477 1.081-4.035 1.081-1.66 0-2.985-.472-3.978-1.419-.99-.946-1.487-2.205-1.487-3.775 0-1.715.304-3.244.913-4.584.608-1.341 1.488-2.38 2.637-3.116 1.15-.737 2.494-1.106 4.035-1.106 1.669 0 2.988.475 3.958 1.426.971.95 1.457 2.259 1.457 3.926m10.797 3.95c0 1.513-.504 2.675-1.513 3.484-1.01.81-2.413 1.214-4.213 1.214-.866 0-1.622-.06-2.266-.182a6.71 6.71 0 01-1.805-.604v-2.996c1.272.725 2.565 1.088 3.877 1.088.649 0 1.18-.13 1.593-.393.413-.261.62-.618.62-1.068 0-.347-.15-.657-.45-.932-.3-.272-.831-.62-1.593-1.037-.98-.548-1.665-1.093-2.054-1.637-.388-.544-.583-1.186-.583-1.926 0-1.37.447-2.43 1.343-3.185.896-.751 2.174-1.128 3.835-1.128 1.629 0 3.1.383 4.412 1.147l-1.203 2.598c-1.135-.677-2.18-1.014-3.136-1.014-.462 0-.835.1-1.118.307a.97.97 0 00-.426.827c0 .314.13.59.389.827.26.238.746.538 1.46.9.995.507 1.716 1.06 2.162 1.655.446.596.669 1.28.669 2.055"/><path d="M131 27c0 14.912-12.088 27-27 27S77 41.912 77 27 89.088 0 104 0s27 12.088 27 27" fill="#F8B23F"/><path d="M151 30.5c0 8.56-6.94 15.5-15.5 15.5-8.56 0-15.5-6.94-15.5-15.5 0-8.56 6.94-15.5 15.5-15.5 8.56 0 15.5 6.94 15.5 15.5" fill="#E73C4A"/></g></svg>