<?xml version="1.0" encoding="UTF-8"?>
<svg width="300px" height="169px" viewBox="0 0 300 169" version="1.1" xmlns="http://www.w3.org/2000/svg" xmlns:xlink="http://www.w3.org/1999/xlink">
    <!-- Generator: Sketch 63.1 (92452) - https://sketch.com -->
    <title>illustration6</title>
    <desc>Created with Sketch.</desc>
    <defs>
        <rect id="path-1" x="0" y="0" width="300" height="169"></rect>
        <polygon id="path-3" points="0 0.287607692 31.8955154 0.287607692 31.8955154 32.1808385 0 32.1808385"></polygon>
    </defs>
    <g id="Validación" stroke="none" stroke-width="1" fill="none" fill-rule="evenodd">
        <g id="illustration6">
            <mask id="mask-2" fill="white">
                <use xlink:href="#path-1"></use>
            </mask>
            <g id="Mask"></g>
            <g mask="url(#mask-2)">
                <path d="M138.5,111 C132.708711,111 128,106.171885 128,100.242173 C128,99.5546326 128.541289,99 129.210382,99 L147.789618,99 C148.458711,99 149,99.5546326 149,100.242173 C149,106.171885 144.291289,111 138.5,111" id="Fill-1" fill="#51215B" fill-rule="nonzero"></path>
                <path d="M83.8709597,50 C81.7803809,51.4283883 79.2403533,52.2669573 76.5,52.2669573 C73.7596467,52.2669573 71.2221874,51.4283883 69.1290403,50 C61.4704335,52.9157584 56.0128414,60.2295166 56,68.7742018 C56,69.0998846 56.1309822,69.4101808 56.3646956,69.6409796 C56.5958406,69.8717784 56.9143072,70 57.2430469,70 L95.7543849,70 C96.0856928,70 96.4015911,69.8717784 96.6353044,69.6409796 C96.8690178,69.4101808 97,69.0998846 97,68.7742018 C96.9845903,60.2295166 91.5295665,52.9157584 83.8709597,50" id="Fill-3" fill="#FFFFFF" fill-rule="nonzero"></path>
                <path d="M90,39.5 C90,46.4021958 84.180375,52 76.9987102,52 C69.8222046,52 64,46.4021958 64,39.5 C64,32.5978042 69.8222046,27 76.9987102,27 C84.180375,27 90,32.5978042 90,39.5" id="Fill-5" fill="#FFFFFF" fill-rule="nonzero"></path>
                <path d="M137.486076,92 L141.288608,92 C142.78481,92 144,90.7365922 144,89.1751363 C144,87.6136803 142.78481,86.347635 141.288608,86.347635 L138.425316,86.347635 L138.425316,79.8248637 C138.425316,78.2634078 137.210127,77 135.711392,77 C134.21519,77 133,78.2634078 133,79.8248637 L133,87.3499209 C133,89.9136627 135.012658,92 137.486076,92" id="Fill-7" fill="#51215B" fill-rule="nonzero"></path>
                <path d="M121.5,86 C122.881886,86 124,84.7617406 124,83.2313658 L124,76.7712193 C124,75.2408445 122.881886,74 121.5,74 C120.118114,74 119,75.2408445 119,76.7712193 L119,83.2313658 C119,84.7617406 120.118114,86 121.5,86" id="Fill-9" fill="#51215B" fill-rule="nonzero"></path>
                <path d="M155.5,86 C156.881886,86 158,84.7617406 158,83.2313658 L158,76.7712193 C158,75.2408445 156.881886,74 155.5,74 C154.118114,74 153,75.2408445 153,76.7712193 L153,83.2313658 C153,84.7617406 154.118114,86 155.5,86" id="Fill-11" fill="#51215B" fill-rule="nonzero"></path>
                <path d="M218.549609,162.628892 C218.549609,163.120742 218.135043,163.538687 217.641634,163.538687 L44.3583657,163.538687 C43.8649565,163.538687 43.4478477,163.120742 43.4478477,162.628892 L43.4478477,155.990198 C43.4478477,155.4958 43.8649565,155.080404 44.3583657,155.080404 L217.641634,155.080404 C218.135043,155.080404 218.549609,155.4958 218.549609,155.990198 L218.549609,162.628892 Z M56.3705902,149.621639 L61.5081496,149.621639 L61.5081496,122.399171 L56.3705902,122.399171 L56.3705902,149.621639 Z M49.5696822,116.937857 C48.3971996,116.937857 47.4459881,115.977094 47.4459881,114.797165 L47.4459881,109.180397 L105.650468,109.180397 L105.650468,114.797165 C105.650468,115.977094 104.696713,116.937857 103.526774,116.937857 L49.5696822,116.937857 Z M47.4459881,15.7213451 L87.0433463,15.7213451 C88.5464639,15.7213451 89.7672701,14.5006409 89.7672701,12.9919626 C89.7672701,11.4832843 88.5464639,10.2625801 87.0433463,10.2625801 L47.4459881,10.2625801 L47.4459881,7.59945714 C47.4459881,6.41952801 48.3971996,5.45876499 49.5696822,5.45876499 L103.526774,5.45876499 C104.696713,5.45876499 105.650468,6.41952801 105.650468,7.59945714 L105.650468,10.2625801 L100.121233,10.2625801 C98.6155718,10.2625801 97.397309,11.4832843 97.397309,12.9919626 C97.397309,14.5006409 98.6155718,15.7213451 100.121233,15.7213451 L105.650468,15.7213451 L105.650468,103.721632 L47.4459881,103.721632 L47.4459881,15.7213451 Z M111.098315,114.797165 L111.098315,113.724271 C114.839578,118.084657 119.79656,121.392536 125.447875,123.12038 L125.447875,126.767202 L102.061806,126.767202 C92.8421758,126.767202 85.3418476,134.203559 85.3418476,143.344824 L85.3418476,149.621639 L66.9585407,149.621639 L66.9585407,122.399171 L103.526774,122.399171 C107.702948,122.399171 111.098315,118.989354 111.098315,114.797165 L111.098315,114.797165 Z M111.098315,66.7054965 C112.438659,63.8741763 114.496226,61.5296087 117.278647,59.6998266 C122.174588,56.4836915 129.390062,54.7813315 138.141716,54.7813315 C146.893371,54.7813315 154.108844,56.4836915 159.004786,59.6998266 C164.333096,63.2039358 167.036673,68.5913443 167.036673,75.7116942 L167.036673,94.0630325 C167.036673,107.811883 155.726413,119.002096 141.824482,119.002096 L134.458951,119.002096 C123.904064,119.002096 114.852294,112.551987 111.098315,103.431109 L111.098315,66.7054965 Z M111.098315,49.8755787 C112.438659,47.0442585 114.496226,44.6996909 117.278647,42.8699088 C122.174588,39.6512252 129.390062,37.9488653 138.141716,37.9488653 C146.893371,37.9488653 154.108844,39.6512252 159.004786,42.8699088 C164.333096,46.3714695 167.036673,51.7588781 167.036673,58.8766795 L167.036673,59.5978889 C161.390445,52.9388072 151.519718,49.3225665 138.141716,49.3225665 C126.124405,49.3225665 116.935295,52.2456307 111.098315,57.6636206 L111.098315,49.8755787 Z M130.895723,131.216784 L130.895723,124.251889 C132.065662,124.389505 133.250861,124.460861 134.458951,124.460861 L141.824482,124.460861 C143.030028,124.460861 144.217771,124.384408 145.38771,124.24934 L145.38771,131.216784 C145.38771,135.243324 142.137313,138.520621 138.141716,138.520621 C134.146119,138.520621 130.895723,135.243324 130.895723,131.216784 L130.895723,131.216784 Z M172.451458,95.3907713 C172.469261,94.9473422 172.484521,94.50901 172.484521,94.0630325 L172.484521,82.5619091 L174.069026,82.5619091 C175.773068,82.5619091 177.156648,83.8921963 177.156648,85.5282968 L177.156648,92.4218352 C177.156648,94.0604841 175.773068,95.3882229 174.069026,95.3882229 L172.451458,95.3882229 L172.451458,95.3907713 Z M174.069026,100.849536 C178.77676,100.849536 182.604496,97.0701953 182.604496,92.4218352 L182.604496,85.5282968 C182.604496,80.8824851 178.77676,77.1005956 174.069026,77.1005956 L172.484521,77.1005956 L172.484521,69.3737164 L195.041459,69.3737164 L195.041459,83.4079922 C195.041459,84.914122 196.259722,86.1348262 197.765383,86.1348262 C199.271044,86.1348262 200.489307,84.914122 200.489307,83.4079922 L200.489307,68.4639222 C200.489307,65.9537058 198.45463,63.9149514 195.949434,63.9149514 L172.484521,63.9149514 L172.484521,58.8792279 C172.484521,58.8206137 172.481978,58.7619995 172.479434,58.7033854 L204.718892,58.7033854 C205.209758,58.7033854 205.624323,59.1187816 205.624323,59.6131795 L205.624323,149.621639 L200.489307,149.621639 L200.489307,96.1476589 C200.489307,94.6389806 199.271044,93.4182764 197.765383,93.4182764 C196.259722,93.4182764 195.041459,94.6389806 195.041459,96.1476589 L195.041459,149.621639 L190.941585,149.621639 L190.941585,143.344824 C190.941585,134.203559 183.441257,126.767202 174.221627,126.767202 L170.23366,126.767202 C168.727999,126.767202 167.509736,127.987906 167.509736,129.496584 C167.509736,131.005263 168.727999,132.225967 170.23366,132.225967 L174.221627,132.225967 C180.435022,132.225967 185.491194,137.21327 185.491194,143.344824 L185.491194,149.621639 L90.7896953,149.621639 L90.7896953,143.344824 C90.7896953,137.21327 95.8458677,132.225967 102.061806,132.225967 L125.491112,132.225967 C126.004868,138.793305 131.480692,143.981935 138.141716,143.981935 C144.80274,143.981935 150.278565,138.793305 150.792321,132.225967 L157.519472,132.225967 C159.025133,132.225967 160.243396,131.005263 160.243396,129.496584 C160.243396,127.987906 159.025133,126.767202 157.519472,126.767202 L150.835558,126.767202 L150.835558,123.12038 C161.217497,119.947568 169.257015,111.445962 171.703714,100.849536 L174.069026,100.849536 Z M217.641634,149.621639 L211.074714,149.621639 L211.074714,59.6106311 C211.074714,56.0988766 208.223623,53.2420719 204.718892,53.2420719 L171.960592,53.2420719 C169.391812,39.972329 157.389761,32.4901003 138.141716,32.4901003 C126.124405,32.4901003 116.935295,35.410616 111.098315,40.8337028 L111.098315,7.59945714 C111.098315,3.40726834 107.702948,0 103.526774,0 L49.5696822,0 C45.3935076,0 41.995597,3.40726834 41.995597,7.59945714 L41.995597,114.797165 C41.995597,118.989354 45.3935076,122.399171 49.5696822,122.399171 L50.9252858,122.399171 L50.9252858,149.621639 L44.3583657,149.621639 C40.8510912,149.621639 38,152.478444 38,155.990198 L38,162.628892 C38,166.140647 40.8510912,169 44.3583657,169 L217.641634,169 C221.146365,169 224,166.140647 224,162.628892 L224,155.990198 C224,152.478444 221.146365,149.621639 217.641634,149.621639 L217.641634,149.621639 Z" id="Fill-13" fill="#51215B" fill-rule="nonzero"></path>
                <path d="M59.5105589,66.5821131 C60.0745707,60.4032445 64.0023285,55.1547456 69.4849296,52.6063415 C71.7130302,53.8223954 74.2739486,54.5176446 76.997465,54.5176446 C79.723522,54.5176446 82.2844404,53.8223954 84.5125411,52.6063415 C89.9951422,55.1547456 93.9254406,60.4032445 94.4869118,66.5821131 L59.5105589,66.5821131 Z M76.997465,29.4178869 C82.556284,29.4178869 87.0810813,33.8320868 87.0810813,39.2575582 C87.0810813,44.6855578 82.556284,49.0997577 76.997465,49.0997577 C71.4386461,49.0997577 66.9163894,44.6855578 66.9163894,39.2575582 C66.9163894,33.8320868 71.4386461,29.4178869 76.997465,29.4178869 L76.997465,29.4178869 Z M89.0322572,48.8873907 C91.2146271,46.2580849 92.5230329,42.9082482 92.5230329,39.2575582 C92.5230329,30.8463078 85.5592657,24 76.997465,24 C68.438205,24 61.4718972,30.8463078 61.4718972,39.2575582 C61.4718972,42.9082482 62.7853841,46.2580849 64.9652135,48.8873907 C58.4028601,52.8616876 54.0101737,59.9734541 53.9999888,68.0787949 C53.9974707,69.1178763 54.4242904,70.131676 55.1686844,70.8623196 C55.9105377,71.5954914 56.9013692,72 57.9506344,72 L96.0468363,72 C97.0935609,72 98.0818518,71.5954914 98.8287863,70.8648478 C99.5731803,70.1342042 100,69.1204045 100,68.0787949 C99.987297,59.9734541 95.5946106,52.8616876 89.0322572,48.8873907 L89.0322572,48.8873907 Z" id="Fill-15" fill="#51215B" fill-rule="nonzero"></path>
                <path d="M90.2506418,79 L62.7519253,79 C61.2322054,79 60,80.1175922 60,81.4988334 C60,82.8800747 61.2322054,84 62.7519253,84 L90.2506418,84 C91.7703617,84 93,82.8800747 93,81.4988334 C93,80.1175922 91.7703617,79 90.2506418,79" id="Fill-17" fill="#51215B" fill-rule="nonzero"></path>
                <path d="M85.2506418,89 L68.7519253,89 C67.2322054,89 66,90.1175922 66,91.4988334 C66,92.8800747 67.2322054,94 68.7519253,94 L85.2506418,94 C86.7703617,94 88,92.8800747 88,91.4988334 C88,90.1175922 86.7703617,89 85.2506418,89" id="Fill-19" fill="#51215B" fill-rule="nonzero"></path>
                <path d="M260,154.00128 C260,177.74837 240.74837,197 216.99872,197 C193.25163,197 174,177.74837 174,154.00128 C174,130.25163 193.25163,111 216.99872,111 C240.74837,111 260,130.25163 260,154.00128" id="Fill-21" fill="#FFFFFF" fill-rule="nonzero"></path>
                <path d="M240,154.001085 C240,166.702561 229.702561,177 216.998915,177 C204.297439,177 194,166.702561 194,154.001085 C194,141.299609 204.297439,131 216.998915,131 C229.702561,131 240,141.299609 240,154.001085" id="Fill-23" fill="#F8B23F" fill-rule="nonzero"></path>
                <path d="M300,99 C300,118.330142 284.330142,134 265,134 C245.669858,134 230,118.330142 230,99 C230,79.6698585 245.669858,64 265,64 C284.330142,64 300,79.6698585 300,99" id="Fill-25" fill="#E73C4A" fill-rule="nonzero"></path>
                <g id="Group-29" transform="translate(0.000000, 116.000000)">
                    <g id="Fill-27-Clipped">
                        <mask id="mask-4" fill="white">
                            <use xlink:href="#path-3"></use>
                        </mask>
                        <g id="path-1"></g>
                        <path d="M31.8955154,16.2342231 C31.8955154,25.0426846 24.7548231,32.1808385 15.9463615,32.1808385 C7.14043846,32.1808385 -0.000253846154,25.0426846 -0.000253846154,16.2342231 C-0.000253846154,7.42576154 7.14043846,0.287607692 15.9463615,0.287607692 C24.7548231,0.287607692 31.8955154,7.42576154 31.8955154,16.2342231" id="Fill-27" fill="#297DA2" fill-rule="nonzero" mask="url(#mask-4)"></path>
                    </g>
                </g>
            </g>
        </g>
    </g>
</svg>