<?xml version="1.0" encoding="UTF-8"?>
<svg width="303px" height="355px" viewBox="0 0 303 355" version="1.1" xmlns="http://www.w3.org/2000/svg" xmlns:xlink="http://www.w3.org/1999/xlink">
    <!-- Generator: Sketch 63.1 (92452) - https://sketch.com -->
    <title>Group 17</title>
    <desc>Created with Sketch.</desc>
    <defs>
        <polygon id="path-1" points="0.0816632825 0.638136364 100.85342 0.638136364 100.85342 100.766093 0.0816632825 100.766093"></polygon>
        <polygon id="path-3" points="0 0.17505942 156.825171 0.17505942 156.825171 157 0 157"></polygon>
    </defs>
    <g id="Registro" stroke="none" stroke-width="1" fill="none" fill-rule="evenodd">
        <g id="Vista3" transform="translate(-38.000000, -158.000000)">
            <g id="Group-17" transform="translate(38.000000, 158.000000)">
                <path d="M294.13197,209.167972 C300.328463,215.642387 303.275071,223.370509 302.979835,232.346585 C302.680005,241.327263 299.301458,248.916212 292.835003,255.119182 C286.368549,261.324453 278.654525,264.280439 269.68489,263.97909 C260.718701,263.682341 253.243622,260.406602 247.250463,254.144972 L68.0128455,68.9875085 C61.8163532,62.5130933 58.815753,54.7389642 59.0087472,45.6467183 C59.2017414,36.5659743 62.4217576,29.0230333 68.6756887,23.0236462 C75.1421431,16.8206757 82.9113083,13.8186818 91.9866308,14.008463 C101.064251,14.2085959 108.697861,17.5372436 114.894353,24.0116588 L294.13197,209.167972 Z" id="Fill-1" fill-opacity="0.4" fill="#297DA2"></path>
                <path d="M20.239667,231 L272.759977,231 C280.975504,231 285.089586,221.11515 279.280929,215.334697 L153.020774,89.686436 C149.419086,86.1045213 143.580559,86.1045213 139.980019,89.686436 L13.7198637,215.334697 C7.91005839,221.11515 12.0241404,231 20.239667,231" id="Fill-3" fill="#51215B"></path>
                <g id="Group-7" transform="translate(1.000000, 0.000000)">
                    <mask id="mask-2" fill="white">
                        <use xlink:href="#path-1"></use>
                    </mask>
                    <g id="Clip-6"></g>
                    <path d="M100.85342,50.7022295 C100.85342,78.3521273 78.2955445,100.766093 50.4681193,100.766093 C22.6406942,100.766093 0.0816632825,78.3521273 0.0816632825,50.7022295 C0.0816632825,23.0523318 22.6406942,0.637218182 50.4681193,0.637218182 C78.2955445,0.637218182 100.85342,23.0523318 100.85342,50.7022295" id="Fill-5" fill="#F8B23F" mask="url(#mask-2)"></path>
                </g>
                <path d="M160.384243,136.706059 C163.609051,140.0471 165.142269,144.035161 164.989636,148.666826 C164.83356,153.300769 163.074261,157.217066 159.709443,160.416856 C156.343478,163.618924 152.327961,165.144207 147.659449,164.989287 C142.993232,164.835505 139.101658,163.14505 135.98243,159.914504 L42.6913731,64.3730342 C39.4665651,61.0319933 37.9046563,57.0211493 38.0044991,52.3302503 C38.1054895,47.6427687 39.7821602,43.7515324 43.0368063,40.6565415 C46.4016238,37.4544732 50.4458315,35.9064082 55.1694293,36.0043726 C59.8941748,36.1068935 63.8672301,37.8235483 67.0920382,41.1657284 L160.384243,136.706059 Z" id="Fill-8" fill="#FFFFFF"></path>
                <g id="Group-12" transform="translate(0.000000, 198.000000)">
                    <mask id="mask-4" fill="white">
                        <use xlink:href="#path-3"></use>
                    </mask>
                    <g id="Clip-11"></g>
                    <path d="M156.825171,78.5877026 C156.825171,121.893011 121.718989,157.000346 78.4125279,157.000346 C35.1072196,157.000346 -0.000115253388,121.893011 -0.000115253388,78.5877026 C-0.000115253388,35.2812417 35.1072196,0.17505942 78.4125279,0.17505942 C121.718989,0.17505942 156.825171,35.2812417 156.825171,78.5877026" id="Fill-10" fill="#FFFFFF" mask="url(#mask-4)"></path>
                </g>
                <path d="M129,278 C129,306.166053 106.166053,329 78,329 C49.832795,329 27,306.166053 27,278 C27,249.832795 49.832795,227 78,227 C106.166053,227 129,249.832795 129,278" id="Fill-13" fill="#E73C4A"></path>
                <path d="M185,288.499433 C185,299.822183 175.822183,309 164.500567,309 C153.177817,309 144,299.822183 144,288.499433 C144,277.177817 153.177817,268 164.500567,268 C175.822183,268 185,277.177817 185,288.499433" id="Fill-15" fill="#297DA2"></path>
            </g>
        </g>
    </g>
</svg>