<?xml version="1.0" encoding="UTF-8"?>
<svg width="275px" height="273px" viewBox="0 0 275 273" version="1.1" xmlns="http://www.w3.org/2000/svg" xmlns:xlink="http://www.w3.org/1999/xlink">
    <!-- Generator: Sketch 63.1 (92452) - https://sketch.com -->
    <title>Group 12</title>
    <desc>Created with Sketch.</desc>
    <defs>
        <polygon id="path-1" points="0 0.310870337 120.688903 0.310870337 120.688903 120.952964 0 120.952964"></polygon>
    </defs>
    <g id="Registro" stroke="none" stroke-width="1" fill="none" fill-rule="evenodd">
        <g id="Vista3" transform="translate(-907.000000, -188.000000)">
            <g id="Group-12" transform="translate(907.000000, 188.000000)">
                <path d="M275,100.999467 C275,156.780762 229.780762,202 173.999467,202 C118.219238,202 73,156.780762 73,100.999467 C73,45.219238 118.219238,0 173.999467,0 C229.780762,0 275,45.219238 275,100.999467" id="Fill-1" fill-opacity="0.2" fill="#F8B23F"></path>
                <g id="Group-5" transform="translate(0.000000, 152.000000)">
                    <mask id="mask-2" fill="white">
                        <use xlink:href="#path-1"></use>
                    </mask>
                    <g id="Clip-4"></g>
                    <path d="M120.688903,60.6324477 C120.688903,93.9454404 93.6719377,120.952964 60.3438675,120.952964 C27.0168588,120.952964 -0.000106140351,93.9454404 -0.000106140351,60.6324477 C-0.000106140351,27.318394 27.0168588,0.310870337 60.3438675,0.310870337 C93.6719377,0.310870337 120.688903,27.318394 120.688903,60.6324477" id="Fill-3" fill="#297DA2" mask="url(#mask-2)"></path>
                </g>
                <path d="M158.269273,79.4794258 C164.741381,74.3169972 172.101609,72.2420694 180.345703,73.24511 C188.594051,74.2534465 195.306536,77.9764537 200.490604,84.4215456 C205.674672,90.8666376 207.764679,98.1919057 206.752116,106.404764 C205.742744,114.615504 202.111556,121.213118 195.851108,126.206078 L82.8833083,238.426939 C76.4112003,243.589368 69.0041732,245.710899 60.6452091,244.791534 C52.294754,243.873227 45.6120499,240.300623 40.5992241,234.067367 C35.415156,227.622275 33.2889861,220.241929 34.207951,211.922094 C35.1364884,203.602259 38.8293658,196.862716 45.3014738,191.700287 L158.269273,79.4794258 Z" id="Fill-6" fill="#E73C4A"></path>
                <path d="M179,207.000535 C179,233.510467 157.733494,255 131.5,255 C105.267566,255 84,233.510467 84,207.000535 C84,180.489533 105.267566,159 131.5,159 C157.733494,159 179,180.489533 179,207.000535" id="Fill-8" fill="#FFFFFF"></path>
                <path d="M155,206.000533 C155,219.25451 144.25451,230 130.999467,230 C117.744424,230 107,219.25451 107,206.000533 C107,192.74549 117.744424,182 130.999467,182 C144.25451,182 155,192.74549 155,206.000533" id="Fill-10" fill="#E73C4A"></path>
            </g>
        </g>
    </g>
</svg>