<?xml version="1.0" encoding="UTF-8"?>
<svg width="206px" height="169px" viewBox="0 0 206 169" version="1.1" xmlns="http://www.w3.org/2000/svg" xmlns:xlink="http://www.w3.org/1999/xlink">
    <!-- Generator: Sketch 63.1 (92452) - https://sketch.com -->
    <title>Group 14</title>
    <desc>Created with Sketch.</desc>
    <defs>
        <polygon id="path-1" points="0.00631376147 0.23111827 184.476165 0.23111827 184.476165 168.999851 0.00631376147 168.999851"></polygon>
    </defs>
    <g id="Validación" stroke="none" stroke-width="1" fill="none" fill-rule="evenodd">
        <g id="Validacion-exitosa" transform="translate(-615.000000, -288.000000)">
            <g id="Group-14" transform="translate(615.000000, 288.000000)">
                <g id="Group-3" transform="translate(21.000000, 0.000000)">
                    <mask id="mask-2" fill="white">
                        <use xlink:href="#path-1"></use>
                    </mask>
                    <g id="Clip-2"></g>
                    <path d="M171.032461,88.3494444 C170.010314,88.627697 168.899433,88.6686667 167.8278,88.6737879 C160.085763,88.6993939 152.343727,88.6874444 144.60169,88.6874444 L144.60169,88.6174545 C136.559323,88.6174545 128.51525,88.6942727 120.476295,88.5918485 C114.734185,88.5184444 110.853782,83.1633636 112.435635,77.7485354 C113.508974,74.0732121 116.875745,71.6628283 121.039415,71.6611212 C134.243708,71.6611212 147.448002,71.679899 160.652295,71.6935556 C163.351855,71.6952626 166.054828,71.6201515 168.752681,71.7225758 C173.235451,71.8898687 176.713139,75.0803838 177.209708,79.3395253 C177.675561,83.3443131 175.040846,87.2552121 171.032461,88.3494444 M167.78002,112.832253 C167.141818,112.972232 166.472901,113.011495 165.817635,113.011495 C148.94624,113.009788 132.076552,112.996131 115.206864,112.989303 C111.684809,112.987596 108.840204,111.857515 107.408516,108.363141 C105.881268,104.631485 106.655983,100.696687 109.381139,98.0575556 C111.039782,96.4477879 113.041415,95.920303 115.302424,95.9287367 C123.706552,95.9629798 132.110681,95.9424949 140.516516,95.9424949 L140.516516,96.0517475 C149.101525,96.0517475 157.686534,96.015899 166.271543,96.065404 C170.778204,96.089303 173.624516,98.8359798 174.051121,103.376788 C174.47602,107.903939 171.807176,111.94799 167.78002,112.832253 M158.367396,135.478253 C156.869158,136.840495 155.096185,137.429434 153.103084,137.424346 C138.888589,137.391879 124.6758,137.388465 110.463011,137.304818 C105.970002,137.277505 102.499139,133.446838 102.526282,128.789949 C102.558864,123.663616 105.638956,120.374091 110.568809,120.343364 C117.705066,120.297273 124.843029,120.329707 131.979286,120.329707 L131.979286,120.404818 C138.876644,120.404818 145.772295,120.39799 152.669653,120.406525 C156.707048,120.411646 159.179653,121.913869 160.403158,125.065121 C161.957708,129.066495 161.196644,132.909111 158.367396,135.478253 M142.596644,161.750071 C131.924681,161.772263 121.251011,161.76202 110.577341,161.722758 C105.739635,161.707394 102.592993,158.301788 102.604904,153.21301 C102.616883,148.127646 105.760112,144.810808 110.631947,144.771545 C113.268369,144.749354 115.908204,144.766424 118.546332,144.766424 L126.460717,144.766424 L126.460717,144.793737 C131.796699,144.793737 137.134387,144.781788 142.470369,144.797152 C147.517965,144.812515 150.633892,148.149838 150.630482,153.501505 C150.627066,158.387141 147.410461,161.741535 142.596644,161.750071 M178.815451,92.2535152 C185.782772,86.3453434 186.414149,76.1660808 180.180589,69.4897273 C176.824057,65.8929293 172.566534,64.4538687 167.715176,64.4572828 C148.343873,64.4658182 128.972571,64.4436263 109.601268,64.4333838 L107.142314,64.4333838 C110.050057,55.2425152 113.930461,41.5159596 106.104809,19.0184747 C102.802883,9.52545455 97.1085523,4.94709091 92.9158734,2.77740404 C87.7129927,0.0887676768 81.7063872,-0.503585859 76.4335431,1.15739394 C68.2700202,3.72824242 64.0892862,10.9150101 66.2649743,18.6360909 C67.2103321,21.9853636 68.2478367,24.4947576 69.1641853,26.7071212 C71.4166624,32.1492626 72.7903321,35.4712222 70.3808642,46.596202 C70.0515248,47.0349192 69.4508642,47.8013939 68.8655615,48.550798 C65.8434881,52.413899 60.5279835,59.2131616 56.9137817,65.5617576 C56.6066257,66.0141313 56.337011,66.5399091 56.0759284,67.0844646 C55.734644,67.7280303 55.4172495,68.3630606 55.1220385,68.9861414 C54.4565339,70.1435354 53.6169743,71.0551111 52.2091761,71.0585253 C36.4776716,71.0960808 20.746167,71.051697 5.01295596,71.0004848 C2.57277248,70.9936566 0.798093578,71.7020909 0.00631376147,74.1517374 L0.00631376147,93.9742424 C1.55233211,96.4221818 2.80996514,97.1203737 4.70068073,96.570697 C6.60846055,96.0193131 7.31321284,94.7509596 7.31833211,91.840404 C7.3251578,87.9363333 7.32174495,84.0322626 7.33539633,80.1281919 C7.33710275,79.5580303 7.40535963,78.9878687 7.44460734,78.4125859 L51.7723321,78.4125859 C51.6631211,79.1432121 51.5539101,79.7236162 51.4958917,80.3091414 C51.1580202,83.7079192 50.724589,87.1049899 50.5420018,90.5140101 C50.417433,92.8151414 52.0419468,94.3822323 54.1340202,94.3805253 C56.1987908,94.3788182 57.5707541,92.9790202 57.7243321,90.6949596 C57.7772312,89.9165354 57.7891761,89.134697 57.825011,88.3545657 C58.2430844,79.5699798 59.5416716,75.374 61.359011,71.051697 L61.2839284,70.932202 C64.4544606,64.5887273 70.8586624,56.4016162 73.909745,52.4992525 C76.0871394,49.7184343 76.3140936,49.4265253 76.5086257,48.5542121 C79.5272862,35.0000707 77.5666073,30.2595354 75.0820569,24.2557677 C74.193011,22.1048586 73.2732495,19.8839596 72.4319835,16.8982929 C70.9491028,11.6405152 74.520644,8.47731313 78.3566807,7.26870707 C84.4707908,5.34483838 95.2963321,7.44453535 100.053837,21.1232929 C107.440938,42.3626667 103.572479,54.5221313 100.74835,63.4023131 C100.637433,63.7505556 100.528222,64.0936768 100.422424,64.4333838 L100.372938,64.4333838 C100.142571,64.7969899 99.9139101,65.162303 99.6835431,65.5259091 C98.8269193,66.8864444 98.3951945,68.2503939 99.2176899,69.7474949 C100.03336,71.2292323 101.366075,71.6969697 103.002534,71.656 C105.261837,71.5979596 104.722607,71.6406364 107.253231,71.6406364 C103.72435,78.0831212 104.12536,84.1295657 108.184938,89.9438485 C103.553708,92.4703131 100.797837,96.2275758 99.7552128,101.205394 C98.7040569,106.227596 99.9838734,110.790596 102.813121,115.024131 C98.0504972,117.915909 95.8355615,122.204071 95.3918917,127.461848 C94.9431028,132.779374 96.7672679,137.32701 100.477029,141.108172 C94.7144422,147.280939 94.0557633,154.170677 97.2587174,161.570828 C89.4552495,162.383394 82.1739468,161.051879 75.2407541,157.741869 C66.1728275,153.412737 58.0331945,147.721364 50.7826073,140.794071 C49.2092862,139.291848 47.6171945,138.680717 45.5012312,138.69096 C33.4931394,138.749 21.4850477,138.71998 9.47695596,138.71998 L7.25007523,138.71998 C7.25007523,137.828889 7.24666239,137.180202 7.25007523,136.533222 C7.26372661,132.868141 7.29785505,129.204768 7.28591009,125.541394 C7.2790844,123.921384 6.42246055,122.786182 4.92763486,122.258697 C3.43963486,121.736333 2.06255229,122.079455 1.02163486,123.310253 C0.608680734,123.801889 0.340772477,124.41302 0.00631376147,124.969525 L0.00631376147,142.991071 C1.06429541,145.271717 2.78607523,146.027949 5.33205688,146.004051 C18.239433,145.884556 31.150222,145.923818 44.061011,145.985273 C44.9620018,145.990394 46.0575248,146.415455 46.7264422,147.018051 C53.5367725,153.160091 60.8829193,158.525414 69.0464422,162.721394 C75.8806624,166.236253 82.9827908,168.933424 90.8033229,168.955616 C107.976754,169.005121 125.150185,169.008535 142.323617,168.988051 C149.710717,168.979515 155.819708,164.008525 157.469818,156.782495 C158.445892,152.504576 157.614864,148.472475 155.679782,144.599131 C164.657268,142.934737 172.064846,132.531848 166.544571,120.403111 C179.697672,119.527384 186.011433,104.716838 177.42813,93.3801818 C177.888864,93.0080404 178.359837,92.6410202 178.815451,92.2535152" id="Fill-1" fill="#51215B" mask="url(#mask-2)"></path>
                </g>
                <path d="M26.2354696,112.52469 C27.7204271,111.669896 28.3734107,109.902103 27.7850625,108.318905 C27.1817986,106.689143 25.5791714,105.573255 23.938426,106.156976 C22.8164212,106.554438 21.9695314,107.725206 21,108.551729 L21,110.658778 C21.2784295,111.011339 21.5452578,111.373878 21.8386032,111.714798 C22.9937543,113.061846 24.7455401,113.381146 26.2354696,112.52469" id="Fill-4" fill="#000000"></path>
                <path d="M48,104.99915 C48,118.254366 37.2543658,129 23.9991499,129 C10.743934,129 0,118.254366 0,104.99915 C0,91.7456342 10.743934,81 23.9991499,81 C37.2543658,81 48,91.7456342 48,104.99915" id="Fill-6" fill="#FFFFFF"></path>
                <path d="M41,105.499145 C41,115.163694 33.164077,123 23.5,123 C13.8342128,123 6,115.163694 6,105.499145 C6,95.8345957 13.8342128,88 23.5,88 C33.164077,88 41,95.8345957 41,105.499145" id="Fill-8" fill="#F8B23F"></path>
                <path d="M178,37.5 C178,47.7176949 169.717695,56 159.5,56 C149.282305,56 141,47.7176949 141,37.5 C141,27.2823051 149.282305,19 159.5,19 C169.717695,19 178,27.2823051 178,37.5" id="Fill-10" fill="#297DA2"></path>
                <path d="M67,121.5 C67,127.851479 61.8514786,133 55.5,133 C49.1485214,133 44,127.851479 44,121.5 C44,115.148521 49.1485214,110 55.5,110 C61.8514786,110 67,115.148521 67,121.5" id="Fill-12" fill="#E73C4A"></path>
            </g>
        </g>
    </g>
</svg>