<?xml version="1.0" encoding="UTF-8"?>
<svg width="224px" height="98px" viewBox="0 0 224 98" version="1.1" xmlns="http://www.w3.org/2000/svg" xmlns:xlink="http://www.w3.org/1999/xlink">
    <!-- Generator: Sketch 63.1 (92452) - https://sketch.com -->
    <title>Group 33</title>
    <desc>Created with Sketch.</desc>
    <defs>
        <polygon id="path-1" points="0 0.2841 105.0569 0.2841 105.0569 65.1121 0 65.1121"></polygon>
    </defs>
    <g id="Validación" stroke="none" stroke-width="1" fill="none" fill-rule="evenodd">
        <g id="Validacion" transform="translate(-336.000000, -556.000000)">
            <g id="Group-33" transform="translate(336.000000, 556.000000)">
                <path d="M157.8485,48.7716 C157.8485,75.7086 136.0125,97.5436 109.0765,97.5436 C82.1405,97.5436 60.3045,75.7086 60.3045,48.7716 C60.3045,21.8356 82.1405,0.0006 109.0765,0.0006 C136.0125,0.0006 157.8485,21.8356 157.8485,48.7716" id="Fill-1" fill-opacity="0.1" fill="#297DA2"></path>
                <polygon id="Fill-3" fill="#FFFFFF" points="52.0004 20.0548 100.2674 20.0548 103.5704 21.8708 103.5704 79.8338 101.8974 83.4678 53.6984 82.6418"></polygon>
                <polygon id="Fill-4" fill="#FFFFFF" points="122.6122 20.0548 157.8482 20.0548 159.9912 82.6418 123.2212 82.6418 119.5892 80.3298 119.5892 23.1928"></polygon>
                <g id="Group-32" transform="translate(0.000000, 18.544100)">
                    <path d="M131.4691,54.9521 L152.5521,54.9521 C153.3211,54.9521 153.9441,54.3281 153.9441,53.5591 C153.9441,52.7911 153.3211,52.1671 152.5521,52.1671 L132.3641,52.1671 L132.3641,45.6271 L212.7071,45.6271 L212.7071,52.1671 L158.5451,52.1671 C157.7761,52.1671 157.1521,52.7911 157.1521,53.5591 C157.1521,54.3281 157.7761,54.9521 158.5451,54.9521 L213.6011,54.9521 C214.6431,54.9521 215.4911,54.1031 215.4911,53.0611 L215.4911,44.7331 C215.4911,43.6911 214.6431,42.8431 213.6011,42.8431 L131.4691,42.8431 C130.4271,42.8431 129.5791,43.6911 129.5791,44.7331 L129.5791,53.0611 C129.5791,54.1031 130.4271,54.9521 131.4691,54.9521" id="Fill-5" fill="#51215B"></path>
                    <path d="M10.4017,34.8027 L55.6697,34.8027 C56.5187,34.8027 57.2087,34.1797 57.2087,33.4097 C57.2087,32.6417 56.5197,32.0187 55.6697,32.0187 L10.4017,32.0187 C9.5517,32.0187 8.8627,32.6417 8.8627,33.4097 C8.8627,34.1797 9.5517,34.8027 10.4017,34.8027" id="Fill-7" fill="#51215B"></path>
                    <path d="M10.4017,27.3701 L55.6697,27.3701 C56.5187,27.3701 57.2087,26.7461 57.2087,25.9771 C57.2087,25.2091 56.5197,24.5851 55.6697,24.5851 L10.4017,24.5851 C9.5517,24.5851 8.8627,25.2091 8.8627,25.9771 C8.8627,26.7461 9.5517,27.3701 10.4017,27.3701" id="Fill-9" fill="#51215B"></path>
                    <path d="M10.037,42.2353 L30.693,42.2353 C31.543,42.2353 32.232,41.6123 32.232,40.8433 C32.232,40.0743 31.543,39.4513 30.693,39.4513 L10.037,39.4513 C9.187,39.4513 8.498,40.0743 8.498,40.8433 C8.498,41.6123 9.187,42.2353 10.037,42.2353" id="Fill-11" fill="#51215B"></path>
                    <path d="M66.2816,16.6533 C66.2816,16.6263 66.3056,16.6033 66.3356,16.6033 L94.9936,16.6033 C95.0236,16.6033 95.0486,16.6263 95.0486,16.6533 L95.0486,50.1683 C95.0486,50.1953 95.0236,50.2163 94.9936,50.2163 L91.4456,50.2163 L91.4456,49.3493 C91.4456,47.2123 90.6796,45.2343 89.3856,43.6263 C90.4586,42.1443 91.0846,40.3763 91.0846,38.4773 L91.0846,27.9563 C91.0846,26.3913 90.7386,24.9393 90.0546,23.6403 C89.3806,22.3573 88.4186,21.2533 87.1966,20.3573 C83.4116,17.5843 77.9176,17.5843 74.1336,20.3573 C72.9106,21.2533 71.9496,22.3583 71.2746,23.6403 C70.5916,24.9393 70.2446,26.3913 70.2446,27.9563 L70.2446,38.4773 C70.2446,40.3763 70.8716,42.1433 71.9446,43.6253 C70.6506,45.2333 69.8846,47.2123 69.8846,49.3493 L69.8846,50.2163 L66.3356,50.2163 C66.3056,50.2163 66.2816,50.1953 66.2816,50.1683 L66.2816,16.6533 Z M76.2896,38.7773 L76.2896,40.4383 C75.5346,40.7433 74.8246,41.1243 74.1726,41.5703 C73.6316,40.6463 73.3236,39.5943 73.3236,38.4773 L73.3236,36.6223 C74.1386,37.5083 75.1486,38.2433 76.2896,38.7773 L76.2896,38.7773 Z M81.9846,26.2063 C81.7066,25.7863 81.2056,25.5293 80.6646,25.5293 C80.1236,25.5293 79.6226,25.7863 79.3446,26.2063 C77.5766,28.8743 74.9786,29.8913 73.3236,30.2793 L73.3236,27.9563 C73.3236,26.8083 73.5696,25.7593 74.0536,24.8373 C74.5296,23.9323 75.2086,23.1533 76.0706,22.5203 C77.4016,21.5463 79.0326,21.0573 80.6646,21.0573 C82.2956,21.0573 83.9276,21.5463 85.2586,22.5203 C86.1206,23.1533 86.7996,23.9313 87.2746,24.8363 C87.7606,25.7583 88.0066,26.8083 88.0066,27.9563 L88.0066,30.2763 C86.3506,29.8853 83.7476,28.8653 81.9846,26.2063 L81.9846,26.2063 Z M85.0396,38.7763 C86.1816,38.2403 87.1916,37.5053 88.0066,36.6173 L88.0066,38.4773 C88.0066,39.5933 87.6986,40.6463 87.1566,41.5703 C86.5056,41.1243 85.7956,40.7433 85.0396,40.4383 L85.0396,38.7763 Z M81.9616,39.6603 L81.9616,41.3023 C81.9616,41.9493 81.3796,42.4753 80.6646,42.4753 C79.9496,42.4753 79.3676,41.9493 79.3676,41.3023 L79.3676,39.6603 C79.7926,39.7123 80.2246,39.7423 80.6646,39.7423 C81.1046,39.7423 81.5376,39.7123 81.9616,39.6603 L81.9616,39.6603 Z M80.6646,36.9583 C77.7756,36.9583 75.3246,35.2363 74.4946,32.8673 C76.2876,32.3923 78.6736,31.3943 80.6646,29.2983 C82.6566,31.3953 85.0436,32.3923 86.8366,32.8673 C86.0066,35.2363 83.5546,36.9583 80.6646,36.9583 L80.6646,36.9583 Z M88.3666,50.2163 L72.9626,50.2163 L72.9626,49.3493 C72.9626,46.7513 74.5456,44.4813 76.8836,43.2843 C77.6416,44.4643 79.0516,45.2603 80.6646,45.2603 C82.2776,45.2603 83.6856,44.4653 84.4446,43.2863 C86.7826,44.4833 88.3666,46.7513 88.3666,49.3493 L88.3666,50.2163 Z M66.3356,53.0013 L94.9936,53.0013 C96.7206,53.0013 98.1266,51.7303 98.1266,50.1683 L98.1266,16.6533 C98.1266,15.0913 96.7206,13.8193 94.9936,13.8193 L66.3356,13.8193 C64.6086,13.8193 63.2036,15.0913 63.2036,16.6533 L63.2036,50.1683 C63.2036,51.7303 64.6086,53.0013 66.3356,53.0013 L66.3356,53.0013 Z" id="Fill-13" fill="#51215B"></path>
                    <g id="Group-17">
                        <mask id="mask-2" fill="white">
                            <use xlink:href="#path-1"></use>
                        </mask>
                        <g id="Clip-16"></g>
                        <path d="M100.5389,0.2841 L24.6049,0.2841 C23.7549,0.2841 23.0659,0.9071 23.0659,1.6761 C23.0659,2.4441 23.7549,3.0681 24.6049,3.0681 L100.5389,3.0681 C101.3319,3.0681 101.9779,3.6521 101.9779,4.3701 L101.9779,61.0251 C101.9779,61.7431 101.3329,62.3281 100.5389,62.3281 L4.5179,62.3281 C3.7239,62.3281 3.0779,61.7431 3.0779,61.0251 L3.0779,16.5381 L3.0779,13.8011 L3.0779,11.0161 L3.0779,7.9511 L3.0779,4.3701 C3.0779,3.6521 3.7239,3.0681 4.5179,3.0681 L17.4999,3.0681 C18.3499,3.0681 19.0389,2.4441 19.0389,1.6761 C19.0389,0.9071 18.3499,0.2841 17.4999,0.2841 L4.5179,0.2841 C2.0269,0.2841 -0.0001,2.1171 -0.0001,4.3701 L-0.0001,61.0251 C-0.0001,63.2791 2.0269,65.1121 4.5179,65.1121 L100.5389,65.1121 C103.0299,65.1121 105.0569,63.2781 105.0569,61.0251 L105.0569,4.3701 C105.0569,2.1171 103.0299,0.2841 100.5389,0.2841" id="Fill-15" fill="#51215B" mask="url(#mask-2)"></path>
                    </g>
                    <path d="M10.4017,14.5449 L55.6697,14.5449 C56.5187,14.5449 57.2087,13.9219 57.2087,13.1529 C57.2087,12.3839 56.5197,11.7609 55.6697,11.7609 L10.4017,11.7609 C9.5517,11.7609 8.8627,12.3839 8.8627,13.1529 C8.8627,13.9219 9.5517,14.5449 10.4017,14.5449" id="Fill-18" fill="#51215B"></path>
                    <path d="M54.6371,51.3437 C53.1721,51.4807 52.1081,52.1437 50.6521,52.3327 C49.4671,52.4867 48.2841,52.4877 47.0961,52.5317 C47.0181,52.0967 46.7551,51.6747 46.3881,51.4707 C44.0541,50.1707 40.8451,50.7637 38.3161,51.1337 C38.2851,51.1377 38.2651,51.1567 38.2361,51.1627 C37.7231,50.8737 36.9681,50.5457 36.8391,50.5357 C35.9961,50.4747 35.2981,50.9157 34.6701,51.4247 C33.9311,51.1977 33.2291,51.2707 32.5731,51.5917 C32.2291,51.4157 31.8141,51.3627 31.4441,51.4397 C29.9381,51.7557 28.5271,51.8607 27.1041,51.8697 C27.6771,51.0277 27.9701,50.0887 27.7811,48.7287 C27.6341,47.6627 25.9501,47.2477 25.2941,48.0717 C24.0221,49.6677 22.9991,52.3597 21.2981,50.0097 C20.8201,49.3487 20.0211,49.0507 19.2621,49.4757 C17.7481,50.3227 14.4891,52.6957 14.1131,49.7267 C13.9221,48.2147 11.5701,47.5307 11.1901,49.3307 C11.1911,49.4717 11.1661,49.5987 11.1441,49.7277 C11.1421,49.7277 11.1391,49.7267 11.1371,49.7267 C11.1381,49.7387 11.1391,49.7507 11.1401,49.7627 C11.0311,50.3567 10.6861,50.8217 10.0801,51.1417 C8.2961,51.7937 9.0671,54.6717 10.8721,54.0127 C11.2711,53.8657 11.6101,53.6997 11.9181,53.5177 C12.2191,54.0287 12.6541,54.4517 13.3491,54.6987 C15.2471,55.3747 17.8321,53.8197 19.6831,52.6907 C20.8371,53.9657 21.8261,54.4247 22.7791,54.2727 C23.0381,54.5357 23.3861,54.7237 23.8031,54.7457 C26.3401,54.8797 28.2911,54.9477 30.7191,54.5797 C31.1251,55.4337 32.4491,55.6917 33.1011,54.9597 C33.4501,54.7917 33.7981,54.6247 34.1461,54.4567 C34.7291,54.8507 35.4611,54.6317 35.9501,54.2247 C36.7411,53.5677 38.3801,54.6747 39.4451,54.4597 C39.7961,54.3887 40.0771,54.1457 40.2711,53.8437 C41.1751,53.7327 42.3291,53.6357 43.3191,53.6967 C42.9211,54.7747 43.6921,55.9717 45.0341,55.6977 C47.3861,55.2177 49.5351,55.6527 51.8221,55.3197 C52.8101,55.1757 53.6421,54.4127 54.6371,54.3207 C56.5281,54.1427 56.5461,51.1647 54.6371,51.3437" id="Fill-20" fill="#51215B"></path>
                    <path d="M214.7787,33.4101 C214.7787,32.6411 214.0897,32.0181 213.2397,32.0181 L167.9727,32.0181 C167.1227,32.0181 166.4337,32.6411 166.4337,33.4101 C166.4337,34.1801 167.1227,34.8031 167.9727,34.8031 L213.2397,34.8031 C214.0897,34.8031 214.7787,34.1801 214.7787,33.4101" id="Fill-22" fill="#51215B"></path>
                    <path d="M214.7787,22.5859 C214.7787,21.8159 214.0897,21.1929 213.2397,21.1929 L167.9727,21.1929 C167.1227,21.1929 166.4337,21.8159 166.4337,22.5859 C166.4337,23.3549 167.1227,23.9779 167.9727,23.9779 L213.2397,23.9779 C214.0897,23.9779 214.7787,23.3549 214.7787,22.5859" id="Fill-24" fill="#51215B"></path>
                    <path d="M188.6825,13.1533 C189.5325,13.1533 190.2215,12.5303 190.2215,11.7603 C190.2215,10.9923 189.5325,10.3683 188.6825,10.3683 L168.0265,10.3683 C167.1765,10.3683 166.4875,10.9923 166.4875,11.7603 C166.4875,12.5293 167.1765,13.1533 168.0265,13.1533 L188.6825,13.1533 Z" id="Fill-26" fill="#51215B"></path>
                    <path d="M123.1029,0.2832 L199.0359,0.2842 C199.8859,0.2842 200.5759,0.9072 200.5759,1.6762 C200.5759,2.4452 199.8869,3.0682 199.0359,3.0682 L123.1029,3.0682 C122.3089,3.0682 121.6629,3.6522 121.6629,4.3702 L121.6629,61.0252 C121.6629,61.7432 122.3089,62.3282 123.1029,62.3282 L219.1239,62.3282 C219.9169,62.3282 220.5629,61.7442 220.5629,61.0252 L220.5629,16.5382 L220.5629,13.8012 L220.5629,11.0162 L220.5629,7.9512 L220.5629,4.3702 C220.5629,3.6522 219.9179,3.0682 219.1239,3.0682 L206.1419,3.0682 C205.2919,3.0682 204.6019,2.4452 204.6019,1.6762 C204.6019,0.9072 205.2909,0.2842 206.1419,0.2842 L219.1239,0.2842 C221.6149,0.2842 223.6419,2.1172 223.6419,4.3702 L223.6419,61.0252 C223.6419,63.2792 221.6149,65.1122 219.1239,65.1122 L123.1029,65.1122 C120.6119,65.1122 118.5849,63.2782 118.5849,61.0252 L118.5849,4.3702 C118.5849,2.1172 120.6119,0.2832 123.1029,0.2832" id="Fill-28" fill="#51215B"></path>
                    <path d="M135.8612,11.8681 C134.1452,11.8681 132.7492,13.2641 132.7492,14.9801 L132.7492,30.3211 C132.7492,32.0371 134.1452,33.4321 135.8612,33.4321 L147.3942,33.4321 C149.1102,33.4321 150.5062,32.0371 150.5062,30.3211 L150.5062,14.9801 C150.5062,13.2641 149.1102,11.8681 147.3942,11.8681 L135.8612,11.8681 Z M147.3942,36.4321 L135.8612,36.4321 C132.4912,36.4321 129.7492,33.6911 129.7492,30.3211 L129.7492,14.9801 C129.7492,11.6101 132.4912,8.8681 135.8612,8.8681 L147.3942,8.8681 C150.7642,8.8681 153.5062,11.6101 153.5062,14.9801 L153.5062,30.3211 C153.5062,33.6911 150.7642,36.4321 147.3942,36.4321 L147.3942,36.4321 Z" id="Fill-30" fill="#51215B"></path>
                </g>
            </g>
        </g>
    </g>
</svg>