<?xml version="1.0" encoding="UTF-8"?>
<svg width="886px" height="285px" viewBox="0 0 886 285" version="1.1" xmlns="http://www.w3.org/2000/svg" xmlns:xlink="http://www.w3.org/1999/xlink">
    <!-- Generator: Sketch 63.1 (92452) - https://sketch.com -->
    <title>Group 26</title>
    <desc>Created with Sketch.</desc>
    <defs>
        <polygon id="path-1" points="0.483924171 0.796067299 253.688218 0.796067299 253.688218 254 0.483924171 254"></polygon>
        <polygon id="path-3" points="0.483933333 0.0157070707 118.305954 0.0157070707 118.305954 117.837367 0.483933333 117.837367"></polygon>
        <polygon id="path-5" points="0 0.65777112 122.113773 0.65777112 122.113773 82.7892163 0 82.7892163"></polygon>
    </defs>
    <g id="Validación" stroke="none" stroke-width="1" fill="none" fill-rule="evenodd">
        <g id="Group-26">
            <g id="Group-3" transform="translate(632.000000, 31.000000)">
                <mask id="mask-2" fill="white">
                    <use xlink:href="#path-1"></use>
                </mask>
                <g id="Clip-2"></g>
                <path d="M253.688218,127.397612 C253.688218,197.318636 197.006493,254.000361 127.086673,254.000361 C57.1656493,254.000361 0.483924171,197.318636 0.483924171,127.397612 C0.483924171,57.4777924 57.1656493,0.796067299 127.086673,0.796067299 C197.006493,0.796067299 253.688218,57.4777924 253.688218,127.397612" id="Fill-1" fill="#F8B23F" mask="url(#mask-2)"></path>
            </g>
            <g id="Group-6" transform="translate(161.000000, 0.000000)">
                <mask id="mask-4" fill="white">
                    <use xlink:href="#path-3"></use>
                </mask>
                <g id="Clip-5"></g>
                <path d="M118.305954,58.9263566 C118.305954,91.4614374 91.9312263,117.837367 59.3949434,117.837367 C26.8598626,117.837367 0.483933333,91.4614374 0.483933333,58.9263566 C0.483933333,26.3912758 26.8598626,0.0153464646 59.3949434,0.0153464646 C91.9312263,0.0153464646 118.305954,26.3912758 118.305954,58.9263566" id="Fill-4" fill="#297DA2" opacity="0.492443266" mask="url(#mask-4)"></path>
            </g>
            <g id="Group-9" transform="translate(0.000000, 42.000000)">
                <mask id="mask-6" fill="white">
                    <use xlink:href="#path-5"></use>
                </mask>
                <g id="Clip-8"></g>
                <path d="M111.505529,1.72351304 C113.120206,0.704657971 114.859088,0.417165217 116.720971,0.857426087 C118.582853,1.30009275 120.023882,2.32616522 121.045265,3.93684638 C122.066647,5.54752754 122.356059,7.28090435 121.912294,9.13938261 C121.469735,10.996658 120.468853,12.4172812 118.907235,13.4024551 L10.6491471,81.7114551 C9.03447059,82.7303101 7.28473529,83.0262232 5.39391176,82.6016 C3.5055,82.1781797 2.06808824,81.1869913 1.08047059,79.6292377 C0.0602941176,78.0185565 -0.237558824,76.2719478 0.186911765,74.3858029 C0.615,72.5020638 1.63397059,71.0513681 3.24864706,70.032513 L111.505529,1.72351304 Z" id="Fill-7" fill="#51215B" mask="url(#mask-6)"></path>
            </g>
            <path d="M644.669613,48.7383509 C659.863467,48.7732732 672.884536,54.2584696 683.756882,65.1782856 C694.617197,76.1101438 700.034722,89.1698487 700,104.379076 C699.966146,119.086146 694.488466,131.872495 683.578824,142.742938 C672.655948,153.623015 659.609614,159.034754 644.41576,159 L324.573643,158.261649 C309.877869,158.227931 297.10584,152.877606 286.243118,142.205858 C275.371975,131.535315 269.965278,118.596031 270,103.386804 C270.035057,88.1787803 275.384006,75.1431596 286.045811,64.2618785 C296.706413,53.3902311 309.633641,47.9652453 324.828698,48 L644.669613,48.7383509 Z" id="Fill-10" fill="#51215B"></path>
            <path d="M269.857331,58.444382 C275.054766,55.1514267 280.651079,54.2207303 286.642666,55.647477 C292.636657,57.0766316 297.275421,60.3936671 300.561363,65.6009913 C303.847305,70.8107236 304.779623,76.4153697 303.352311,82.4221537 C301.927401,88.4265296 298.705136,93.021015 293.678306,96.2044059 L184.27507,165.514193 C179.077636,168.807148 173.442876,169.76674 167.35998,168.394174 C161.28309,167.021608 156.653937,163.820157 153.477326,158.782597 C150.191385,153.574069 149.236239,147.924875 150.603479,141.831402 C151.977928,135.73793 155.256661,131.04592 160.454096,127.752965 L269.857331,58.444382 Z" id="Fill-12" fill="#51215B" opacity="0.59421503"></path>
            <path d="M227,39.5002369 L227,138.494328 C227,146.630548 235.885106,151.668575 242.89852,147.509554 L345.85611,86.4499724 C353.46122,81.9393492 352.425148,70.65075 344.124492,67.5934964 L241.166903,29.6589866 C234.297187,27.1291363 227,32.1972658 227,39.5002369" id="Fill-14" fill="#F8B23F"></path>
            <path d="M188,90.9993939 C188,100.38882 180.389091,108 171,108 C161.610909,108 154,100.38882 154,90.9993939 C154,81.6111804 161.610909,74 171,74 C180.389091,74 188,81.6111804 188,90.9993939" id="Fill-16" fill="#297DA2"></path>
            <path d="M138,125.5 C138,129.641773 134.641773,133 130.5,133 C126.357041,133 123,129.641773 123,125.5 C123,121.358227 126.357041,118 130.5,118 C134.641773,118 138,121.358227 138,125.5" id="Fill-18" fill="#F8B23F"></path>
            <path d="M741,111.5 C741,159.82439 701.824659,199 653.5006,199 C605.175341,199 566,159.82439 566,111.5 C566,63.1744089 605.175341,24 653.5006,24 C701.824659,24 741,63.1744089 741,111.5" id="Fill-20" fill="#FFFFFF"></path>
            <path d="M625.660199,75.292271 C636.671605,68.3204155 648.52921,66.3505017 661.224586,69.3704736 C673.924777,72.3988846 683.751747,79.4201688 690.713922,90.4487929 C697.674893,101.478623 699.652565,113.347534 696.627678,126.06879 C693.611217,138.785222 686.781449,148.509412 676.131151,155.253413 L541.620586,239.619735 C530.609179,246.591591 518.672131,248.624195 505.781756,245.716342 C492.905825,242.810899 483.099318,236.029525 476.367049,225.362574 C469.406078,214.33395 467.381462,202.372209 470.278757,189.468912 C473.190496,176.56682 480.138227,166.630449 491.149633,159.657388 L625.660199,75.292271 Z" id="Fill-22" fill="#E73C4A"></path>
            <path d="M257,59 C257,77.2266037 242.225666,92 224.000604,92 C205.775542,92 191,77.2266037 191,59 C191,40.7746046 205.775542,26 224.000604,26 C242.225666,26 257,40.7746046 257,59" id="Fill-24" fill="#FFFFFF"></path>
        </g>
    </g>
</svg>