<?xml version="1.0" encoding="UTF-8"?>
<svg width="155px" height="208px" viewBox="0 0 155 208" version="1.1" xmlns="http://www.w3.org/2000/svg" xmlns:xlink="http://www.w3.org/1999/xlink">
    <!-- Generator: Sketch 63.1 (92452) - https://sketch.com -->
    <title>Group 34</title>
    <desc>Created with Sketch.</desc>
    <defs>
        <polygon id="path-1" points="0 208 155 208 155 0 0 0"></polygon>
    </defs>
    <g id="Validación" stroke="none" stroke-width="1" fill="none" fill-rule="evenodd">
        <g id="Error-Validacion" transform="translate(-643.000000, -267.000000)">
            <g id="Group-34" transform="translate(643.000000, 267.000000)">
                <path d="M74.7154854,117 L77.6525025,117 C78.9494458,117 80,115.915616 80,114.576908 C80,113.239761 78.9494458,112.156937 77.6525025,112.156937 L75.6919718,112.156937 L75.6919718,107.419971 C75.6919718,106.082824 74.6414175,105 73.3459859,105 C72.0490427,105 71,106.082824 71,107.419971 L71,113.183591 C71,115.286829 72.6672825,117 74.7154854,117" id="Fill-1" fill="#51215B"></path>
                <path d="M62.5,103 C61.1195232,103 60,104.096387 60,105.449913 L60,110.551664 C60,111.90519 61.1195232,113 62.5,113 C63.8804768,113 65,111.90519 65,110.551664 L65,105.449913 C65,104.096387 63.8804768,103 62.5,103" id="Fill-3" fill="#51215B"></path>
                <path d="M89.5,113 C90.8804768,113 92,111.90519 92,110.551664 L92,105.449913 C92,104.096387 90.8804768,103 89.5,103 C88.1195232,103 87,104.096387 87,105.449913 L87,110.551664 C87,111.90519 88.1195232,113 89.5,113" id="Fill-5" fill="#51215B"></path>
                <path d="M75.5256539,123 C72.6959484,123 69.8631333,124.026736 67.706649,126.080207 C66.7644503,126.976752 66.7644503,128.431047 67.706649,129.327592 C68.6488476,130.224136 70.1771996,130.224136 71.1193982,129.327592 C72.2917048,128.21061 73.8511524,127.59516 75.5101061,127.592201 L75.5256539,127.592201 C77.1752789,127.592201 78.7207335,128.198774 79.8806018,129.302441 C80.8228004,130.197506 82.3495976,130.197506 83.293351,129.302441 C84.2355497,128.404417 84.2355497,126.951601 83.293351,126.053577 C81.1524145,124.017859 78.3398116,123 75.5256539,123" id="Fill-7" fill="#51215B"></path>
                <path d="M42.8832453,80.5583773 L42.8832453,73.8832453 L49.5583773,73.8832453 C50.9066187,73.8832453 52,72.7914372 52,71.4416227 C52,70.0933813 50.9066187,69 49.5583773,69 L40.4416227,69 C39.0933813,69 38,70.0933813 38,71.4416227 L38,80.5583773 C38,81.9066187 39.0933813,83 40.4416227,83 C41.7914372,83 42.8832453,81.9066187 42.8832453,80.5583773" id="Fill-9" fill="#51215B"></path>
                <path d="M110.558377,83 C111.906619,83 113,81.9080692 113,80.5581029 L113,71.4403237 C113,70.0919308 111.906619,69 110.558377,69 L101.443196,69 C100.093381,69 99,70.0919308 99,71.4403237 C99,72.79029 100.093381,73.8822207 101.443196,73.8822207 L108.116755,73.8822207 L108.116755,80.5581029 C108.116755,81.9080692 109.210136,83 110.558377,83" id="Fill-11" fill="#51215B"></path>
                <path d="M40.4416227,129 C39.0933813,129 38,130.093381 38,131.443196 L38,140.558377 C38,141.906619 39.0933813,143 40.4416227,143 L49.5568041,143 C50.9066187,143 52,141.906619 52,140.558377 C52,139.208563 50.9066187,138.116755 49.5568041,138.116755 L42.8832453,138.116755 L42.8832453,131.443196 C42.8832453,130.093381 41.789864,129 40.4416227,129" id="Fill-13" fill="#51215B"></path>
                <path d="M45.5,51 C46.8804768,51 48,52.1195232 48,53.5016108 C48,54.8820876 46.8804768,56 45.5,56 C44.1195232,56 43,54.8820876 43,53.5016108 C43,52.1195232 44.1195232,51 45.5,51" id="Fill-15" fill="#51215B"></path>
                <path d="M53.5,51 C54.8804768,51 56,52.1195232 56,53.5016108 C56,54.8820876 54.8804768,56 53.5,56 C52.1195232,56 51,54.8820876 51,53.5016108 C51,52.1195232 52.1195232,51 53.5,51" id="Fill-17" fill="#51215B"></path>
                <path d="M64.4136858,51 C63.0808709,51 62,52.1195232 62,53.5016108 C62,54.8820876 63.0808709,56 64.4136858,56 L87.5863142,56 C88.9206843,56 90,54.8820876 90,53.5016108 C90,52.1195232 88.9206843,51 87.5863142,51 L64.4136858,51 Z" id="Fill-19" fill="#51215B"></path>
                <path d="M75.5007695,173.777148 C79.7590028,173.777148 83.2231456,177.241505 83.2231456,181.5 C83.2231456,185.758495 79.7590028,189.221312 75.5007695,189.221312 C71.2425362,189.221312 67.7783934,185.758495 67.7783934,181.5 C67.7783934,177.241505 71.2425362,173.777148 75.5007695,173.777148 M75.5007695,194 C82.3936596,194 88,188.391775 88,181.5 C88,174.606686 82.3936596,169 75.5007695,169 C68.6078793,169 63,174.606686 63,181.5 C63,188.391775 68.6078793,194 75.5007695,194" id="Fill-21" fill="#51215B"></path>
                <mask id="mask-2" fill="white">
                    <use xlink:href="#path-1"></use>
                </mask>
                <g id="Clip-24"></g>
                <path d="M97.7866763,184.212832 L103.211782,184.212832 L103.211782,178.787168 L97.7866763,178.787168 L97.7866763,184.212832 Z M104.649018,189 C106.496453,189 108,187.497841 108,185.650216 L108,177.351326 C108,175.502159 106.496453,174 104.649018,174 L96.3509818,174 C94.5035468,174 93,175.502159 93,177.351326 L93,185.650216 C93,187.497841 94.5035468,189 96.3509818,189 L104.649018,189 Z" id="Fill-23" fill="#51215B" mask="url(#mask-2)"></path>
                <path d="M47.7871684,184.212832 L53.2128316,184.212832 L53.2128316,178.787168 L47.7871684,178.787168 L47.7871684,184.212832 Z M54.6486737,174 L46.3513263,174 C44.5021592,174 43,175.502159 43,177.351326 L43,185.650216 C43,187.497841 44.5021592,189 46.3513263,189 L54.6486737,189 C56.4962986,189 58,187.497841 58,185.650216 L58,177.351326 C58,175.502159 56.4962986,174 54.6486737,174 L54.6486737,174 Z" id="Fill-25" fill="#51215B" mask="url(#mask-2)"></path>
                <path d="M84.4846971,154.513128 C85.1095558,153.542961 85.5844484,152.465344 85.8625105,151.308307 L101.048139,151.308307 C103.289819,151.308307 105.226881,152.621069 106.142299,154.513128 L84.4846971,154.513128 Z M81.3072907,148.844737 C81.3072907,151.970139 78.7734887,154.513128 75.6585682,154.513128 C72.5420855,154.513128 70.0082835,151.970139 70.0082835,148.844737 L70.0082835,142.997263 C70.9033936,143.096927 71.8110008,143.149874 72.7311052,143.149874 L78.5860311,143.149874 C79.5061355,143.149874 80.4137428,143.096927 81.3072907,142.997263 L81.3072907,148.844737 Z M45.1748371,154.513128 C46.0902551,152.621069 48.027317,151.308307 50.2689976,151.308307 L65.4546258,151.308307 C65.7342501,152.465344 66.2060184,153.542961 66.8324392,154.513128 L45.1748371,154.513128 Z M52.9512035,118.853656 L52.9512035,104.341642 C52.9512035,98.7277549 55.00074,94.6555457 59.2185361,91.9007701 C63.0692278,89.3826966 68.7538797,88.0512477 75.6585682,88.0512477 C82.5632567,88.0512477 88.2479086,89.3826966 92.0986002,91.9007701 C96.3148342,94.6571029 98.3643707,98.7277549 98.3643707,104.341642 L98.3643707,118.853656 C98.3643707,129.584667 89.4929395,138.317726 78.5860311,138.317726 L72.7311052,138.317726 C61.8241968,138.317726 52.9512035,129.584667 52.9512035,118.853656 L52.9512035,118.853656 Z M59.2185361,78.5909528 C63.0692278,76.0728793 68.7538797,74.7414304 75.6585682,74.7414304 C82.5632567,74.7414304 88.2479086,76.0728793 92.0986002,78.5909528 C96.2820291,81.3270414 98.3300035,85.3572049 98.3612464,90.9056873 C93.7654108,85.9193722 86.0234116,83.2175431 75.6585682,83.2175431 C65.2937247,83.2175431 57.5501634,85.9193722 52.9543278,90.9056873 C52.9855707,85.3572049 55.033545,81.3270414 59.2185361,78.5909528 L59.2185361,78.5909528 Z M34.4569485,174.439701 C34.4569485,176.661897 32.6432961,178.468308 30.4156749,178.468308 L23.411009,178.468308 C21.1833878,178.468308 19.3697355,176.661897 19.3697355,174.439701 L19.3697355,172.479123 C19.3697355,170.256927 21.1833878,168.450517 23.411009,168.450517 L30.4156749,168.450517 C32.6432961,168.450517 34.4569485,170.256927 34.4569485,172.479123 L34.4569485,174.439701 Z M17.1046227,159.588206 L17.1046227,157.626071 C17.1046227,155.403875 18.9167129,153.597465 21.1443341,153.597465 L28.149,153.597465 C30.3781834,153.597465 32.1902736,155.403875 32.1902736,157.626071 L32.1902736,159.588206 C32.1902736,161.810402 30.3781834,163.616813 28.149,163.616813 L21.1443341,163.616813 C18.9167129,163.616813 17.1046227,161.810402 17.1046227,159.588206 L17.1046227,159.588206 Z M14.520832,144.736711 L14.520832,142.774576 C14.520832,140.55238 16.3344844,138.74597 18.5621056,138.74597 L29.4174632,138.74597 L29.4174632,148.765318 L18.5621056,148.765318 C16.3344844,148.765318 14.520832,146.955793 14.520832,144.736711 L14.520832,144.736711 Z M11.890177,133.912265 C9.66255575,133.912265 7.85046556,132.104298 7.85046556,129.883659 L7.85046556,127.921524 C7.85046556,125.700885 9.66255575,123.894475 11.890177,123.894475 L29.4174632,123.894475 L29.4174632,133.912265 L11.890177,133.912265 Z M48.1023001,118.213626 L47.1025262,118.213626 C45.8918624,118.213626 44.9092722,117.277719 44.9092722,116.126911 L44.9092722,110.674978 C44.9092722,109.522613 45.8918624,108.586706 47.1025262,108.586706 L48.1023001,108.586706 L48.1023001,118.213626 Z M103.213274,108.586706 L104.21461,108.586706 C105.423712,108.586706 106.409426,109.522613 106.409426,110.674978 L106.409426,116.126911 C106.409426,117.277719 105.423712,118.213626 104.21461,118.213626 L103.213274,118.213626 L103.213274,108.586706 Z M153.609689,182.797463 L141.58897,170.831553 C142.170089,167.908594 142.277877,164.920231 141.904524,161.938097 C141.738937,160.612877 140.525149,159.672298 139.198886,159.837366 C137.871061,160.002435 136.927525,161.210861 137.093112,162.534524 C137.425849,165.195864 137.297753,167.860319 136.710386,170.45937 C136.441697,171.661567 136.802553,172.898024 137.674231,173.765412 L150.10267,186.139322 L134.498386,201.67445 L121.899673,189.132357 L121.899673,154.341831 C121.899673,153.898014 121.776264,153.463541 121.545066,153.08513 L113.924914,140.609998 C111.506711,136.635896 110.817804,133.308052 111.873816,130.719903 C112.851719,128.317066 115.191815,126.879724 116.841442,126.129129 C116.841442,126.129129 129.080862,147.539762 129.162093,147.639426 C129.162093,147.639426 132.367618,150.976613 133.604839,152.906046 C134.32655,154.030381 135.826211,154.357403 136.952519,153.637953 C138.081951,152.920061 138.411564,151.425101 137.689852,150.300766 C136.405768,148.301257 134.859242,146.463702 133.108076,144.848833 L121.899673,125.176092 L121.899673,97.7825041 C121.899673,96.4479407 120.813981,95.367209 119.475221,95.367209 C118.136462,95.367209 117.05077,96.4479407 117.05077,97.7825041 L117.05077,121.083638 C116.58525,121.100768 116.129103,121.192646 115.694826,121.363944 C113.359417,122.290507 109.174426,124.501803 107.381082,128.899477 C106.240714,131.693184 106.261022,134.817028 107.43107,138.228963 L101.844834,138.228963 C100.504512,138.228963 99.4203819,139.309695 99.4203819,140.645815 C99.4203819,141.980379 100.504512,143.062668 101.844834,143.062668 L109.746172,143.062668 C109.758669,143.081355 109.769604,143.101599 109.780539,143.121843 L116.739903,154.513128 L111.263016,154.513128 C110.157016,149.911454 105.995457,146.47616 101.048139,146.47616 L86.1561941,146.47616 L86.1561941,141.971035 C94.7308175,139.231832 101.255904,131.968817 102.838359,123.048888 L104.21461,123.048888 C108.098107,123.048888 111.25833,119.943731 111.25833,116.126911 L111.25833,110.674978 C111.25833,106.856601 108.098107,103.753001 104.21461,103.753001 L103.213274,103.753001 L103.213274,91.0318245 C103.213274,77.6067707 93.1702329,69.9077258 75.6585682,69.9077258 C58.1469035,69.9077258 48.1023001,77.6067707 48.1023001,91.0318245 L48.1023001,103.753001 L47.1025262,103.753001 C43.2174673,103.753001 40.0588066,106.856601 40.0588066,110.674978 L40.0588066,116.126911 C40.0588066,119.943731 43.2174673,123.048888 47.1025262,123.048888 L48.4772153,123.048888 C50.0596699,131.968817 56.5847567,139.231832 65.1593801,141.971035 L65.1593801,146.47616 L50.2689976,146.47616 C45.3216789,146.47616 41.1585579,149.911454 40.052558,154.513128 L36.4721177,154.513128 C35.9925387,153.248641 35.2317732,152.119635 34.2663666,151.205529 L34.2663666,52.0865548 C34.2663666,49.741336 36.1721856,47.8321473 38.5154056,47.8321473 L112.800169,47.8321473 C115.143389,47.8321473 117.05077,49.741336 117.05077,52.0865548 L117.05077,86.1841047 C117.05077,87.5186681 118.136462,88.600957 119.475221,88.600957 C120.813981,88.600957 121.899673,87.5186681 121.899673,86.1841047 L121.899673,52.0865548 C121.899673,47.0753237 117.817784,43 112.800169,43 L38.5154056,43 C33.4993525,43 29.4174632,47.0753237 29.4174632,52.0865548 L29.4174632,119.059213 L11.890177,119.059213 C6.98816057,119.059213 3,123.034873 3,127.921524 L3,129.883659 C3,134.363868 6.353929,138.076352 10.6904483,138.661879 C10.0421574,139.892106 9.67192863,141.290517 9.67192863,142.774576 L9.67192863,144.736711 C9.67192863,147.964891 11.4152844,150.794415 14.0100101,152.343879 C12.9086966,153.821709 12.2541572,155.648363 12.2541572,157.626071 L12.2541572,159.588206 C12.2541572,162.727623 13.9022219,165.490185 16.3797866,167.064565 C15.2159873,168.562639 14.520832,170.44224 14.520832,172.479123 L14.520832,174.439701 C14.520832,179.326352 18.5089926,183.302012 23.411009,183.302012 L29.4174632,183.302012 L29.4174632,198.911888 C29.4174632,203.923119 33.4993525,208 38.5154056,208 L53.4604633,208 C54.8007852,208 55.884915,206.917711 55.884915,205.583148 C55.884915,204.247027 54.8007852,203.164738 53.4604633,203.164738 L38.5154056,203.164738 C36.1737477,203.164738 34.2663666,201.257107 34.2663666,198.911888 L34.2663666,182.426838 C37.2453804,180.994167 39.3058519,177.952858 39.3058519,174.439701 L39.3058519,172.479123 C39.3058519,169.339707 37.6562249,166.577145 35.1802224,165.002765 C36.3440217,163.503133 37.039177,161.62509 37.039177,159.588206 L37.039177,159.346833 L117.05077,159.346833 L117.05077,198.911888 C117.05077,201.258664 115.143389,203.164738 112.800169,203.164738 L65.0984564,203.164738 C63.7596966,203.164738 62.6740046,204.247027 62.6740046,205.583148 C62.6740046,206.917711 63.7596966,208 65.0984564,208 L112.800169,208 C117.817784,208 121.899673,203.923119 121.899673,198.911888 L121.899673,195.964013 L131.149144,205.172034 C132.042692,206.061224 133.233048,206.548643 134.498386,206.548643 C135.765287,206.548643 136.954081,206.059666 137.849191,205.168919 L153.609689,189.479624 C154.506362,188.588877 155,187.402252 155,186.139322 C155,184.874835 154.506362,183.68821 153.609689,182.797463 L153.609689,182.797463 Z" id="Fill-26" fill="#51215B" mask="url(#mask-2)"></path>
                <path d="M145,84.5 C145,99.134982 133.134982,111 118.5,111 C103.863454,111 92,99.134982 92,84.5 C92,69.865018 103.863454,58 118.5,58 C133.134982,58 145,69.865018 145,84.5" id="Fill-27" fill="#E73C4A" mask="url(#mask-2)"></path>
                <path d="M118.5,61.2290495 C105.667819,61.2290495 95.229214,71.6673793 95.229214,84.4992214 C95.229214,97.3326207 105.667819,107.77095 118.5,107.77095 C131.332181,107.77095 141.770786,97.3326207 141.770786,84.4992214 C141.770786,71.6673793 131.332181,61.2290495 118.5,61.2290495 M118.5,114 C102.233965,114 89,100.766384 89,84.4992214 C89,68.2336158 102.233965,55 118.5,55 C134.766035,55 148,68.2336158 148,84.4992214 C148,100.766384 134.766035,114 118.5,114" id="Fill-28" fill="#51215B" mask="url(#mask-2)"></path>
                <path d="M130.854902,100 C130.037127,100 129.222496,99.689474 128.606019,99.069967 L105.895446,76.2501707 C104.681364,75.0296955 104.704953,73.0723004 105.947343,71.8811784 C107.188161,70.6869666 109.17913,70.7101402 110.394785,71.9290705 L133.103786,94.7504118 C134.317868,95.970887 134.295851,97.9267371 133.053461,99.119404 C132.441702,99.7080129 131.647516,100 130.854902,100" id="Fill-29" fill="#FFFFFF" mask="url(#mask-2)"></path>
                <path d="M108.089639,100 C107.286283,100 106.486018,99.6839067 105.880411,99.0532927 C104.687737,97.8109359 104.709366,95.8200199 105.929849,94.60597 L128.751326,71.8975752 C129.970263,70.6803801 131.926125,70.7055418 133.120344,71.9463259 C134.313018,73.1886827 134.289844,75.1811714 133.069362,76.3936487 L110.249429,99.103616 C109.648458,99.7027779 108.868276,100 108.089639,100" id="Fill-30" fill="#FFFFFF" mask="url(#mask-2)"></path>
                <path d="M44,40 C44,52.151045 34.1498353,62 22.0007793,62 C9.85016471,62 0,52.151045 0,40 C0,27.848955 9.85016471,18 22.0007793,18 C34.1498353,18 44,27.848955 44,40" id="Fill-31" fill="#FFFFFF" mask="url(#mask-2)"></path>
                <path d="M34,40 C34,46.6272342 28.6275796,52 22.0007715,52 C15.3724204,52 10,46.6272342 10,40 C10,33.3712228 15.3724204,28 22.0007715,28 C28.6275796,28 34,33.3712228 34,40" id="Fill-32" fill="#297DA2" mask="url(#mask-2)"></path>
                <path d="M70,17.5007689 C70,27.1646382 61.9407707,35 52.0007909,35 C42.0592293,35 34,27.1646382 34,17.5007689 C34,7.83536183 42.0592293,0 52.0007909,0 C61.9407707,0 70,7.83536183 70,17.5007689" id="Fill-33" fill="#F8B23F" mask="url(#mask-2)"></path>
            </g>
        </g>
    </g>
</svg>