<?xml version="1.0" encoding="UTF-8"?>
<svg width="95px" height="109px" viewBox="0 0 95 109" version="1.1" xmlns="http://www.w3.org/2000/svg" xmlns:xlink="http://www.w3.org/1999/xlink">
    <!-- Generator: Sketch 63.1 (92452) - https://sketch.com -->
    <title>Group 29</title>
    <desc>Created with Sketch.</desc>
    <defs>
        <polygon id="path-1" points="7.38557392e-05 0.22144909 56.760719 0.22144909 56.760719 70 7.38557392e-05 70"></polygon>
        <polygon id="path-3" points="0.456802878 0.653487805 38.5293068 0.653487805 38.5293068 38.7226827 0.456802878 38.7226827"></polygon>
    </defs>
    <g id="Validación" stroke="none" stroke-width="1" fill="none" fill-rule="evenodd">
        <g id="Validacion" transform="translate(-709.000000, -545.000000)">
            <g id="Group-29" transform="translate(709.000000, 545.000000)">
                <path d="M95,67 C95,89.643158 76.6438984,108 54.000477,108 C31.3570556,108 13,89.643158 13,67 C13,44.356842 31.3570556,26 54.000477,26 C76.6438984,26 95,44.356842 95,67" id="Fill-1" fill-opacity="0.1" fill="#E73C4A"></path>
                <path d="M40.0312777,54 C39.967283,54.7279574 39.8985828,55.2543845 39.8797609,55.7826952 C39.8487046,56.6537955 39.919287,57.5352549 39.8214128,58.3988215 C39.556023,60.7531468 38.4304694,62.466154 35.5704717,62.3004095 C34.2115257,62.2213041 32.8403454,62.1911688 31.4842228,62.2853418 C30.3003211,62.3672723 29.0966563,62.5377255 27.9626329,62.8758066 C26.1538419,63.4135345 25.2852081,64.9127689 25.5374225,66.7924622 C25.6315323,67.4921677 25.7990478,68.1843394 25.953388,68.8746276 C26.4738153,71.2185939 26.9274247,73.5625602 26.7843778,75.992224 C26.6036869,79.0500217 25.2296833,80.9984614 22.3414526,81.9863363 C21.3184787,82.3366599 20.2465678,82.6446057 19.1774801,82.7331283 C18.085806,82.8225927 17.7168955,83.3405443 17.4816209,84.3133515 C17.1484721,85.686394 16.630868,87.0142335 16.2205492,88.3684415 C15.979628,89.1632617 15.4902569,89.5418372 14.6564438,89.4881586 C14.3308237,89.4664988 13.9995571,89.5145271 13.6767604,89.4825082 C12.6650797,89.3836266 12.1070084,89.8752097 11.633636,90.7463101 C9.00891275,95.5839778 6.32678255,100.392452 3.67664969,105.216935 C3.43102303,105.662374 3.26821302,106.154899 3,106.784916 C4.32318423,106.605987 5.44779672,106.468495 6.56864482,106.30275 C12.0138397,105.498513 17.4750332,105.129355 22.9908105,105.353486 C27.141054,105.522998 31.2348317,105.967494 35.2693202,106.940302 C35.8923273,107.090037 36.2979407,106.971379 36.6527347,106.432709 C37.6041851,104.987153 37.4865478,102.319232 36.2480624,101.100633 C35.5243578,100.387743 34.6096103,99.8622578 33.7532108,99.2943946 C32.8384632,98.6860369 32.6982396,98.1944538 33.286426,97.2790921 C33.4322963,97.0511934 33.6158105,96.8440127 33.7983835,96.6434242 C35.5996457,94.6770917 36.8936559,92.466851 37.3557352,89.7876288 C37.6051262,88.3392478 37.8874557,88.2648512 39.3998007,88.6161165 C40.6674601,88.9099363 41.9435895,89.2649686 43.2328942,89.3553747 C46.7686005,89.6030497 47.9317981,87.9230031 47.672996,84.9217092 C47.558182,83.5844524 47.5083038,82.2971073 48.9735939,81.5390145 C48.7721988,81.2612041 48.6649136,81.0756833 48.5218667,80.9250064 C47.3398472,79.6734471 47.4160762,79.3052306 48.9566541,78.6262432 C49.4234389,78.420946 49.8506975,78.1214758 50.2431355,77.8954606 C49.5542516,74.9638547 49.8591674,74.4308354 52.554473,73.5079399 C52.994907,73.357263 53.4127547,73.1387816 54,72.8845145 C53.4127547,71.9531434 52.9657329,71.151731 52.4283658,70.4162398 C51.4006864,69.009295 50.3212467,67.6381359 49.26157,66.2547343 C48.7881975,65.6360176 48.5416298,64.9353704 49.1392272,64.3279545 C50.3824181,63.0641526 49.8977524,61.9152418 49.1505204,60.641081 C48.4955159,59.5232473 48.0117914,58.3037067 47.46219,57.1237189 C47.1873893,56.5323123 46.9530558,55.9230129 46.6726085,55.3353733 C46.3262843,54.6130663 45.8369132,54.3635078 44.9616918,54.5160681 C44.0798826,54.6695701 43.1350199,54.5226602 42.225919,54.4350793 C41.5887954,54.3729251 40.9639061,54.1902295 40.0312777,54" id="Fill-3" fill="#FFFFFF"></path>
                <g id="Group-7" transform="translate(0.000000, 39.000000)">
                    <mask id="mask-2" fill="white">
                        <use xlink:href="#path-1"></use>
                    </mask>
                    <g id="Clip-6"></g>
                    <path d="M49.830445,7.20725676 C48.979245,7.00482432 48.127095,6.82604054 47.288245,6.59995946 C43.682045,5.62847297 40.083445,4.62860811 36.474395,3.66752703 C33.706095,2.92968919 30.907395,2.4377973 28.017495,2.4415594 C25.195045,2.44631081 22.723145,3.20968919 20.630295,5.14982432 C20.166695,5.57928378 19.534945,6.06077027 18.956395,6.09387838 C16.558595,6.23104054 14.764995,7.56577027 13.260195,9.12185135 C8.876895,13.6567162 7.370195,19.1460405 8.562445,25.3098243 C9.726195,31.3307703 13.034095,36.1919865 17.212195,40.5338784 C17.448745,40.7807703 17.853445,40.9737432 18.192595,40.9945541 C18.901295,41.0371216 19.631845,41.0238784 20.329145,40.8980676 C23.919195,40.2500946 25.335645,38.5407703 25.135195,34.8629324 C25.045895,33.2387432 24.587995,31.6353649 24.348595,30.0149595 C24.150045,28.6688784 23.879295,27.3086081 23.904945,25.9596892 C23.943895,23.9419865 24.971795,22.4455 26.837595,21.5515811 C28.151445,20.922527 29.537495,20.6122568 30.978645,20.5782027 C32.628795,20.5394189 34.279895,20.573473 35.930995,20.5715811 C37.610595,20.5696892 37.922195,20.3341486 38.228095,18.6692838 C38.345895,18.0279324 38.344945,17.3629324 38.372495,16.7083378 C38.405745,15.9421216 38.348745,15.1673919 38.440895,14.4096892 C38.658445,12.6294189 39.805095,11.8613108 41.564495,12.2567162 C42.048045,12.3655 42.523045,12.5915811 43.004695,12.5991486 C44.034495,12.6142838 45.155495,12.7590135 46.075095,12.417527 C47.465895,11.9000946 48.566945,10.8463108 49.437145,9.59955405 C49.904545,8.93171622 50.144895,8.24685135 49.830445,7.20725676 M40.620195,14.3245541 C40.555595,15.0567162 40.486245,15.5845541 40.467245,16.1152297 C40.434945,16.9911757 40.507145,17.8756351 40.408345,18.7430676 C40.139495,21.1079324 39.004245,22.8295541 36.117195,22.6630676 C34.745395,22.5836081 33.361245,22.5533378 31.992295,22.6469865 C30.797195,22.7292838 29.582145,22.9014459 28.436445,23.2400946 C26.611495,23.7811757 25.734645,25.2861757 25.989245,27.1742838 C26.083295,27.8780676 26.253345,28.5723919 26.408195,29.2657703 C26.934495,31.6211757 27.392395,33.9756351 27.247995,36.4152297 C27.065595,39.4867162 25.678595,41.4438784 22.763045,42.4361757 C21.729445,42.7880676 20.648345,43.0973919 19.569145,43.1863108 C18.467145,43.2771216 18.093795,43.7973919 17.856295,44.7745541 C17.520945,46.1537432 16.997495,47.4865811 16.583295,48.8477973 C16.341045,49.6452297 15.847045,50.0264459 15.005345,49.9715811 C14.676645,49.9507703 14.342245,49.9980676 14.015445,49.9659054 C12.995145,49.867527 12.430845,50.3603649 11.953945,51.2353649 C9.304395,56.0956351 6.596895,60.9246892 3.920745,65.7707703 C3.673745,66.2191486 3.509395,66.7129324 3.238645,67.3457703 C4.574345,67.1669865 5.709595,67.0279324 6.841045,66.8614459 C12.337745,66.0536081 17.850595,65.6827973 23.417595,65.9088784 C27.607095,66.0782027 31.740545,66.5246892 35.813195,67.5018514 C36.442095,67.6522568 36.851545,67.5330676 37.209695,66.9919865 C38.170145,65.5399595 38.051395,62.8600946 36.801195,61.6360405 C36.070645,60.9199595 35.146295,60.3930676 34.281795,59.8217162 C33.359345,59.2115811 33.217795,58.7168514 33.811545,57.7973919 C33.958795,57.568473 34.143095,57.3613108 34.328345,57.1598243 C36.145695,55.1846892 37.451945,52.9636081 37.918395,50.2723919 C38.171095,48.817527 38.455145,48.7427973 39.982745,49.0956351 C41.262395,49.3917162 42.550595,49.7483378 43.852095,49.8382027 C47.421245,50.0869865 48.595445,48.4003649 48.334195,45.3846892 C48.218295,44.0414459 48.167945,42.7483378 49.647095,41.9877973 C49.442845,41.7087432 49.335495,41.5214459 49.191095,41.3700946 C47.996945,40.1129324 48.073895,39.7440135 49.629995,39.0619865 C50.101195,38.8548243 50.531545,38.5549595 50.928645,38.3269865 C50.233245,35.3822568 50.541045,34.8477973 53.261845,33.9198243 C53.706445,33.768473 54.128245,33.5499595 54.720095,33.2936081 C54.127295,32.3590135 53.676995,31.5530676 53.134545,30.8142838 C52.096195,29.4010405 51.007495,28.0246892 49.937795,26.6341486 C49.459945,26.0136081 49.211045,25.3098243 49.814295,24.6987432 C51.069245,23.4292838 50.579995,22.2761757 49.825695,20.9953649 C49.163545,19.873473 48.676195,18.648473 48.121395,17.4632027 C47.843995,16.8691486 47.607445,16.2561757 47.323395,15.6659054 C46.974745,14.9413108 46.480745,14.6896892 45.596295,14.8429324 C44.706145,14.9971216 43.753295,14.8495541 42.834645,14.7615811 C42.192445,14.7000946 41.561645,14.5165811 40.620195,14.3245541 M14.589245,47.8933378 C14.822945,47.3219865 14.983495,46.9767162 15.108895,46.6182027 C16.381895,42.9857703 16.354345,42.9545541 13.848245,40.0836081 C10.290495,36.007527 7.636195,31.4348243 6.517095,26.1063108 C5.024645,19.0050946 6.762195,12.7467162 11.817145,7.49387838 C13.511945,5.73252703 15.526895,4.41293243 18.056745,4.06198649 C18.454795,4.00712162 18.856645,3.71860811 19.182495,3.44806757 C22.622445,0.593202703 26.553545,-0.192878378 30.928295,0.412527027 C34.484145,0.905364865 37.932645,1.77563514 41.375445,2.73671622 C44.123795,3.50577027 46.893995,4.20766216 49.673695,4.85563514 C51.609795,5.30590541 52.669045,6.72104054 52.126595,8.6677973 C51.841595,9.68847297 51.225995,10.6391486 50.648395,11.5519865 C50.151545,12.3380676 49.496995,13.0248243 48.900395,13.7702297 C49.323145,14.8476622 49.856095,16.2590135 50.434645,17.6514459 C50.663595,18.2048243 50.959995,18.7364459 51.280145,19.243473 C53.128845,22.1721216 53.179195,22.533473 52.022095,25.7515811 C52.902745,26.9245541 53.843245,28.132527 54.731495,29.3773919 C55.303395,30.1786081 55.889545,30.9911757 56.312295,31.8727973 C57.240445,33.8082027 56.734095,34.9546892 54.734345,35.6982027 C54.122545,35.9252297 53.500295,36.1248243 52.782095,36.3726622 C52.861895,36.8333378 52.947395,37.2457703 53.003445,37.6610405 C53.126945,38.5719865 53.014845,39.4592838 52.289995,40.0807703 C51.755145,40.5386081 51.712395,41.0390135 51.697195,41.6727973 C51.683895,42.2479324 51.585095,42.9583378 51.235495,43.357527 C50.628445,44.0499595 50.550545,44.7215811 50.586645,45.5852297 C50.625595,46.4952297 50.479295,47.453473 50.209495,48.328473 C49.544495,50.4918514 47.983645,51.7329324 45.734995,51.8606351 C44.213095,51.9476622 42.673145,51.7206351 41.141745,51.6317162 C40.767445,51.6090135 40.394095,51.582527 40.201245,51.5702297 C38.983345,53.8603649 37.833845,56.0227973 36.565595,58.407527 C36.861995,58.6837432 37.312295,59.1330676 37.792045,59.5483378 C41.283295,62.5763108 40.309545,66.5691486 38.179645,69.4164459 C37.772095,69.9622568 37.226795,70.0596892 36.561795,69.8827973 C29.851945,68.0921216 22.994845,67.7695541 16.107345,68.0590135 C11.440945,68.2557703 6.804945,68.8564459 2.221195,69.7882027 C1.530545,69.9291486 0.783845,70.2829324 0.243295,69.5640135 C-0.277305,68.8715811 0.149245,68.1933378 0.488395,67.5709054 C2.639195,63.623473 4.798545,59.6788784 6.970245,55.7418514 C8.187195,53.5349595 9.484895,51.3706351 10.642945,49.133473 C11.154995,48.1468514 11.824745,47.7826622 12.879245,47.8848243 C13.418845,47.9368514 13.967945,47.8933378 14.589245,47.8933378" id="Fill-5" fill="#51215B" mask="url(#mask-2)"></path>
                </g>
                <path d="M45.03287,61.6144392 C44.1247087,62.2519614 43.2379388,62.81372 42.4542365,63.4456985 C41.8202738,63.9566402 41.8951436,64.4768213 42.3997857,64.8122134 C42.8577557,65.1152674 43.49658,65.0515152 44.0644239,64.6209567 C45.1884436,63.7681554 46.3105187,63.0539458 47.8409746,62.9781823 C48.5449455,62.9430724 49.0009708,62.4487617 49,61.9128735 C49,61.3668219 48.6976021,60.9140888 47.8944531,61.0138749 C46.9571218,61.130292 45.9993714,61.4037798 45.03287,61.6144392" id="Fill-8" fill="#51215B"></path>
                <path d="M36.5780794,101 C32.1664797,95.8695217 13.1907112,89.8309859 13,89.7715021 L13.5655897,88 C14.3676988,88.2528062 33.2443721,94.2634589 38,99.7926646 L36.5780794,101 Z" id="Fill-10" fill="#51215B"></path>
                <g id="Group-14" transform="translate(54.000000, 0.000000)">
                    <mask id="mask-4" fill="white">
                        <use xlink:href="#path-3"></use>
                    </mask>
                    <g id="Clip-13"></g>
                    <path d="M23.3327488,13.9486829 C23.3356024,13.8878049 23.3394073,13.8478537 23.3394073,13.8079024 C23.3403585,13.1839024 23.342261,12.5618049 23.3394073,11.9397073 C23.3365537,11.3585122 22.8647488,10.8914634 22.2826024,10.8914634 C20.425822,10.8905122 18.5690415,10.8905122 16.7132122,10.8914634 C16.1215537,10.8914634 15.6564073,11.3613659 15.6554561,11.9568293 C15.6545049,12.5560976 15.6554561,13.1553659 15.6554561,13.7546341 L15.6554561,13.9439268 C18.2180415,13.4502439 20.7654073,13.4226585 23.3327488,13.9486829 L23.3327488,13.9486829 Z M14.5853341,33.6294146 C14.6043585,33.6883902 14.6129195,33.7207317 14.6243341,33.752122 C14.8821146,34.4617317 15.3291878,35.0334146 15.9160902,35.4966585 C16.8149927,36.2062683 17.8480171,36.5629756 18.9837732,36.6333659 C20.3497244,36.7170732 21.6024805,36.3898537 22.7087488,35.5708537 C23.3441634,35.1009512 23.8254805,34.5026341 24.0975293,33.7502195 C24.1098951,33.7159756 24.1098951,33.6769756 24.1175049,33.6294146 L14.5853341,33.6294146 Z M2.53623659,31.5614634 L36.4167732,31.5614634 C36.2217732,26.8805122 33.612578,21.1303902 27.879578,17.8496341 C22.4262366,14.7277317 15.477578,14.8133415 10.0489683,18.5230976 C5.47740732,21.6478537 3.03372439,26.0386829 2.53623659,31.5614634 L2.53623659,31.5614634 Z M25.4149683,14.5013415 C26.7419195,14.9408049 27.996578,15.504878 29.1827488,16.2144878 C32.1448463,17.9866098 34.4734317,20.3760732 36.1551878,23.391439 C37.2100902,25.2815122 37.9158951,27.2971463 38.2726024,29.4316829 C38.4495293,30.4932439 38.565578,31.5614634 38.5189683,32.6382439 C38.4932854,33.2460732 38.0709439,33.6294146 37.4593098,33.6294146 C34.5809195,33.6313171 31.7025293,33.6303659 28.824139,33.6303659 L26.3024561,33.6303659 C26.1807,33.9965854 26.0865293,34.3609024 25.9400415,34.7023902 C25.3274561,36.1406341 24.2735049,37.1689024 22.8989927,37.877561 C21.4854805,38.6071463 19.9749439,38.8535122 18.4063829,38.6585122 C16.4069195,38.4092927 14.7251634,37.5503415 13.4819195,35.9266098 C12.9834805,35.2759756 12.6429439,34.545439 12.474578,33.7397561 C12.4679195,33.7064634 12.4536512,33.6731707 12.4393829,33.6294146 L12.2462854,33.6294146 C10.753822,33.6294146 9.26230976,33.6303659 7.76984634,33.6303659 C5.70284634,33.6303659 3.63489512,33.6189512 1.56789512,33.6370244 C0.934382927,33.6427317 0.450212195,33.141439 0.456802878,32.5202927 C0.494919512,28.6659512 1.56789512,25.1302683 3.73382195,21.9427317 C6.1689439,18.3613902 9.46587073,15.9015366 13.5798951,14.4918293 L13.5798951,14.3149024 C13.5798951,13.5387073 13.5798951,12.7634634 13.5808463,11.9882195 C13.5817976,10.2084878 14.979139,8.814 16.7560171,8.81590244 C17.2487488,8.81685366 17.7424317,8.81590244 18.2608463,8.81590244 L18.2608463,8.60378049 C18.2617976,6.30182927 18.2646512,3.99892683 18.2598951,1.69602439 C18.2589439,1.11387805 18.684139,0.727682927 19.0922122,0.667756098 C19.6886268,0.582146341 20.1471146,0.873219512 20.2888463,1.41921951 C20.3211878,1.54097561 20.3192854,1.67509756 20.3192854,1.80256098 C20.3202366,4.07026829 20.3202366,6.33797561 20.3202366,8.60568293 L20.3202366,8.81590244 C20.729261,8.81590244 21.1211634,8.80639024 21.5121146,8.8187561 C21.9981878,8.83492683 22.4956756,8.8092439 22.9665293,8.90626829 C24.4123829,9.2087561 25.4083098,10.4805366 25.4140171,11.9663415 C25.417822,12.8062683 25.4149683,13.6461951 25.4149683,14.5013415 L25.4149683,14.5013415 Z" id="Fill-12" fill="#51215B" mask="url(#mask-4)"></path>
                </g>
                <path d="M67,39.0090922 C66.9834717,39.293407 66.8861384,39.532045 66.6914719,39.7268705 C65.363699,41.0542943 64.0386808,42.3854469 62.7026438,43.7054132 C62.2536251,44.1500629 61.6503424,44.0391335 61.3179401,43.7175315 C60.8927957,43.3055081 60.8964686,42.68188 61.3142671,42.2521452 C61.7926694,41.7618187 62.283927,41.2845427 62.7687569,40.8007415 C63.5960898,39.9738982 64.4215863,39.1451905 65.2525921,38.3211437 C65.7943528,37.7851404 66.6336228,37.9417466 66.9072579,38.6296951 C66.9559246,38.7490141 66.9696981,38.8823158 67,39.0090922" id="Fill-15" fill="#51215B"></path>
                <path d="M80.9657539,38 C81.292667,37.9981624 81.5329621,38.09417 81.7285512,38.2908457 C83.0455175,39.6069882 84.3615524,40.924995 85.6775873,42.2439339 C86.0920498,42.6587239 86.1078832,43.2813749 85.7194992,43.6849795 C85.3227328,44.0951089 84.6856714,44.1109549 84.266552,43.6961649 C83.1917436,42.6326248 82.1262489,41.5588314 81.0570288,40.4896986 C80.8009003,40.2333677 80.5391835,39.9826295 80.2914374,39.7188417 C79.7326115,39.1250862 80.0166813,38.1994987 80.8092826,38.019601 C80.8763417,38.0037551 80.946195,38.0018909 80.9657539,38" id="Fill-17" fill="#51215B"></path>
                <path d="M72,44.466951 C72,43.6602422 72,42.8544826 72,42.0477738 C72.0009231,41.446064 72.4209555,41.0018997 72.9868451,41 C73.5711978,40.9990525 73.9976921,41.431828 73.9986153,42.0401813 C74.0004616,43.6687838 74.0004616,45.2964373 73.9986153,46.9250399 C73.9976921,47.5239025 73.6385876,47.9263078 73.0588507,47.9946408 C72.6028156,48.0487377 72.1338565,47.6871424 72.0193861,47.187932 C72.0018463,47.1091593 72.0009231,47.0256412 72.0009231,46.9440213 C72,46.1183312 72,45.2926411 72,44.466951" id="Fill-19" fill="#51215B"></path>
                <path d="M24,26.5 C24,32.8516519 18.8509274,38 12.5004667,38 C6.14907261,38 1,32.8516519 1,26.5 C1,20.1483481 6.14907261,15 12.5004667,15 C18.8509274,15 24,20.1483481 24,26.5" id="Fill-21" fill-opacity="0.1" fill="#F8B23F"></path>
                <path d="M49.8570708,45.8182202 C49.001867,45.6135568 48.1457087,45.4328026 47.3029131,45.2042299 C43.6797506,44.2220366 40.0642239,43.2111522 36.4381981,42.239479 C33.6568769,41.4935095 30.8450127,40.9961964 27.9415195,41 C25.1057936,41.0048038 22.6222665,41.7765954 20.5195724,43.7381128 C20.0537918,44.1723053 19.4190702,44.6590983 18.8377989,44.6925713 C16.4287204,44.8312451 14.6266839,46.1806849 13.1148058,47.7539156 C8.71088812,52.3387593 7.19710108,57.8885816 8.39495905,64.1202966 C9.56418296,70.2075995 12.8876423,75.1223913 17.0853948,79.5121353 C17.3230574,79.7617482 17.729661,79.9568479 18.0704062,79.9778881 C18.7824398,80.0209248 19.516426,80.0075356 20.2170059,79.8803382 C23.8239424,79.2252239 25.2470549,77.4970611 25.0456621,73.7786897 C24.955942,72.1366003 24.4958882,70.5155511 24.2553621,68.8772871 C24.0558782,67.5163709 23.7838547,66.141109 23.8096253,64.7773236 C23.8487586,62.7373838 24.8814935,61.2244045 26.7560696,60.3206337 C28.0760996,59.6846468 29.4686691,59.370957 30.9165978,59.3365277 C32.5745096,59.2973164 34.2333759,59.3317458 35.8922421,59.3298331 C37.5797424,59.3279203 37.8928081,59.0897839 38.200147,57.4065705 C38.318501,56.7581508 38.3175466,56.0858218 38.3452262,55.4240129 C38.3786326,54.6493522 38.3213644,53.8660842 38.4139479,53.1000308 C38.6325212,51.3001402 39.7845647,50.5235667 41.5522403,50.9233299 C42.0380648,51.0333126 42.515299,51.2618853 42.9992146,51.2695363 C44.0338584,51.2848382 45.1601313,51.431163 46.0840568,51.085913 C47.4813987,50.5627779 48.5876277,49.4973804 49.4619208,48.2368831 C49.9315193,47.561685 50.1729998,46.8692722 49.8570708,45.8182202" id="Fill-23" fill="#FFFFFF"></path>
                <path d="M57,32 L91,32 C90.8043124,27.3026593 88.1859172,21.5324043 82.4327026,18.2401612 C76.9601325,15.1082825 69.9860183,15.194192 64.5392217,18.9159826 C59.9515414,22.0516795 57.4982874,26.4578825 57,32" id="Fill-25" fill="#FFFFFF"></path>
                <path d="M68,34 C68.0199581,34.0586685 68.0289392,34.0908415 68.0409141,34.1220683 C68.3113462,34.8279825 68.7803612,35.3966881 69.3960683,35.8575195 C70.3390879,36.5634337 71.4228121,36.9182834 72.6143099,36.9873607 C74.0473007,37.0706321 75.3615408,36.7451167 76.5221036,35.9313282 C77.1887037,35.463873 77.6926454,34.8686719 77.979044,34.1201757 C77.9920168,34.0861102 77.9920168,34.0473133 78,34 L68,34 Z" id="Fill-27" fill="#FFFFFF"></path>
            </g>
        </g>
    </g>
</svg>