<?xml version="1.0" encoding="UTF-8"?>
<svg width="85px" height="41px" viewBox="0 0 85 41" version="1.1" xmlns="http://www.w3.org/2000/svg" xmlns:xlink="http://www.w3.org/1999/xlink">
    <!-- Generator: Sketch 63.1 (92452) - https://sketch.com -->
    <title>Group 12</title>
    <desc>Created with Sketch.</desc>
    <defs>
        <polygon id="path-1" points="0.00189230769 0.102528497 25.9405077 0.102528497 25.9405077 30 0.00189230769 30"></polygon>
        <polygon id="path-3" points="0.122571429 0.0417854406 6.88028571 0.0417854406 6.88028571 40.9807881 0.122571429 40.9807881"></polygon>
        <polygon id="path-5" points="0.111057143 0.0417854406 6.86885714 0.0417854406 6.86885714 40.9807881 0.111057143 40.9807881"></polygon>
    </defs>
    <g id="Home" stroke="none" stroke-width="1" fill="none" fill-rule="evenodd">
        <g id="Mobile-menu-activo" transform="translate(-29.000000, -33.000000)">
            <g id="Group-12" transform="translate(29.000000, 33.000000)">
                <path d="M13.652065,34.2355134 L7.33659297,8.55185614 L7.33659297,36.3802616 C7.33659297,37.9202273 7.00066526,39.0752016 6.32896493,39.8451844 C5.65710951,40.6151673 4.76548974,41 3.65488109,41 C2.57978834,41 1.70181661,40.619452 1.02127607,39.8588321 C0.340115176,39.0983709 0,37.9387945 0,36.3802616 L0,4.48215081 C0,2.72223534 0.447593432,1.53536358 1.34371084,0.921059456 C2.23936298,0.307072717 3.44860969,0 4.97176114,0 L7.44407123,0 C8.93108641,0 10.0106768,0.137428926 10.6825322,0.412445473 C11.3543877,0.68746202 11.8514552,1.18226963 12.17389,1.89734439 C12.4964798,2.61226046 12.8634258,3.77659768 13.2758135,5.38956259 L19.0000775,27.4708681 L24.7241865,5.38956259 C25.1361089,3.77659768 25.5036753,2.61226046 25.82611,1.89734439 C26.1485448,1.18226963 26.6457674,0.68746202 27.3176229,0.412445473 C27.9894783,0.137428926 29.0686034,0 30.5559288,0 L33.0283939,0 C34.550925,0 35.7603268,0.307072717 36.6562892,0.921059456 C37.5519413,1.53536358 38,2.72223534 38,4.48215081 L38,36.3802616 C38,37.9202273 37.6640723,39.0752016 36.9922169,39.8451844 C36.3203614,40.6151673 35.4200566,41 34.2914573,41 C33.234045,41 32.3653787,40.6151673 31.6846831,39.8451844 C31.0035222,39.0752016 30.663407,37.9202273 30.663407,36.3802616 L30.663407,8.55185614 L24.347935,34.2355134 C23.9355473,35.9038625 23.5996196,37.1275512 23.3401519,37.9065796 C23.080374,38.6857667 22.601142,39.3960806 21.9024557,40.0376801 C21.2036144,40.6791209 20.2363101,41 19.0000775,41 C18.0682891,41 17.2801153,40.7936979 16.6350906,40.3812524 C15.990066,39.9689657 15.4883457,39.4422606 15.1300849,38.800185 C14.7715138,38.1585855 14.4894028,37.4484303 14.2835966,36.6690845 C14.0774803,35.8900561 13.8670215,35.0786541 13.652065,34.2355134" id="Fill-1" fill="#FFFFFF"></path>
                <g id="Group-5" transform="translate(40.000000, 11.000000)">
                    <mask id="mask-2" fill="white">
                        <use xlink:href="#path-1"></use>
                    </mask>
                    <g id="Clip-4"></g>
                    <path d="M19.1158923,25.8521658 L19.1158923,24.9094197 C18.2449692,26.0229948 17.3298923,26.9564145 16.3702,27.710456 C15.4105077,28.4648083 14.3617385,29.0261036 13.2245077,29.3938756 C12.0869692,29.7618031 10.7892769,29.9461554 9.33250769,29.9461554 C7.57296923,29.9461554 5.99543077,29.5779171 4.60050769,28.8417513 C3.20512308,28.1057409 2.12543077,27.0910259 1.36158462,25.7980725 C0.455123077,24.2360518 0.00189230769,21.9914922 0.00189230769,19.0645492 L0.00189230769,4.49294301 C0.00189230769,3.02076684 0.330507692,1.92055959 0.988353846,1.19325389 C1.64558462,0.466259067 2.51650769,0.102528497 3.60081538,0.102528497 C4.70250769,0.102528497 5.59112308,0.470766839 6.26666154,1.2067772 C6.94173846,1.94340933 7.27958462,3.03833161 7.27958462,4.49294301 L7.27958462,16.2633575 C7.27958462,17.9694715 7.42173846,19.4012332 7.7062,20.5594197 C7.99035385,21.7176062 8.50127692,22.6244456 9.23896923,23.2796269 C9.97635385,23.9355855 10.9760462,24.2627876 12.2382,24.2627876 C13.4643538,24.2627876 14.6194308,23.8950155 15.7037385,23.1586943 C16.7874308,22.4226839 17.5786615,21.4617513 18.0763538,20.2766736 C18.4849692,19.2353782 18.6895846,16.9547565 18.6895846,13.4351192 L18.6895846,4.49294301 C18.6895846,3.03833161 19.0269692,1.94340933 19.7025077,1.2067772 C20.3775846,0.470766839 21.2574308,0.102528497 22.3417385,0.102528497 C23.4255846,0.102528497 24.2965077,0.466259067 24.9542,1.19325389 C25.6115846,1.92055959 25.9405077,3.02076684 25.9405077,4.49294301 L25.9405077,25.7980725 C25.9405077,27.1989016 25.6248154,28.2492124 24.9942,28.9496269 C24.3631231,29.649886 23.5500462,30.0000933 22.5549692,30.0000933 C21.5594308,30.0000933 20.7377385,29.6363627 20.0889692,28.9092124 C19.4400462,28.1819067 19.1158923,27.1629948 19.1158923,25.8521658" id="Fill-3" fill="#FFFFFF" mask="url(#mask-2)"></path>
                </g>
                <g id="Group-8" transform="translate(68.000000, 0.000000)">
                    <mask id="mask-4" fill="white">
                        <use xlink:href="#path-3"></use>
                    </mask>
                    <g id="Clip-7"></g>
                    <path d="M6.88028571,14.9856885 L6.88028571,36.4623054 C6.88028571,37.9505582 6.55842857,39.0756234 5.915,39.8376579 C5.27128571,40.6000065 4.45442857,40.9807881 3.46414286,40.9807881 C2.474,40.9807881 1.66957143,40.5905812 1.05071429,39.8103245 C0.431857143,39.030382 0.122571429,37.9142709 0.122571429,36.4623054 L0.122571429,15.2034126 C0.122571429,13.733382 0.431857143,12.6268533 1.05071429,11.8824126 C1.66957143,11.1387575 2.474,10.7664586 3.46414286,10.7664586 C4.45442857,10.7664586 5.27128571,11.1387575 5.915,11.8824126 C6.55842857,12.6268533 6.88028571,13.6611215 6.88028571,14.9856885 M3.53842857,7.30957739 C2.59771429,7.30957739 1.79342857,6.99225939 1.125,6.35683793 C0.456714286,5.72173065 0.122571429,4.82365785 0.122571429,3.66199119 C0.122571429,2.60981494 0.464714286,1.74300268 1.14971429,1.06249693 C1.83428571,0.381991188 2.63071429,0.0417383142 3.53842857,0.0417383142 C4.413,0.0417383142 5.18842857,0.350573563 5.86542857,0.967301533 C6.542,1.58434368 6.88028571,2.48257356 6.88028571,3.66199119 C6.88028571,4.80527854 6.54985714,5.69942414 5.89014286,6.34317126 C5.23,6.98754674 4.44585714,7.30957739 3.53842857,7.30957739" id="Fill-6" fill="#FFFFFF" mask="url(#mask-4)"></path>
                </g>
                <g id="Group-11" transform="translate(78.000000, 0.000000)">
                    <mask id="mask-6" fill="white">
                        <use xlink:href="#path-5"></use>
                    </mask>
                    <g id="Clip-10"></g>
                    <path d="M6.86891429,14.9856885 L6.86891429,36.4623054 C6.86891429,37.9505582 6.54705714,39.0756234 5.90362857,39.8376579 C5.25991429,40.6000065 4.44291429,40.9807881 3.45277143,40.9807881 C2.46262857,40.9807881 1.6582,40.5905812 1.03934286,39.8103245 C0.420485714,39.030382 0.111057143,37.9142709 0.111057143,36.4623054 L0.111057143,15.2034126 C0.111057143,13.733382 0.420485714,12.6268533 1.03934286,11.8824126 C1.6582,11.1387575 2.46262857,10.7664586 3.45277143,10.7664586 C4.44291429,10.7664586 5.25991429,11.1387575 5.90362857,11.8824126 C6.54705714,12.6268533 6.86891429,13.6611215 6.86891429,14.9856885 M3.52705714,7.30957739 C2.58634286,7.30957739 1.78191429,6.99225939 1.11362857,6.35683793 C0.445342857,5.72173065 0.111057143,4.82365785 0.111057143,3.66199119 C0.111057143,2.60981494 0.4532,1.74300268 1.1382,1.06249693 C1.82291429,0.381991188 2.61934286,0.0417383142 3.52705714,0.0417383142 C4.40162857,0.0417383142 5.17705714,0.350573563 5.85405714,0.967301533 C6.53048571,1.58434368 6.86891429,2.48257356 6.86891429,3.66199119 C6.86891429,4.80527854 6.53848571,5.69942414 5.87877143,6.34317126 C5.21848571,6.98754674 4.43434286,7.30957739 3.52705714,7.30957739" id="Fill-9" fill="#FFFFFF" mask="url(#mask-6)"></path>
                </g>
            </g>
        </g>
    </g>
</svg>