<?xml version="1.0" encoding="UTF-8"?>
<svg width="126px" height="60px" viewBox="0 0 126 60" version="1.1" xmlns="http://www.w3.org/2000/svg" xmlns:xlink="http://www.w3.org/1999/xlink">
    <!-- Generator: Sketch 63.1 (92452) - https://sketch.com -->
    <title>Group 12 Copy</title>
    <desc>Created with Sketch.</desc>
    <defs>
        <polygon id="path-1" points="0.6957 0.316897778 39.8557 0.316897778 39.8557 44 0.6957 44"></polygon>
        <polygon id="path-3" points="0.7 0.432786885 11.687 0.432786885 11.687 59.9729508 0.7 59.9729508"></polygon>
        <polygon id="path-5" points="0.1531 0.432786885 11.14 0.432786885 11.14 59.9729508 0.1531 59.9729508"></polygon>
    </defs>
    <g id="Vista-1" stroke="none" stroke-width="1" fill="none" fill-rule="evenodd">
        <g id="Vista1" transform="translate(-691.000000, -808.000000)">
            <g id="Group-12-Copy" transform="translate(691.000000, 808.000000)">
                <path d="M20.4776925,50.1004849 L11.0045687,12.5151227 L11.0045687,53.2390141 C11.0045687,55.4936759 10.5007644,57.1824226 9.49315574,58.3092536 C8.4855471,59.4360846 7.14841238,60 5.48175157,60 C3.86917711,60 2.55207436,59.4430835 1.53144494,58.3292506 C0.509813913,57.2164175 0,55.519672 0,53.2390141 L0,6.55901615 C0,3.98440234 0.67107136,2.24766285 2.01521728,1.34779783 C3.35836159,0.44993251 5.17225746,0 7.45690488,0 L11.1658261,0 C13.3963872,0 15.0159729,0.200969855 16.0235815,0.603909414 C17.0311901,1.00584912 17.7763798,1.72974054 18.2601522,2.77658351 C18.7449261,3.82242664 19.294804,5.52717092 19.9137922,7.88681698 L28.4994992,40.2009699 L37.0862078,7.88681698 C37.7041944,5.52717092 38.2550739,3.82242664 38.7388462,2.77658351 C39.2226186,1.72974054 39.9678083,1.00584912 40.9764185,0.603909414 C41.9840271,0.200969855 43.6026112,0 45.8341739,0 L49.5420935,0 C51.8267409,0 53.6406368,0.44993251 54.9847827,1.34779783 C56.327927,2.24766285 57,3.98440234 57,6.55901615 L57,53.2390141 C57,55.4936759 56.4961957,57.1824226 55.488587,58.3092536 C54.4809784,59.4360846 53.1298213,60 51.4371189,60 C49.850586,60 48.5475057,59.4360846 47.5268762,58.3092536 C46.5052452,57.1824226 45.9954313,55.4936759 45.9954313,53.2390141 L45.9954313,12.5151227 L36.5223075,50.1004849 C35.9033193,52.5411188 35.399515,54.3328501 35.0108946,55.4726791 C34.620271,56.613508 33.9021244,57.653352 32.8534502,58.5912113 C31.8057776,59.5300705 30.3544606,60 28.4994992,60 C27.1022685,60 25.9203817,59.6980453 24.952837,59.0941359 C23.9852923,58.4912263 23.2320898,57.7203419 22.6952327,56.7804829 C22.1573741,55.8406239 21.7336977,54.8017797 21.4252052,53.6619507 C21.115711,52.5221217 20.8002073,51.3342999 20.4776925,50.1004849" id="Fill-1" fill="#00779A"></path>
                <g id="Group-5" transform="translate(58.000000, 15.000000)">
                    <mask id="mask-2" fill="white">
                        <use xlink:href="#path-1"></use>
                    </mask>
                    <g id="Clip-4"></g>
                    <path d="M29.5527,37.9388533 L29.5527,36.5621422 C28.2377,38.1891644 26.8567,39.5521867 25.4077,40.6541422 C23.9587,41.7560978 22.3747,42.5764533 20.6577,43.1142311 C18.9407,43.6510311 16.9817,43.9208978 14.7817,43.9208978 C12.1257,43.9208978 9.7437,43.3821422 7.6387,42.3075644 C5.5317,41.2320089 3.9017,39.7496978 2.7487,37.8606311 C1.3797,35.57752 0.6957,32.2990311 0.6957,28.0222311 L0.6957,6.73209778 C0.6957,4.58196444 1.1917,2.97449778 2.1847,1.91165333 C3.1767,0.848808889 4.4917,0.316897778 6.1287,0.316897778 C7.7927,0.316897778 9.1337,0.855653333 10.1537,1.93120889 C11.1727,3.00676444 11.6827,4.60738667 11.6827,6.73209778 L11.6827,23.9302311 C11.6827,26.4225867 11.8967,28.5140533 12.3267,30.2065867 C12.7557,31.8981422 13.5277,33.2240089 14.6407,34.1812533 C15.7547,35.1394756 17.2637,35.6176089 19.1687,35.6176089 C21.0207,35.6176089 22.7647,35.0798311 24.4007,34.0042756 C26.0377,32.92872 27.2317,31.5246311 27.9827,29.7929867 C28.5997,28.2715644 28.9087,24.9392978 28.9087,19.7971644 L28.9087,6.73209778 C28.9087,4.60738667 29.4177,3.00676444 30.4377,1.93120889 C31.4577,0.855653333 32.7857,0.316897778 34.4227,0.316897778 C36.0587,0.316897778 37.3737,0.848808889 38.3667,1.91165333 C39.3587,2.97449778 39.8557,4.58196444 39.8557,6.73209778 L39.8557,37.8606311 C39.8557,39.90712 39.3797,41.4422311 38.4277,42.4649867 C37.4747,43.48872 36.2477,44.0000978 34.7447,44.0000978 C33.2417,44.0000978 32.0007,43.4681867 31.0217,42.4053422 C30.0427,41.3424978 29.5527,39.85432 29.5527,37.9388533" id="Fill-3" fill="#5B1659" mask="url(#mask-2)"></path>
                </g>
                <g id="Group-8" transform="translate(99.000000, 0.000000)">
                    <mask id="mask-4" fill="white">
                        <use xlink:href="#path-3"></use>
                    </mask>
                    <g id="Clip-7"></g>
                    <path d="M11.687,22.165082 L11.687,53.4004918 C11.687,55.5644262 11.164,57.2001639 10.117,58.3086885 C9.071,59.4172131 7.743,59.9729508 6.133,59.9729508 C4.523,59.9729508 3.215,59.4034426 2.209,58.2693443 C1.203,57.1352459 0.7,55.5113115 0.7,53.4004918 L0.7,22.4818033 C0.7,20.3444262 1.203,18.7352459 2.209,17.6522951 C3.215,16.5713115 4.523,16.0293443 6.133,16.0293443 C7.743,16.0293443 9.071,16.5713115 10.117,17.6522951 C11.164,18.7352459 11.687,20.2391803 11.687,22.165082 M6.254,11.0021311 C4.725,11.0021311 3.416,10.5408197 2.33,9.61622951 C1.243,8.69360656 0.7,7.38737705 0.7,5.69754098 C0.7,4.16704918 1.256,2.90704918 2.37,1.91754098 C3.483,0.92704918 4.778,0.432295082 6.254,0.432295082 C7.676,0.432295082 8.937,0.880819672 10.037,1.77786885 C11.137,2.67688525 11.687,3.98311475 11.687,5.69754098 C11.687,7.35983607 11.15,8.66016393 10.077,9.59655738 C9.004,10.5339344 7.729,11.0021311 6.254,11.0021311" id="Fill-6" fill="#F3A93E" mask="url(#mask-4)"></path>
                </g>
                <g id="Group-11" transform="translate(114.000000, 0.000000)">
                    <mask id="mask-6" fill="white">
                        <use xlink:href="#path-5"></use>
                    </mask>
                    <g id="Clip-10"></g>
                    <path d="M11.1401,22.165082 L11.1401,53.4004918 C11.1401,55.5644262 10.6171,57.2001639 9.5701,58.3086885 C8.5241,59.4172131 7.1961,59.9729508 5.5861,59.9729508 C3.9761,59.9729508 2.6681,59.4034426 1.6621,58.2693443 C0.6561,57.1352459 0.1531,55.5113115 0.1531,53.4004918 L0.1531,22.4818033 C0.1531,20.3444262 0.6561,18.7352459 1.6621,17.6522951 C2.6681,16.5713115 3.9761,16.0293443 5.5861,16.0293443 C7.1961,16.0293443 8.5241,16.5713115 9.5701,17.6522951 C10.6171,18.7352459 11.1401,20.2391803 11.1401,22.165082 M5.7071,11.0021311 C4.1781,11.0021311 2.8691,10.5408197 1.7831,9.61622951 C0.6961,8.69360656 0.1531,7.38737705 0.1531,5.69754098 C0.1531,4.16704918 0.7091,2.90704918 1.8231,1.91754098 C2.9361,0.92704918 4.2311,0.432295082 5.7071,0.432295082 C7.1291,0.432295082 8.3891,0.880819672 9.4901,1.77786885 C10.5901,2.67688525 11.1401,3.98311475 11.1401,5.69754098 C11.1401,7.35983607 10.6031,8.66016393 9.5301,9.59655738 C8.4571,10.5339344 7.1821,11.0021311 5.7071,11.0021311" id="Fill-9" fill="#E13D4C" mask="url(#mask-6)"></path>
                </g>
            </g>
        </g>
    </g>
</svg>