<?xml version="1.0" encoding="UTF-8"?>
<svg width="86px" height="41px" viewBox="0 0 86 41" version="1.1" xmlns="http://www.w3.org/2000/svg" xmlns:xlink="http://www.w3.org/1999/xlink">
    <!-- Generator: Sketch 63.1 (92452) - https://sketch.com -->
    <title>Group 12</title>
    <desc>Created with Sketch.</desc>
    <defs>
        <polygon id="path-1" points="0.4695975 0.216066667 26.9025975 0.216066667 26.9025975 30 0.4695975 30"></polygon>
        <polygon id="path-3" points="0.466666667 0.295737705 7.79133333 0.295737705 7.79133333 40.9815164 0.466666667 40.9815164"></polygon>
        <polygon id="path-5" points="0.102066667 0.295737705 7.42666667 0.295737705 7.42666667 40.9815164 0.102066667 40.9815164"></polygon>
    </defs>
    <g id="Vista-1" stroke="none" stroke-width="1" fill="none" fill-rule="evenodd">
        <g id="Vista1" transform="translate(-59.000000, -31.000000)">
            <g id="Group-12" transform="translate(59.000000, 31.000000)">
                <path d="M14.0110527,34.2353314 L7.52944174,8.55200053 L7.52944174,36.379993 C7.52944174,37.9206786 7.18473352,39.0746555 6.49531709,39.8446566 C5.80590065,40.6146578 4.891019,41 3.75067213,41 C2.64733171,41 1.74615614,40.6194404 1.04783075,39.8583213 C0.348820046,39.0978853 0,37.9384426 0,36.379993 L0,4.48199437 C0,2.72267493 0.459154088,1.53590295 1.37883287,0.920995184 C2.29782635,0.307453882 3.538913,0 5.10209281,0 L7.63977578,0 C9.16594915,0 10.2740867,0.137329401 10.9635031,0.412671433 C11.6529196,0.687330234 12.1627862,1.18198937 12.4937883,1.89733207 C12.8254758,2.61199153 13.201708,3.77690013 13.6252262,5.38932493 L19.4996573,27.4706627 L25.3747738,5.38932493 C25.7976067,3.77690013 26.1745242,2.61199153 26.5055264,1.89733207 C26.8365285,1.18198937 27.3463951,0.687330234 28.0364969,0.412671433 C28.7259133,0.137329401 29.8333655,0 31.3602242,0 L33.8972219,0 C35.4604017,0 36.7014883,0.307453882 37.6211671,0.920995184 C38.5401606,1.53590295 39,2.72267493 39,4.48199437 L39,36.379993 C39,37.9206786 38.6552918,39.0746555 37.9658753,39.8446566 C37.2764589,40.6146578 36.351983,41 35.1938182,41 C34.1082957,41 33.2167144,40.6146578 32.518389,39.8446566 C31.8193783,39.0746555 31.4705583,37.9206786 31.4705583,36.379993 L31.4705583,8.55200053 L24.9889473,34.2353314 C24.565429,35.9030979 24.2207208,37.1274475 23.9548226,37.9063307 C23.6875538,38.6858971 23.1961904,39.3964572 22.4786765,40.0373277 C21.7618479,40.6788815 20.7688415,41 19.4996573,41 C18.5436574,41 17.734998,40.7936643 17.0729937,40.3809929 C16.4109895,39.9690046 15.8956404,39.4422337 15.5283171,38.7999967 C15.1603086,38.1577597 14.8704247,37.4478828 14.6593509,36.6689997 C14.4475918,35.8901165 14.2317208,35.0784382 14.0110527,34.2353314" id="Fill-1" fill="#00779A"></path>
                <g id="Group-5" transform="translate(40.000000, 10.000000)">
                    <mask id="mask-2" fill="white">
                        <use xlink:href="#path-1"></use>
                    </mask>
                    <g id="Clip-4"></g>
                    <path d="M19.9480725,25.8674 L19.9480725,24.9287333 C19.0604475,26.0380667 18.1282725,26.9674 17.1501975,27.7187333 C16.1721225,28.4700667 15.1029225,29.0294 13.9439475,29.3960667 C12.7849725,29.7620667 11.4626475,29.9460667 9.9776475,29.9460667 C8.1848475,29.9460667 6.5769975,29.5787333 5.1561225,28.8460667 C3.7338975,28.1127333 2.6336475,27.1020667 1.8553725,25.8140667 C0.9312975,24.2574 0.4695975,22.0220667 0.4695975,19.1060667 L0.4695975,4.59006667 C0.4695975,3.12406667 0.8043975,2.02806667 1.4746725,1.3034 C2.1442725,0.578733333 3.0318975,0.216066667 4.1368725,0.216066667 C5.2600725,0.216066667 6.1652475,0.5834 6.8537475,1.31673333 C7.5415725,2.05006667 7.8858225,3.1414 7.8858225,4.59006667 L7.8858225,16.3160667 C7.8858225,18.0154 8.0302725,19.4414 8.3205225,20.5954 C8.6100975,21.7487333 9.1311975,22.6527333 9.8824725,23.3054 C10.6344225,23.9587333 11.6529975,24.2847333 12.9388725,24.2847333 C14.1889725,24.2847333 15.3661725,23.9180667 16.4704725,23.1847333 C17.5754475,22.4514 18.3813975,21.4940667 18.8883225,20.3134 C19.3047975,19.2760667 19.5133725,17.0040667 19.5133725,13.4980667 L19.5133725,4.59006667 C19.5133725,3.1414 19.8569475,2.05006667 20.5454475,1.31673333 C21.2339475,0.5834 22.1303475,0.216066667 23.2353225,0.216066667 C24.3396225,0.216066667 25.2272475,0.578733333 25.8975225,1.3034 C26.5671225,2.02806667 26.9025975,3.12406667 26.9025975,4.59006667 L26.9025975,25.8140667 C26.9025975,27.2094 26.5812975,28.2560667 25.9386975,28.9534 C25.2954225,29.6514 24.4671975,30.0000667 23.4526725,30.0000667 C22.4381475,30.0000667 21.6004725,29.6374 20.9396475,28.9127333 C20.2788225,28.1880667 19.9480725,27.1734 19.9480725,25.8674" id="Fill-3" fill="#5B1659" mask="url(#mask-2)"></path>
                </g>
                <g id="Group-8" transform="translate(68.000000, 0.000000)">
                    <mask id="mask-4" fill="white">
                        <use xlink:href="#path-3"></use>
                    </mask>
                    <g id="Clip-7"></g>
                    <path d="M7.79133333,15.1461393 L7.79133333,36.4903361 C7.79133333,37.9690246 7.44266667,39.0867787 6.74466667,39.8442705 C6.04733333,40.6017623 5.162,40.9815164 4.08866667,40.9815164 C3.01533333,40.9815164 2.14333333,40.5923525 1.47266667,39.8173852 C0.802,39.042418 0.466666667,37.9327295 0.466666667,36.4903361 L0.466666667,15.3625656 C0.466666667,13.9020246 0.802,12.802418 1.47266667,12.0624016 C2.14333333,11.3237295 3.01533333,10.9533852 4.08866667,10.9533852 C5.162,10.9533852 6.04733333,11.3237295 6.74466667,12.0624016 C7.44266667,12.802418 7.79133333,13.8301066 7.79133333,15.1461393 M4.16933333,7.51812295 C3.15,7.51812295 2.27733333,7.20289344 1.55333333,6.57109016 C0.828666667,5.94063115 0.466666667,5.04804098 0.466666667,3.89331967 C0.466666667,2.84748361 0.837333333,1.98648361 1.58,1.31031967 C2.322,0.633483607 3.18533333,0.295401639 4.16933333,0.295401639 C5.11733333,0.295401639 5.958,0.601893443 6.69133333,1.21487705 C7.42466667,1.82920492 7.79133333,2.72179508 7.79133333,3.89331967 C7.79133333,5.02922131 7.43333333,5.91777869 6.718,6.55764754 C6.00266667,7.19818852 5.15266667,7.51812295 4.16933333,7.51812295" id="Fill-6" fill="#F3A93E" mask="url(#mask-4)"></path>
                </g>
                <g id="Group-11" transform="translate(78.000000, 0.000000)">
                    <mask id="mask-6" fill="white">
                        <use xlink:href="#path-5"></use>
                    </mask>
                    <g id="Clip-10"></g>
                    <path d="M7.42673333,15.1461393 L7.42673333,36.4903361 C7.42673333,37.9690246 7.07806667,39.0867787 6.38006667,39.8442705 C5.68273333,40.6017623 4.7974,40.9815164 3.72406667,40.9815164 C2.65073333,40.9815164 1.77873333,40.5923525 1.10806667,39.8173852 C0.4374,39.042418 0.102066667,37.9327295 0.102066667,36.4903361 L0.102066667,15.3625656 C0.102066667,13.9020246 0.4374,12.802418 1.10806667,12.0624016 C1.77873333,11.3237295 2.65073333,10.9533852 3.72406667,10.9533852 C4.7974,10.9533852 5.68273333,11.3237295 6.38006667,12.0624016 C7.07806667,12.802418 7.42673333,13.8301066 7.42673333,15.1461393 M3.80473333,7.51812295 C2.7854,7.51812295 1.91273333,7.20289344 1.18873333,6.57109016 C0.464066667,5.94063115 0.102066667,5.04804098 0.102066667,3.89331967 C0.102066667,2.84748361 0.472733333,1.98648361 1.2154,1.31031967 C1.9574,0.633483607 2.82073333,0.295401639 3.80473333,0.295401639 C4.75273333,0.295401639 5.59273333,0.601893443 6.32673333,1.21487705 C7.06006667,1.82920492 7.42673333,2.72179508 7.42673333,3.89331967 C7.42673333,5.02922131 7.06873333,5.91777869 6.3534,6.55764754 C5.63806667,7.19818852 4.78806667,7.51812295 3.80473333,7.51812295" id="Fill-9" fill="#E13D4C" mask="url(#mask-6)"></path>
                </g>
            </g>
        </g>
    </g>
</svg>