<?xml version="1.0" encoding="UTF-8"?>
<svg width="125px" height="92px" viewBox="0 0 125 92" version="1.1" xmlns="http://www.w3.org/2000/svg" xmlns:xlink="http://www.w3.org/1999/xlink">
    <!-- Generator: Sketch 63.1 (92452) - https://sketch.com -->
    <title>Paso3</title>
    <desc>Created with Sketch.</desc>
    <defs>
        <polygon id="path-1" points="0 0.157733333 43.8424 0.157733333 43.8424 43.9990667 0 43.9990667"></polygon>
        <polygon id="path-3" points="0.070737931 0.330544118 38.8528759 0.330544118 38.8528759 38.9208338 0.070737931 38.9208338"></polygon>
        <polygon id="path-5" points="0.186133333 0.145118797 23.852 0.145118797 23.852 23.6338406 0.186133333 23.6338406"></polygon>
    </defs>
    <g id="Page-1" stroke="none" stroke-width="1" fill="none" fill-rule="evenodd">
        <g id="Home" transform="translate(-563.000000, -874.000000)">
            <g id="Paso3" transform="translate(563.000000, 874.000000)">
                <g id="Group-22">
                    <path d="M55.7013561,25.4354446 C49.8088538,25.4637372 45.9407694,28.2795884 44.7397754,33.7042429 C43.2656457,40.375192 44.8857156,46.3542005 49.482162,51.3941467 C53.4613751,55.7541743 58.2666899,55.7848976 62.2807145,51.4582648 C66.5611802,46.8457723 68.1330498,41.3142543 67.1195019,35.0921316 C66.0564147,28.5707912 62.2954424,25.4036265 55.7013561,25.4354446 M40.0000333,38.2766616 C39.9866777,29.3041414 43.9966855,23.2930739 51.1223154,21.6126466 C64.1886481,18.5269652 73.607815,27.4139946 71.7708432,41.1472803 C71.0384644,46.6213591 68.872123,51.4462426 64.7456308,55.2492447 C59.3284383,60.2437739 52.7838913,60.2424381 47.349293,55.29199 C42.707324,51.0642059 40.009439,44.8207104 40.0000333,38.2766616" id="Fill-1" fill="#51215B"></path>
                    <path d="M55.4993366,7.02974806 C35.3624539,7.02974806 18.98067,23.6148478 18.98067,43.9986568 C18.98067,64.3851522 35.3624539,80.9702519 55.4993366,80.9702519 C75.6375461,80.9702519 92.01933,64.3851522 92.01933,43.9986568 C92.01933,23.6148478 75.6375461,7.02974806 55.4993366,7.02974806 M55.4993366,85 C33.1677779,85 15,66.6082299 15,43.9986568 C15,21.3917701 33.1677779,3 55.4993366,3 C77.8322221,3 96,21.3917701 96,43.9986568 C96,66.6082299 77.8322221,85 55.4993366,85" id="Fill-3" fill="#51215B"></path>
                    <g id="Group-7" transform="translate(0.000000, 48.000000)">
                        <mask id="mask-2" fill="white">
                            <use xlink:href="#path-1"></use>
                        </mask>
                        <g id="Clip-6"></g>
                        <path d="M43.8424,22.0790667 C43.8424,34.1857333 34.0290667,43.9990667 21.9224,43.9990667 C9.8144,43.9990667 -0.000266666667,34.1857333 -0.000266666667,22.0790667 C-0.000266666667,9.97106667 9.8144,0.157733333 21.9224,0.157733333 C34.0290667,0.157733333 43.8424,9.97106667 43.8424,22.0790667" id="Fill-5" fill="#FFFFFF" mask="url(#mask-2)"></path>
                    </g>
                    <path d="M37,69.0006805 C37,77.2849431 30.2838868,84 22,84 C13.7161132,84 7,77.2849431 7,69.0006805 C7,60.7150569 13.7161132,54 22,54 C30.2838868,54 37,60.7150569 37,69.0006805" id="Fill-8" fill="#51215B"></path>
                    <path d="M21.8551333,80 C21.3676254,80 20.9405837,79.835321 20.5777871,79.5046457 C20.2124711,79.1739703 20.0323326,78.7115518 20.0323326,78.1173901 C20.0323326,77.5904174 20.2074323,77.1477604 20.5601512,76.7881015 C20.9103506,76.4284427 21.3449507,76.2466371 21.8551333,76.2466371 C22.3590174,76.2466371 22.7822801,76.4284427 23.1274407,76.7881015 C23.4713416,77.1477604 23.6439219,77.5904174 23.6439219,78.1173901 C23.6439219,78.7036472 23.4625236,79.1634309 23.1035062,79.499376 C22.7444888,79.8326862 22.3275247,80 21.8551333,80 M16,66.2473305 C16,65.4502843 16.2431241,64.6453335 16.7318917,63.8298433 C17.2193995,63.0143531 17.9311358,62.339828 18.8671006,61.8023159 C19.8030653,61.2674386 20.8952341,61 22.143607,61 C23.3038001,61 24.3279446,61.2239634 25.2147806,61.6718902 C26.104136,62.1198169 26.7894184,62.7284704 27.2744069,63.4978505 C27.7581356,64.2685481 28,65.1037998 28,66.0075579 C28,66.7176536 27.8626916,67.3421162 27.586815,67.8783109 C27.3084191,68.4118708 26.9808944,68.8742893 26.6017216,69.2642491 C26.2212891,69.6528914 25.5397858,70.3089724 24.5559521,71.2285397 C24.2838547,71.4880738 24.0659248,71.714672 23.9021625,71.9109694 C23.7371405,72.1085841 23.6136889,72.2890723 23.5355868,72.4524338 C23.4562251,72.6157953 23.3932396,72.7791568 23.3504094,72.9425184 C23.3050598,73.1058799 23.2408146,73.3904452 23.1501155,73.8014838 C22.9989502,74.6709888 22.5240395,75.1070587 21.7241235,75.1070587 C21.3071594,75.1070587 20.9569599,74.964776 20.6747848,74.6802108 C20.3900903,74.3943281 20.247743,73.9714325 20.247743,73.4128415 C20.247743,72.709333 20.3510393,72.0993621 20.5601512,71.5855637 C20.7680034,71.0717654 21.0426202,70.6198863 21.3877808,70.2312439 C21.730422,69.8412841 22.1952551,69.3788656 22.7785009,68.8439884 C23.2924627,68.3749827 23.6628176,68.021911 23.8883057,67.7834558 C24.117573,67.5450007 24.3090489,67.2788795 24.465253,66.9864097 C24.6214571,66.6926224 24.6995591,66.3751213 24.6995591,66.0312717 C24.6995591,65.3633338 24.4614739,64.7981556 23.9853034,64.3370545 C23.5078732,63.8799057 22.895654,63.6493552 22.143607,63.6493552 C21.2630695,63.6493552 20.6155784,63.8812231 20.199874,64.3449591 C19.7829099,64.808695 19.4314508,65.4924421 19.1429771,66.3962002 C18.8721394,67.3421162 18.3569179,67.8150742 17.5947932,67.8150742 C17.1475961,67.8150742 16.769683,67.6490778 16.4623137,67.3184024 C16.1536847,66.9877271 16,66.6320205 16,66.2473305" id="Fill-10" fill="#FFFFFF"></path>
                    <path d="M84.0256529,71 C83.6534189,71 83.277239,70.8981651 82.9431492,70.6855848 C82.6643025,70.5086467 76.1377128,66.3499651 71.4512478,62.8977628 C57.1985016,70.6130275 47.8531932,65.5314673 43.8506916,63.352201 C43.5521153,63.1905381 43.2864218,63.0454234 43.0522958,62.9244945 C42.0881704,62.4331412 41.7198824,61.2773154 42.228909,60.3455263 C42.7366204,59.4111913 43.9309258,59.0560422 44.8937359,59.5486684 C45.1554835,59.6810538 45.4527445,59.8427166 45.7842037,60.0234735 C49.5236424,62.0588981 57.3010961,66.2850453 69.7623842,59.4353771 C70.9856265,58.7607211 72.5219137,58.8778312 73.674129,59.7332441 C78.2540536,63.1256184 85.0423909,67.4523276 85.1107872,67.4956074 C86.0223001,68.0747932 86.2735251,69.2586237 85.6750571,70.1394953 C85.2962465,70.6983142 84.666211,71 84.0256529,71" id="Fill-12" fill="#51215B"></path>
                    <g id="Group-16" transform="translate(71.000000, 0.000000)">
                        <mask id="mask-4" fill="white">
                            <use xlink:href="#path-3"></use>
                        </mask>
                        <g id="Clip-15"></g>
                        <path d="M38.8528759,19.6261574 C38.8528759,30.282525 30.170669,38.9208338 19.4618069,38.9208338 C8.75294483,38.9208338 0.070737931,30.282525 0.070737931,19.6261574 C0.070737931,8.96845147 8.75294483,0.330142647 19.4618069,0.330142647 C30.170669,0.330142647 38.8528759,8.96845147 38.8528759,19.6261574" id="Fill-14" fill="#FFFFFF" mask="url(#mask-4)"></path>
                    </g>
                    <path d="M95,21 C95,25.9689142 90.9709531,30 85.9986863,30 C81.0290469,30 77,25.9689142 77,21 C77,16.0297723 81.0290469,12 85.9986863,12 C90.9709531,12 95,16.0297723 95,21" id="Fill-17" fill="#E73C4A"></path>
                    <g id="Group-21" transform="translate(101.000000, 17.000000)">
                        <mask id="mask-6" fill="white">
                            <use xlink:href="#path-5"></use>
                        </mask>
                        <g id="Clip-20"></g>
                        <path d="M23.8528,11.8894797 C23.8528,18.3750135 18.5541333,23.6338406 12.0194667,23.6338406 C5.48346667,23.6338406 0.186133333,18.3750135 0.186133333,11.8894797 C0.186133333,5.40394586 5.48346667,0.145118797 12.0194667,0.145118797 C18.5541333,0.145118797 23.8528,5.40394586 23.8528,11.8894797" id="Fill-19" fill="#297DA2" mask="url(#mask-6)"></path>
                    </g>
                </g>
            </g>
        </g>
    </g>
</svg>