<?xml version="1.0" encoding="UTF-8"?>
<svg width="126px" height="100px" viewBox="0 0 126 100" version="1.1" xmlns="http://www.w3.org/2000/svg" xmlns:xlink="http://www.w3.org/1999/xlink">
    <!-- Generator: Sketch 63.1 (92452) - https://sketch.com -->
    <title>Paso2</title>
    <desc>Created with Sketch.</desc>
    <defs>
        <polygon id="path-1" points="0.532233202 0.279186047 49.9537549 0.279186047 49.9537549 48.7846279 0.532233202 48.7846279"></polygon>
        <polygon id="path-3" points="0 0.122307692 14.3453077 0.122307692 14.3453077 14.4680769 0 14.4680769"></polygon>
    </defs>
    <g id="Page-1" stroke="none" stroke-width="1" fill="none" fill-rule="evenodd">
        <g id="Home" transform="translate(-336.000000, -863.000000)">
            <g id="Paso2" transform="translate(336.000000, 863.000000)">
                <g id="Group-17">
                    <path d="M69.7888257,80.5204186 C67.852931,80.4657743 65.9298413,80.3727629 64.0055876,80.3669497 C62.0184726,80.3611364 60.0267012,80.3855519 58.0430785,80.4983283 C56.1560759,80.6064541 54.2457913,80.0809394 52.3715938,80.5227438 C52.49266,82.6643325 53.2318621,83.4758574 55.0920904,83.4944597 C59.0174284,83.5316643 62.9450945,83.5549172 66.8692683,83.4979477 C68.8342655,83.4688816 69.5245755,82.7073503 69.7888257,80.5204186 L69.7888257,80.5204186 Z M28.3259888,30.3070235 C28.2514865,30.526763 28.1653433,30.6627923 28.1653433,30.7999842 C28.1653433,44.0180742 28.1711638,57.2350015 28.1816407,70.4519289 C28.1816407,70.8960585 28.2293687,71.3401882 28.2596352,71.7831553 C28.2631275,71.8250104 28.3038709,71.8680282 28.3364657,71.9029075 C28.3690604,71.9401121 28.4098038,71.9691782 28.4726651,72.0203345 L93.8483999,72.0203345 L93.8483999,30.3070235 L28.3259888,30.3070235 Z M60.9800973,88.9414429 C47.1459586,88.9414429 33.3118198,88.9391176 19.4776811,88.9437682 C16.5918826,88.9449308 14.2625228,86.7719508 14.086744,83.8851078 C13.8772064,80.4239192 13.8795346,80.4250818 16.0878282,77.6510153 C16.8619533,76.6790456 17.5825298,75.6594075 18.3985624,74.7269677 C19.1994617,73.8119676 19.5032913,72.8051186 19.5114399,71.5959697 C19.5533475,65.6839293 19.6825623,59.7730515 19.726798,53.8610111 C19.7756902,47.2513848 19.75008,40.6405958 19.7919875,34.0309695 C19.8036285,32.195156 19.8257464,30.3453907 20.0457608,28.5258542 C20.3391135,26.0854662 21.8873636,24.414748 23.879135,23.1265394 C25.2283244,22.2533944 26.7614413,22.0848111 28.3190042,22.0766726 C35.1848533,22.0452813 42.0530305,22.0034261 48.9200437,22.0011008 C62.903187,21.9952876 76.8863302,22.0138899 90.8683094,22.0243537 C92.0137817,22.0243537 93.1580898,22.0220284 94.302398,22.0534198 C97.6584921,22.1452686 100.084472,23.8031977 101.548907,26.7225947 C102.057618,27.7364195 102.168207,29.0199775 102.200802,30.1872712 C102.298586,33.7635616 102.279961,37.3421772 102.289273,40.9207928 C102.312555,51.0102101 102.347478,61.0996274 102.32536,71.1890446 C102.321868,72.4586509 102.644323,73.5154936 103.426597,74.485138 C104.708269,76.0698206 105.936392,77.697521 107.240181,79.2636013 C107.787307,79.919332 108.034096,80.6052915 107.993353,81.4423946 C107.957266,82.1876488 107.915358,82.939879 107.986368,83.6781574 C108.234321,86.3231705 105.048185,89.0274785 102.630354,88.9997892 C92.7285377,88.8833107 82.8243933,88.9484188 72.9225771,88.9460935 L60.9800973,88.9460935 L60.9800973,88.9414429 Z" id="Fill-1" fill="#51215B"></path>
                    <path d="M59.2365587,39.5198495 C59.287787,38.6809002 59.2901156,37.9022006 59.3949006,37.1371425 C59.5171499,36.2481746 59.7465128,36.0765196 60.6441715,36.0117227 C60.9410626,35.9912606 61.2414464,36.0026284 61.5395018,36.0083124 C63.3103695,36.0435528 63.5059683,36.2265756 63.6002748,37.9147053 C63.6747886,39.2311054 63.7609453,39.2936287 65.1184941,39.6471697 C66.1197736,39.9097676 67.1140675,40.2167003 68.0839116,40.5759252 C68.7708359,40.8282921 69.080534,41.3114268 68.7743288,42.0810321 C68.5053804,42.7574207 68.3598456,43.4781441 68.1095257,44.1636271 C67.7416137,45.1719577 67.4959509,45.3356551 66.4457716,44.902539 C64.7307893,44.1954571 62.9541002,44.1977307 61.1657683,44.2807162 C60.6965641,44.3023151 60.1621602,44.4512343 59.7907553,44.7172426 C58.919875,45.3402023 58.8604968,46.5451972 59.73487,47.2363641 C60.5347294,47.8695548 61.4754664,48.3492792 62.3952465,48.8176357 C63.6736244,49.4656047 65.0369946,49.9612441 66.2804441,50.6649157 C69.0258129,52.2200412 70.4671898,55.1836466 69.8640935,58.0665402 C69.3657823,60.4537942 67.8871485,62.1555654 65.6459123,63.2184618 C65.2442362,63.4083054 64.8227673,63.5594981 64.4024628,63.7061437 C63.8121735,63.9130391 63.5513751,64.3120516 63.5292538,64.9190962 C63.5036397,65.5477398 63.4314544,66.1763833 63.3569406,66.8038901 C63.3289979,67.0392052 63.3150266,67.3461378 63.1636704,67.4870995 C62.2892972,68.2999027 61.1948753,67.9008902 60.1866101,67.9099845 C59.421679,67.9156685 59.2528586,67.3052135 59.1527307,66.7015792 C59.1364308,66.6060891 59.1294451,66.5094621 59.1189666,66.4128352 C58.9024108,64.368891 58.8954251,64.3950371 56.9545728,63.8880298 C55.9032292,63.6129272 54.8716784,63.2559758 53.8471133,62.8944774 C53.1299177,62.6409737 52.8761049,62.0850845 53.0554038,61.375729 C53.2591526,60.5765673 53.4547514,59.7683113 53.7469853,58.9998428 C54.0974331,58.0801816 54.3465888,58.040394 55.3618397,58.3166334 C56.8369806,58.7201931 58.3156144,59.1385309 59.8198623,59.4159071 C60.5265794,59.5455009 61.314796,59.4534211 62.029663,59.2999548 C62.9378003,59.1055641 63.68876,58.6212925 63.8552518,57.6095515 C64.0170865,56.6103152 63.7679309,55.759998 62.8120582,55.2427596 C61.9446707,54.7732663 61.0551619,54.3401502 60.1668173,53.9093077 C58.9210393,53.3068102 57.5914331,52.8350433 56.4294831,52.1063624 C53.5106368,50.2761343 52.5570926,47.7172253 53.490844,44.4284986 C53.9577197,42.788114 55.1254911,41.6808828 56.6111106,40.8737636 C57.4761696,40.405407 58.3610213,39.9700174 59.2365587,39.5198495" id="Fill-3" fill="#51215B"></path>
                    <path d="M40,80.5005805 C40,91.2696097 31.2687087,100 20.5,100 C9.7312913,100 1,91.2696097 1,80.5005805 C1,69.7315512 9.7312913,61 20.5,61 C31.2687087,61 40,69.7315512 40,80.5005805" id="Fill-5" fill="#FFFFFF"></path>
                    <path d="M31,80.5 C31,86.8508163 25.8508163,92 19.5,92 C13.1491837,92 8,86.8508163 8,80.5 C8,74.1480102 13.1491837,69 19.5,69 C25.8508163,69 31,74.1480102 31,80.5" id="Fill-7" fill="#F8B23F"></path>
                    <g id="Group-11" transform="translate(76.000000, 0.000000)">
                        <mask id="mask-2" fill="white">
                            <use xlink:href="#path-1"></use>
                        </mask>
                        <g id="Clip-10"></g>
                        <path d="M49.9542194,24.531907 C49.9542194,37.926 38.8904101,48.7846279 25.2432263,48.7846279 C11.5960425,48.7846279 0.532233202,37.926 0.532233202,24.531907 C0.532233202,11.1366744 11.5960425,0.279186047 25.2432263,0.279186047 C38.8904101,0.279186047 49.9542194,11.1366744 49.9542194,24.531907" id="Fill-9" fill="#FFFFFF" mask="url(#mask-2)"></path>
                    </g>
                    <path d="M116,24.5005692 C116,32.5084992 109.508499,39 101.500569,39 C93.4915008,39 87,32.5084992 87,24.5005692 C87,16.4926393 93.4915008,10 101.500569,10 C109.508499,10 116,16.4926393 116,24.5005692" id="Fill-12" fill="#297DA2"></path>
                    <g id="Group-16" transform="translate(0.000000, 54.000000)">
                        <mask id="mask-4" fill="white">
                            <use xlink:href="#path-3"></use>
                        </mask>
                        <g id="Clip-15"></g>
                        <path d="M14.3453077,7.29461538 C14.3453077,11.2569231 11.1341538,14.4680769 7.173,14.4680769 C3.21184615,14.4680769 -0.000461538462,11.2569231 -0.000461538462,7.29461538 C-0.000461538462,3.33346154 3.21184615,0.122307692 7.173,0.122307692 C11.1341538,0.122307692 14.3453077,3.33346154 14.3453077,7.29461538" id="Fill-14" fill="#E73C4A" mask="url(#mask-4)"></path>
                    </g>
                </g>
            </g>
        </g>
    </g>
</svg>