<?xml version="1.0" encoding="UTF-8"?>
<svg width="111px" height="84px" viewBox="0 0 111 84" version="1.1" xmlns="http://www.w3.org/2000/svg" xmlns:xlink="http://www.w3.org/1999/xlink">
    <!-- Generator: Sketch 63.1 (92452) - https://sketch.com -->
    <title>paso1</title>
    <desc>Created with Sketch.</desc>
    <defs>
        <polygon id="path-1" points="0.396825 0.7379625 21.4335 0.7379625 21.4335 21.7740875 0.396825 21.7740875"></polygon>
    </defs>
    <g id="Page-1" stroke="none" stroke-width="1" fill="none" fill-rule="evenodd">
        <g id="Home" transform="translate(-126.000000, -873.000000)">
            <g id="paso1" transform="translate(126.000000, 873.000000)">
                <g id="Group-16">
                    <path d="M13.0501099,66.1636413 C17.0067757,62.611126 20.6726097,59.2743285 24.3939046,56.0017001 C25.7817813,54.779755 27.3414516,54.5599414 28.937645,55.7177173 C29.1581361,55.8788229 29.4408517,55.9484533 29.678928,56.0877141 C36.6494234,60.145391 43.6158607,60.1781583 50.6688712,56.2310708 C52.2177199,55.3641042 54.3049456,53.5168508 55.5940747,56.2297055 C56.8493861,58.8688338 54.1223303,59.3507854 52.5545437,60.2095602 C44.6412121,64.5430281 36.623722,65.0249796 28.5859414,60.5754611 C27.2508203,59.8354675 26.2227635,59.8600429 25.1527729,60.9085947 C22.209284,63.7934774 19.2536208,66.6619765 16.0909936,69.7448279 C22.195757,75.2551859 28.6671037,78.6192895 36.0718179,79.1067022 C41.302733,79.4521236 46.6378065,78.5141613 51.8971285,77.8970449 C53.552841,77.7018067 55.1855574,77.096978 55.7658684,79.1435654 C56.3069509,81.0495267 54.7107575,81.6133963 53.234955,82.0926173 C30.3512231,89.5171284 5.23687848,74.4783292 0.756715322,50.6565436 C-3.4988986,28.0307624 10.6057697,6.51360618 32.7360442,1.86611889 C54.8406173,-2.77317658 76.4433364,11.6799081 81.165634,34.3288995 C81.6377285,36.5871087 81.7513558,38.9272359 81.9637307,41.234596 C82.1219973,42.949415 81.8311655,44.6287362 79.696595,44.5877771 C77.7554615,44.5522793 77.6080165,42.9439538 77.5390285,41.3438201 C76.8356212,24.9724864 66.4251938,11.4860353 51.093621,7.03105556 C35.9920082,2.64434091 19.6959558,8.63391986 10.7965012,21.84458 C1.94709684,34.9815138 2.47600499,52.6526148 12.096452,65.0795917 C12.4819733,65.5751962 12.9270136,66.0243805 13.0501099,66.1636413" id="Fill-1" fill="#51215B"></path>
                    <path d="M79.2010746,58.9037001 C79.7428205,55.6270519 78.9005539,53.0527323 76.0759288,51.3400597 C73.6636774,49.8769858 71.1746112,49.9619556 68.8405267,51.5020333 C66.196479,53.2478973 65.4660654,55.7823874 66.0078112,59.0231889 C69.6329265,59.0231889 73.1839223,59.0311548 76.7335705,59.0178783 C77.5394511,59.015223 78.3439842,58.9448574 79.2010746,58.9037001 L79.2010746,58.9037001 Z M63.5820836,77.4032202 L81.4812586,77.4032202 L81.4812586,63.4681719 L63.5820836,63.4681719 L63.5820836,77.4032202 Z M72.4427278,81.9769856 C69.0494042,81.9783132 65.6533855,81.9252071 62.2614096,81.998228 C60.1065548,82.0433682 58.9893725,81.2308445 59.0000762,79.0123359 C59.0298013,73.3220142 58.9988059,67.6303648 59.0284536,61.9387154 C59.0311489,61.3266672 59.0864016,60.3442039 59.442175,60.1662983 C61.9433697,58.9169766 61.2196943,56.545788 61.6495872,54.5689123 C62.7815934,49.3658393 67.9726507,45.6284955 73.4709668,46.0294467 C78.9571542,46.4290704 83.2749495,50.8727257 83.7156234,56.3373464 C83.8005238,57.3861925 84.6616572,58.3646729 85.1063739,59.3989148 C85.448671,60.1928514 85.9419023,61.021307 85.9526833,61.8391414 C86.0241075,67.6184159 85.9715501,73.4016734 85.9999257,79.1836032 C86.0092837,81.106045 85.1346741,82.0008833 83.1738775,81.9836238 C79.5972768,81.9504325 76.0206761,81.9743303 72.4427278,81.9769856 L72.4427278,81.9769856 Z" id="Fill-3" fill="#51215B"></path>
                    <path d="M41.1920308,22.5516415 C35.1140097,22.5820487 31.1264302,25.4705594 29.8879056,31.0392022 C28.36771,37.8841637 30.0384064,44.0203639 34.7784896,49.1941842 C38.8820514,53.6688396 43.8389109,53.6989997 47.9769912,49.259988 C52.3912196,44.5248594 54.01359,38.8479146 52.9669885,32.4622084 C51.872061,25.770789 47.9921793,22.5189867 41.1920308,22.5516415 M25.0000414,35.7304616 C24.984895,26.5220485 29.1215945,20.3543174 36.4698971,18.6283397 C49.9445468,15.4629048 59.6580585,24.5822087 57.7636821,38.6765506 C57.0097976,44.2959172 54.7743782,49.2462789 50.5175543,53.1506351 C44.9324576,58.2764735 38.1833965,58.2751025 32.5789695,53.1945042 C27.7919411,48.8555691 25.0111291,42.4465574 25.0000414,35.7304616" id="Fill-5" fill="#51215B"></path>
                    <path d="M72.0591047,67.0002012 C74.3283797,67.0233998 75.6195439,69.0300856 74.7020239,70.9491319 C74.1509348,72.1026218 73.8826035,73.3630834 73.3502688,74.5230174 C73.0978066,75.0759193 72.5236353,75.5115389 72.0951707,76 C71.5541802,75.5102501 70.8054492,75.0991179 70.5183636,74.5101292 C69.957176,73.3617946 69.7234681,72.0871561 69.2315274,70.906601 C68.4222055,68.964356 69.8230104,66.9770025 72.0591047,67.0002012" id="Fill-7" fill="#51215B"></path>
                    <path d="M109,22.4993302 C109,34.9251332 98.9264728,45 86.5006698,45 C74.0735272,45 64,34.9251332 64,22.4993302 C64,10.0735272 74.0735272,0 86.5006698,0 C98.9264728,0 109,10.0735272 109,22.4993302" id="Fill-9" fill="#FFFFFF"></path>
                    <path d="M104,27 C104,36.3890812 96.3877124,44 87,44 C77.6109188,44 70,36.3890812 70,27 C70,17.6122876 77.6109188,10 87,10 C96.3877124,10 104,17.6122876 104,27" id="Fill-11" fill="#F8B23F"></path>
                    <g id="Group-15" transform="translate(89.000000, 46.000000)">
                        <mask id="mask-2" fill="white">
                            <use xlink:href="#path-1"></use>
                        </mask>
                        <g id="Clip-14"></g>
                        <path d="M21.434325,11.2567125 C21.434325,17.0660875 16.72495,21.7740875 10.915575,21.7740875 C5.1062,21.7740875 0.396825,17.0660875 0.396825,11.2567125 C0.396825,5.4459625 5.1062,0.7379625 10.915575,0.7379625 C16.72495,0.7379625 21.434325,5.4459625 21.434325,11.2567125" id="Fill-13" fill="#E73C4A" mask="url(#mask-2)"></path>
                    </g>
                </g>
            </g>
        </g>
    </g>
</svg>