<?xml version="1.0" encoding="UTF-8"?>
<svg width="129px" height="76px" viewBox="0 0 129 76" version="1.1" xmlns="http://www.w3.org/2000/svg" xmlns:xlink="http://www.w3.org/1999/xlink">
    <!-- Generator: Sketch 63.1 (92452) - https://sketch.com -->
    <title>Paso4</title>
    <desc>Created with Sketch.</desc>
    <defs>
        <polygon id="path-1" points="0.844695732 0.0138466667 86.2285646 0.0138466667 86.2285646 67 0.844695732 67"></polygon>
        <polygon id="path-3" points="0.36465 0.2275 12.9822333 0.2275 12.9822333 12.844975 0.36465 12.844975"></polygon>
        <polygon id="path-5" points="0.16815 0.761477778 18.1165 0.761477778 18.1165 18.7090889 0.16815 18.7090889"></polygon>
    </defs>
    <g id="Page-1" stroke="none" stroke-width="1" fill="none" fill-rule="evenodd">
        <g id="Home" transform="translate(-785.000000, -881.000000)">
            <g id="Paso4" transform="translate(785.000000, 881.000000)">
                <g id="Group-34">
                    <path d="M89.7547525,43 L33.2452475,43 C32.0052707,43 31,42.028267 31,40.8296581 L31,38.1713778 C31,36.972769 32.0052707,36 33.2452475,36 L89.7547525,36 C90.9947293,36 92,36.972769 92,38.1713778 L92,40.8296581 C92,42.028267 90.9947293,43 89.7547525,43" id="Fill-1" fill="#51215B"></path>
                    <path d="M59.7766965,17.8397281 L40.2959947,17.8397281 C40.7832506,19.0321059 40.6508441,19.7076474 39.8034426,20.2338806 C39.3988083,20.4844679 38.9496855,20.6577907 38.5090367,20.7287905 C37.803575,20.8415547 37.0875207,20.8405106 36.3576961,20.8895839 C36.3841774,20.9960835 36.3937107,21.0764803 36.4212512,21.1412153 C37.828997,24.3539528 39.2325058,27.5719109 40.6614366,30.7679426 C40.751473,30.9694566 41.033234,31.0696915 41.2355511,31.1062354 C42.0490566,31.2524113 42.8922211,31.2210879 43.6760675,31.5061309 C44.7279047,31.8872324 45.7363125,32.5001271 46.0710361,34.1393854 L60.7046011,34.1393854 C60.60715,34.0391505 60.5796094,33.9952977 60.5457133,33.9785919 C60.4546177,33.933695 60.3571665,33.9065481 60.2650116,33.8626953 C57.7196293,32.6494353 55.6350215,30.6645754 54.4995035,27.1730595 C53.6722277,24.6337753 54.1308838,22.1895054 55.6996359,20.4239093 C56.8955313,19.0770028 58.3085733,18.3951966 59.7766965,17.8397281 L59.7766965,17.8397281 Z M66.2423701,17.8125812 L66.2296591,17.9316101 C66.3143992,17.9587571 66.4001986,17.9859041 66.4849388,18.0151392 C67.8852698,18.5079608 69.2252234,19.18037 70.3469712,20.4938649 C71.8659384,22.2730345 72.2917577,24.62229 71.498378,27.1281627 C70.488911,30.3158414 68.6383979,32.2641574 66.3578285,33.5431966 C66.0114532,33.7374017 65.6544853,33.8971511 65.3028136,34.0725621 C68.2793115,34.2041205 71.2282688,34.2041205 74.1761668,34.2041205 C75.926051,34.2041205 77.6759351,34.2145616 79.4258193,34.1884588 C79.6186031,34.1853264 79.9363787,34.0370623 79.9808673,33.8553865 C80.1958954,32.9804193 80.6757365,32.4980389 81.2180735,32.0970992 C82.3027474,31.2973082 83.4721615,30.9997358 84.6913605,31.1239854 C85.0568024,31.1605293 85.2495862,31.0028682 85.4349553,30.5737375 C86.4952665,28.1117177 87.5788812,25.6684919 88.6550811,23.2179573 C88.9940417,22.4453132 89.3330023,21.671625 89.6211188,21.0138335 C88.5470374,20.8091872 87.4824892,20.7381875 86.4730222,20.3769242 C85.3777557,19.9843375 85.1902681,19.216914 85.660576,17.8125812 L66.2423701,17.8125812 Z M31,16 L95,16 C94.4809666,17.075437 94.0095995,18.058992 93.5318769,19.0362823 C90.8837471,24.4635848 88.2292618,29.8835784 85.5917246,35.3202779 C85.3618669,35.7932613 85.1362463,36.0010399 84.70619,36 C70.2336312,35.98329 55.7610725,35.9843341 41.2885137,36 C40.8637537,36.0010399 40.6233035,35.8057907 40.3902681,35.3244543 C37.3819927,29.1245078 34.3578285,22.9391789 31.3379014,16.7486294 C31.2340947,16.533542 31.138762,16.3080135 31,16 L31,16 Z" id="Fill-3" fill="#51215B"></path>
                    <path d="M31,6 L95,6 C94.568902,7.79422836 94.3926403,7.99874529 93.3127717,7.99874529 C73.0947009,7.99874529 52.8766301,8 32.6585592,8 C31.5988652,8 31.4438398,7.81806775 31,6" id="Fill-5" fill="#51215B"></path>
                    <path d="M95,9 C94.7508531,9.59938204 94.5727396,10.1779692 94.3055694,10.6109921 C94.1571414,10.8519682 93.8581652,10.9412639 93.6259815,10.9424871 C88.5677699,10.9608355 83.5084982,10.9559426 78.4502866,10.9571659 C63.2735315,10.9571659 48.0978365,10.9388174 32.9200212,10.9999789 C31.9202531,11.0036485 31.3286618,10.5302591 31,9 L95,9 Z" id="Fill-7" fill="#51215B"></path>
                    <path d="M31,13 L95,13 C94.6395501,14.6790089 94.4052577,14.9666626 93.3885769,14.9666626 C73.0804055,14.9678972 52.7722341,14.9580206 32.4640627,15 C31.5671785,15.002465 31.4876675,13.9024673 31,13" id="Fill-9" fill="#51215B"></path>
                    <path d="M75.7871558,27 C75.570274,26.941803 75.1235446,26.9142917 74.7463589,26.6942014 C74.4540399,26.5227849 74.1393255,26.16408 74.0320633,25.7979681 C73.88944,25.3059393 74.2501239,24.9683969 74.5719104,24.7366671 C75.4441525,24.109198 76.3989039,23.9049796 77.3878378,24.0393617 C77.7756319,24.0912099 78.1740343,24.2171269 78.5241099,24.4234616 C79.1004968,24.7652365 79.155896,25.3747175 78.6761629,25.9058971 C77.9158978,26.7449915 76.9752909,26.9439193 75.7871558,27" id="Fill-11" fill="#51215B"></path>
                    <path d="M49.3729427,27 C48.6399439,26.9111011 47.9450724,26.7126291 47.3636299,26.0376176 C47.1815717,25.8288085 46.9709179,25.3936174 47.0033262,25.1238195 C47.0405004,24.8116396 47.2978602,24.4343361 47.5151862,24.317527 C48.5503445,23.761392 49.5635796,23.959864 50.5282023,24.7248081 C50.7931875,24.9356846 51.0286241,25.2375274 50.997169,25.7605838 C50.9638076,26.3094829 50.6835713,26.5451684 50.382365,26.677483 C50.0525632,26.8201348 49.71037,26.8945618 49.3729427,27" id="Fill-13" fill="#51215B"></path>
                    <path d="M97.786,12.498 C97.486,12.498 97.265,12.497 97.101,12.497 C97.101,12.498 97.101,12.499 97.102,12.499 C97.349,12.5 97.672,12.502 97.899,12.503 C97.859,12.502 97.827,12.498 97.786,12.498" id="Fill-15" fill="#51215B"></path>
                    <polygon id="Fill-17" fill="#51215B" points="96.5045 12.5075 96.5015 12.4925 96.4955 12.5075"></polygon>
                    <g id="Group-21" transform="translate(17.000000, 9.000000)">
                        <mask id="mask-2" fill="white">
                            <use xlink:href="#path-1"></use>
                        </mask>
                        <g id="Clip-20"></g>
                        <path d="M82.5077232,50.2299 C82.4345159,51.3497571 81.8064183,51.9719 80.6923939,52.0803762 C80.4886866,52.1005825 80.2817963,52.0952651 80.077028,52.0952651 C55.7255159,52.0963286 31.3740037,52.0973921 7.02249146,52.0942016 C5.14668659,52.0942016 4.5589061,51.496519 4.55100772,49.6385984 C4.55100772,49.2642492 4.55100772,48.8899 4.55100772,48.4347254 L82.51515,48.4347254 C82.51515,49.0770746 82.5459183,49.6556143 82.5077232,50.2299 L82.5077232,50.2299 Z M34.62165,63.2130111 C34.883711,61.5699159 35.1181866,59.9906302 35.3897963,58.4166619 C35.8343451,55.8355667 35.8449549,55.8376937 38.4560159,55.8376937 C42.4187598,55.8376937 46.3815037,55.8493921 50.3442476,55.8270587 C50.9903817,55.8228048 51.2959427,55.9493603 51.3977963,56.6831698 C51.6938085,58.8431222 52.0948573,60.9871222 52.4693817,63.2130111 L34.62165,63.2130111 Z M80.6722354,0.0383920635 L79.2706866,3.72977302 L79.2738695,3.7457254 C79.4468085,3.7457254 79.6823451,3.74678889 80.0006378,3.74678889 C80.0441378,3.74678889 80.078089,3.75104286 80.120528,3.75210635 C79.8786256,3.75104286 79.5369915,3.74891587 79.2749305,3.74785238 C79.2749305,3.75104286 79.2759915,3.75423333 79.2759915,3.75636032 L80.208589,3.75636032 C81.9761744,3.80209048 82.5204549,4.39445556 82.5204549,6.24705873 C82.5225768,18.6580111 82.5215159,31.0689635 82.5215159,43.4799159 L82.5215159,44.5614873 L4.55147927,44.5614873 L4.55147927,43.4724714 C4.55147927,31.061519 4.55041829,18.6505667 4.55254024,6.23961429 C4.55254024,4.31469365 5.12546707,3.74997937 7.0776622,3.74678889 C10.2934793,3.74147143 11.9942232,3.7446619 12.34965,3.7446619 C11.1507476,1.51877302 11.4414549,2.31745556 10.394272,0.0149952381 C9.89349146,0.0149952381 10.4876378,0.0118047619 7.06705244,0.0160587302 C3.0926378,0.0203126984 0.844695732,2.27916984 0.844695732,6.27258254 C0.844695732,20.6382333 0.844695732,35.0038841 0.844695732,49.3684714 C0.844695732,53.6181857 3.05232073,55.8355667 7.28879634,55.8366302 C15.1209183,55.8387571 22.9551622,55.8376937 30.7894061,55.8376937 L32.0668207,55.8376937 C31.6350037,58.397519 31.227589,60.8127095 30.8116866,63.2757571 C29.3984671,63.2757571 28.1008939,63.2417254 26.8043817,63.2842651 C25.4389061,63.3289317 24.5636012,64.5944873 25.1195524,65.7866619 C25.3455402,66.2684238 25.8919427,66.6002333 26.2929915,67.0001063 L60.7800037,67.0001063 C61.9481378,66.2078048 62.2908329,65.5420587 62.0234671,64.5849159 C61.763528,63.6532968 61.0802598,63.2736302 59.6500646,63.2715032 C58.5317963,63.2693762 57.41565,63.2715032 56.2517598,63.2715032 C55.8326744,60.7637889 55.4316256,58.3709317 55.0082963,55.8376937 L56.286772,55.8376937 C64.2568207,55.8376937 72.2279305,55.8504556 80.1979793,55.8323762 C83.8954793,55.8228048 86.2243207,53.4629159 86.2253817,49.7757889 C86.2296256,35.2048841 86.2296256,20.6339794 86.2253817,6.0630746 C86.2243207,2.51739206 84.0981256,0.239392063 80.6722354,0.0383920635 L80.6722354,0.0383920635 Z" id="Fill-19" fill="#51215B" mask="url(#mask-2)"></path>
                    </g>
                    <path d="M96.4955,12.499 L96.4945,12.501 L96.5055,12.501 C96.5045,12.501 96.5045,12.5 96.5045,12.499 L96.4955,12.499 Z" id="Fill-22" fill="#51215B"></path>
                    <path d="M36,57.0005358 C36,66.9411782 27.9401066,75 17.9994642,75 C8.05882178,75 0,66.9411782 0,57.0005358 C0,47.0598934 8.05882178,39 17.9994642,39 C27.9401066,39 36,47.0598934 36,57.0005358" id="Fill-24" fill="#FFFFFF"></path>
                    <path d="M30,57.0005357 C30,63.628097 24.6270256,69 17.9994643,69 C11.371903,69 6,63.628097 6,57.0005357 C6,50.371903 11.371903,45 17.9994643,45 C24.6270256,45 30,50.371903 30,57.0005357" id="Fill-26" fill="#E73C4A"></path>
                    <g id="Group-30" transform="translate(103.000000, 0.000000)">
                        <mask id="mask-4" fill="white">
                            <use xlink:href="#path-3"></use>
                        </mask>
                        <g id="Clip-29"></g>
                        <path d="M12.9822333,6.53564167 C12.9822333,10.020725 10.1579833,12.844975 6.6729,12.844975 C3.1889,12.844975 0.36465,10.020725 0.36465,6.53564167 C0.36465,3.05164167 3.1889,0.227391667 6.6729,0.227391667 C10.1579833,0.227391667 12.9822333,3.05164167 12.9822333,6.53564167" id="Fill-28" fill="#F8B23F" mask="url(#mask-4)"></path>
                    </g>
                    <g id="Group-33" transform="translate(110.000000, 13.000000)">
                        <mask id="mask-6" fill="white">
                            <use xlink:href="#path-5"></use>
                        </mask>
                        <g id="Clip-32"></g>
                        <path d="M18.1168167,9.73475556 C18.1168167,14.6905889 14.0983167,18.7090889 9.14248333,18.7090889 C4.18665,18.7090889 0.16815,14.6905889 0.16815,9.73475556 C0.16815,4.77892222 4.18665,0.761477778 9.14248333,0.761477778 C14.0983167,0.761477778 18.1168167,4.77892222 18.1168167,9.73475556" id="Fill-31" fill="#297DA2" mask="url(#mask-6)"></path>
                    </g>
                </g>
            </g>
        </g>
    </g>
</svg>