<?xml version="1.0" encoding="UTF-8"?>
<svg width="402px" height="295px" viewBox="0 0 402 295" version="1.1" xmlns="http://www.w3.org/2000/svg" xmlns:xlink="http://www.w3.org/1999/xlink">
    <!-- Generator: Sketch 63.1 (92452) - https://sketch.com -->
    <title>Group 47</title>
    <desc>Created with Sketch.</desc>
    <defs>
        <polygon id="path-1" points="0.00909763314 0.485301554 124.713979 0.485301554 124.713979 142 0.00909763314 142"></polygon>
        <polygon id="path-3" points="0.57115102 0.196475479 35.325551 0.196475479 35.325551 192.909564 0.57115102 192.909564"></polygon>
    </defs>
    <g id="Page-1" stroke="none" stroke-width="1" fill="none" fill-rule="evenodd">
        <g id="Home" transform="translate(-323.000000, -1451.000000)">
            <g id="Group-47" transform="translate(323.000000, 1451.000000)">
                <path d="M65.026941,263.487392 L34.9453507,143.839135 L34.9453507,273.47878 C34.9453507,280.652766 33.345274,286.033256 30.1458593,289.620249 C26.9457058,293.207243 22.6987801,295 17.4087757,295 C12.2879392,295 8.10602121,293.227203 4.8644992,289.683828 C1.62002228,286.141191 0,280.739262 0,273.47878 L0,124.880264 C0,116.681633 2.13195819,111.152547 6.40030692,108.290789 C10.6664395,105.430509 16.4262725,104 23.6812833,104 L35.4572866,104 C42.5401748,104 47.6824343,104.640218 50.8825877,105.921392 C54.0827412,107.202567 56.4503524,109.507646 57.9861601,112.838848 C59.5227066,116.169311 61.2705282,121.593418 63.234796,129.107474 L90.5003694,231.974044 L117.765204,129.107474 C119.727256,121.593418 121.478032,116.169311 123.01384,112.838848 C124.549648,109.507646 126.917998,107.202567 130.118151,105.921392 C133.318304,104.640218 138.458348,104 145.542713,104 L157.319455,104 C164.571511,104 170.332083,105.430509 174.599693,108.290789 C178.865826,111.152547 181,116.681633 181,124.880264 L181,273.47878 C181,280.652766 179.399923,286.033256 176.19977,289.620249 C172.999616,293.207243 168.711322,295 163.335626,295 C158.299004,295 154.161409,293.207243 150.919148,289.620249 C147.674672,286.033256 146.054649,280.652766 146.054649,273.47878 L146.054649,143.839135 L115.973059,263.487392 C114.008791,271.259457 112.408714,276.960056 111.172829,280.589188 C109.935466,284.21906 107.652808,287.528083 104.324855,290.516998 C100.996164,293.505173 96.3887404,295 90.5003694,295 C86.0621141,295 82.3079174,294.038934 79.2355632,292.117542 C76.1632091,290.196889 73.7734361,287.743214 72.0669831,284.752081 C70.3590526,281.763167 69.0153132,278.454883 68.0350261,274.824272 C67.0532616,271.195139 66.0508128,267.415194 65.026941,263.487392" id="Fill-1" fill="#FFFFFF"></path>
                <g id="Group-5" transform="translate(190.000000, 153.000000)">
                    <mask id="mask-2" fill="white">
                        <use xlink:href="#path-1"></use>
                    </mask>
                    <g id="Clip-4"></g>
                    <path d="M91.9033284,122.366918 L91.9033284,117.904587 C87.7161982,123.175509 83.3167899,127.593695 78.7028846,131.162825 C74.0889793,134.733426 69.0468195,137.390224 63.5793639,139.131011 C58.110429,140.872535 51.8715237,141.745136 44.8678254,141.745136 C36.4085059,141.745136 28.8241864,140.002141 22.1178254,136.517623 C15.4092456,133.03384 10.2184172,128.230856 6.54607988,122.110877 C2.18809172,114.717312 0.00909763314,104.093063 0.00909763314,90.2388663 L0.00909763314,21.2665969 C0.00909763314,14.2982964 1.58897929,9.0906487 4.75170118,5.64806839 C7.9114645,2.20695959 12.0985947,0.485301554 17.3116124,0.485301554 C22.6082101,0.485301554 26.8803994,2.22829637 30.1281805,5.71207876 C33.3737426,9.19880415 34.998003,14.3814363 34.998003,21.2665969 L34.998003,76.9798922 C34.998003,85.0554984 35.6814349,91.8325036 37.0490385,97.3145865 C38.4151627,102.796669 40.8715237,107.089042 44.4181213,110.190234 C47.9632396,113.295105 52.7694527,114.843861 58.8375,114.843861 C64.7324704,114.843861 70.2857249,113.103074 75.4987426,109.61782 C80.7088018,106.134037 84.5127959,101.585623 86.9055473,95.9762549 C88.8700444,91.047457 89.8537722,80.252514 89.8537722,63.5928974 L89.8537722,21.2665969 C89.8537722,14.3814363 91.4758136,9.19880415 94.7235947,5.71207876 C97.9691568,2.22829637 102.199186,0.485301554 107.412204,0.485301554 C112.623003,0.485301554 116.810133,2.20695959 119.972115,5.64806839 C123.132618,9.0906487 124.713979,14.2982964 124.713979,21.2665969 L124.713979,122.110877 C124.713979,128.741467 123.196228,133.712939 120.164423,137.028234 C117.130399,140.342794 113.221376,142.000441 108.437352,142.000441 C103.651109,142.000441 99.7006657,140.278783 96.5815828,136.836939 C93.4617604,133.394359 91.9033284,128.571509 91.9033284,122.366918" id="Fill-3" fill="#FFFFFF" mask="url(#mask-2)"></path>
                </g>
                <path d="M359,172.450643 L359,273.698402 C359,280.71451 357.333016,286.018434 354.000528,289.610912 C350.666561,293.204872 346.435841,295 341.306887,295 C336.178674,295 332.012325,293.160438 328.807099,289.482054 C325.601873,285.805151 324,280.54344 324,273.698402 L324,173.477066 C324,166.546863 325.601873,161.330326 328.807099,157.820791 C332.012325,154.314959 336.178674,152.559821 341.306887,152.559821 C346.435841,152.559821 350.666561,154.314959 354.000528,157.820791 C357.333016,161.330326 359,166.206203 359,172.450643 M341.691633,136.262958 C336.819423,136.262958 332.653814,134.767018 329.191844,131.771434 C325.730615,128.777332 324,124.543524 324,119.06705 C324,114.106749 325.772049,110.020314 329.319846,106.812188 C332.865424,103.604063 336.990339,102 341.691633,102 C346.221271,102 350.237422,103.45595 353.743785,106.363406 C357.247928,109.272344 359,113.506891 359,119.06705 C359,124.456878 357.288623,128.672172 353.871787,131.707005 C350.452731,134.744801 346.391447,136.262958 341.691633,136.262958" id="Fill-6" fill="#FFFFFF"></path>
                <g id="Group-10" transform="translate(366.000000, 102.000000)">
                    <mask id="mask-4" fill="white">
                        <use xlink:href="#path-3"></use>
                    </mask>
                    <g id="Clip-9"></g>
                    <path d="M35.3258449,70.5423874 L35.3258449,171.639633 C35.3258449,178.645311 33.6705796,183.941349 30.3615184,187.528487 C27.0509878,191.117104 22.8492735,192.909564 17.7571102,192.909564 C12.6649469,192.909564 8.52788571,191.072736 5.34519184,187.39982 C2.16249796,183.728384 0.57115102,178.474495 0.57115102,171.639633 L0.57115102,71.5672839 C0.57115102,64.6473835 2.16249796,59.4386019 5.34519184,55.9342839 C8.52788571,52.4336632 12.6649469,50.6811345 17.7571102,50.6811345 C22.8492735,50.6811345 27.0509878,52.4336632 30.3615184,55.9342839 C33.6705796,59.4386019 35.3258449,64.3072303 35.3258449,70.5423874 M18.139151,34.4084985 C13.3011918,34.4084985 9.16413061,32.914782 5.72723265,29.9236517 C2.29033469,26.9340004 0.57115102,22.706487 0.57115102,17.2381536 C0.57115102,12.2852264 2.33074286,8.20486628 5.8536,5.00150996 C9.37498776,1.79815364 13.4709061,0.196475479 18.139151,0.196475479 C22.6369469,0.196475479 26.6248653,1.65026092 30.1065796,4.55339502 C33.5853551,7.45800805 35.3258449,11.6862609 35.3258449,17.2381536 C35.3258449,22.6199697 33.626498,26.8289966 30.2336816,29.8593184 C26.8379265,32.8925981 22.8051918,34.4084985 18.139151,34.4084985" id="Fill-8" fill="#FFFFFF" mask="url(#mask-4)"></path>
                </g>
                <path d="M179,55.9996315 C179,76.4351017 162.434365,93 141.999632,93 C121.565635,93 105,76.4351017 105,55.9996315 C105,35.5648983 121.565635,19 141.999632,19 C162.434365,19 179,35.5648983 179,55.9996315" id="Fill-11" fill="#FFFFFF"></path>
                <path d="M191.198836,62.7249463 L195.910733,62.7249463 L196.801164,57.238755 L192.089267,57.238755 L191.198836,62.7249463 Z M187.655023,71.6384646 C187.395283,71.3988929 187.265413,71.0976134 187.265413,70.7368039 C187.265413,70.6409752 187.562472,68.8122448 188.155844,65.2506125 L185.299448,65.2506125 C184.952381,65.2506125 184.650097,65.1250189 184.38961,64.8723797 C184.130617,64.6190145 184,64.3249947 184,63.9874164 C184,63.6512901 184.130617,63.3565444 184.38961,63.1031792 C184.650097,62.8512659 184.952381,62.7249463 185.299448,62.7249463 L188.564114,62.7249463 L189.455292,57.238755 L186.597403,57.238755 C186.251082,57.238755 185.948052,57.1131613 185.689058,56.8605221 C185.429318,56.6071569 185.299448,56.3131371 185.299448,55.9755588 C185.299448,55.6387066 185.429318,55.3439608 185.689058,55.0913216 C185.948052,54.8394083 186.251082,54.7130887 186.597403,54.7130887 L189.862815,54.7130887 L190.790566,49.0098309 C190.839827,48.7216189 190.981639,48.4813213 191.217495,48.288212 C191.451858,48.0965546 191.742947,48 192.089267,48 C192.484848,48 192.800567,48.1205118 193.034931,48.3608095 C193.27004,48.6018331 193.387968,48.9023866 193.387968,49.2631961 C193.387968,49.4316223 193.090909,51.2480111 192.497537,54.7130887 L197.209434,54.7130887 L198.137185,49.0098309 C198.186446,48.7216189 198.328258,48.4813213 198.564114,48.288212 C198.799224,48.0965546 199.089566,48 199.435886,48 C199.831467,48 200.14644,48.1205118 200.382296,48.3608095 C200.616659,48.6018331 200.734587,48.9023866 200.734587,49.2631961 C200.734587,49.4316223 200.437528,51.2480111 199.844156,54.7130887 L202.701299,54.7130887 C203.047619,54.7130887 203.350649,54.8394083 203.61039,55.0913216 C203.87013,55.3439608 204,55.6387066 204,55.9755588 C204,56.3131371 203.87013,56.6071569 203.61039,56.8605221 C203.350649,57.1131613 203.047619,57.238755 202.701299,57.238755 L199.435886,57.238755 L198.545455,62.7249463 L201.402597,62.7249463 C201.748918,62.7249463 202.051948,62.8512659 202.311688,63.1031792 C202.571429,63.3565444 202.701299,63.6512901 202.701299,63.9874164 C202.701299,64.3249947 202.571429,64.6190145 202.311688,64.8723797 C202.051948,65.1250189 201.748918,65.2506125 201.402597,65.2506125 L198.137185,65.2506125 L197.209434,70.9531444 C197.159427,71.2420823 197.011644,71.4889138 196.764592,71.6936386 C196.516794,71.8976376 196.232423,72 195.910733,72 C195.564413,72 195.261382,71.8787622 195.001642,71.6384646 C194.742648,71.3988929 194.612032,71.0976134 194.612032,70.7368039 C194.612032,70.6409752 194.909091,68.8122448 195.503209,65.2506125 L190.790566,65.2506125 L189.862815,70.9531444 C189.813554,71.2420823 189.664278,71.4889138 189.417973,71.6936386 C189.170175,71.8976376 188.885057,72 188.564114,72 C188.217794,72 187.914763,71.8787622 187.655023,71.6384646 L187.655023,71.6384646 Z" id="Fill-13" fill="#F8B23F"></path>
                <path d="M208.019191,70.1951589 C207.728516,70.0695915 207.485434,69.8630862 207.291407,69.5748865 C207.096647,69.2866868 207,68.9795764 207,68.6527988 C207,68.2269289 207.139114,67.8570348 207.418805,67.5438729 C207.697765,67.230711 208.0558,67.0733737 208.492177,67.0733737 C208.734528,67.0733737 208.965164,67.1240545 209.184085,67.2239032 C211.416493,68.2526475 213.80632,68.7655068 216.354297,68.7655068 C220.600925,68.7655068 222.724239,67.3245083 222.724239,64.4417549 C222.724239,63.6891074 222.451137,63.0627837 221.904933,62.5612708 C221.359461,62.0597579 220.685857,61.6656581 219.885588,61.376702 C219.084586,61.0885023 217.943854,60.7435703 216.463391,60.3426626 C214.498227,59.8161876 212.908671,59.3078669 211.695453,58.8199697 C210.481503,58.3305598 209.438882,57.5975794 208.565395,56.6202723 C207.691908,55.6422088 207.254798,54.3388805 207.254798,52.7087746 C207.254798,51.279879 207.61869,49.9826021 208.346474,48.816944 C209.07499,47.6505295 210.148362,46.7239032 211.568054,46.0347958 C212.987746,45.3449319 214.692254,45 216.682312,45 C219.351098,45 221.765087,45.413767 223.925742,46.2413011 C224.60447,46.4916793 224.944933,46.9931921 224.944933,47.7450832 C224.944933,48.1467474 224.810944,48.5098336 224.544432,48.8358548 C224.277187,49.1611195 223.925742,49.3245083 223.488632,49.3245083 C223.342929,49.3245083 223.148902,49.274584 222.906551,49.1739788 C221.013873,48.4969743 219.060424,48.1588502 217.046204,48.1588502 C215.128632,48.1588502 213.569827,48.5347958 212.369056,49.2866868 C211.167553,50.0393343 210.567168,51.091528 210.567168,52.4455371 C210.567168,53.3487141 210.851985,54.080938 211.422351,54.6452345 C211.992717,55.209531 212.708054,55.6490166 213.569827,55.9621785 C214.430867,56.2753404 215.601618,56.607413 217.082081,56.9583964 C218.998921,57.434947 220.546012,57.9114977 221.723353,58.387292 C222.899961,58.8638427 223.907437,59.6036309 224.744316,60.6059002 C225.581195,61.6081694 226,62.9621785 226,64.6664145 C226,66.0711044 225.611946,67.3313162 224.835106,68.4455371 C224.058266,69.5620272 222.96659,70.4334342 221.559345,71.0597579 C220.1521,71.6860817 218.525934,72 216.682312,72 C213.600578,72 210.712871,71.3986384 208.019191,70.1951589" id="Fill-15" fill="#F8B23F"></path>
                <path d="M241.413114,68.3437963 C242.340981,67.8894751 243.10761,67.1726572 243.713747,66.1926216 C244.319884,65.2125859 244.622952,63.9700535 244.622952,62.4643033 C244.622952,60.9823509 244.319884,59.752078 243.713747,58.7720424 C243.10761,57.7920067 242.340981,57.080958 241.413114,56.6388963 C240.485247,56.1961134 239.514085,55.9754431 238.500373,55.9754431 C237.461282,55.9754431 236.477429,56.1961134 235.550308,56.6388963 C234.621695,57.080958 233.861038,57.7920067 233.267591,58.7720424 C232.673398,59.752078 232.377048,60.9823509 232.377048,62.4643033 C232.377048,63.9700535 232.673398,65.2125859 233.267591,66.1926216 C233.861038,67.1726572 234.621695,67.8894751 235.550308,68.3437963 C236.477429,68.7981174 237.461282,69.0245569 238.500373,69.0245569 C239.514085,69.0245569 240.485247,68.7981174 241.413114,68.3437963 M233.49004,70.8173227 C232.055318,70.0283903 230.948297,68.9113372 230.168978,67.4647208 C229.389659,66.0195468 229,64.3637985 229,62.4996394 C229,60.6362015 229.389659,58.9811743 230.168978,57.5352792 C230.948297,56.089384 232.055318,54.9716097 233.49004,54.1826773 C234.924763,53.3944662 236.594625,53 238.500373,53 C240.379994,53 242.037167,53.3944662 243.472636,54.1826773 C244.907359,54.9716097 246.020351,56.089384 246.81236,57.5352792 C247.603622,58.9811743 248,60.6362015 248,62.4996394 C248,64.3637985 247.603622,66.0195468 246.81236,67.4647208 C246.020351,68.9113372 244.907359,70.0283903 243.472636,70.8173227 C242.037167,71.6055338 240.379994,72 238.500373,72 C236.594625,72 234.924763,71.6055338 233.49004,70.8173227" id="Fill-17" fill="#F8B23F"></path>
                <path d="M252.475625,71.5297138 C252.158296,71.215947 252,70.8301084 252,70.3714702 L252,54.845473 C252,54.3875627 252.158296,53.9951722 252.475625,53.6697575 C252.792217,53.3443427 253.183171,53.1805433 253.647016,53.1805433 C254.110124,53.1805433 254.506968,53.3443427 254.836813,53.6697575 C255.165922,53.9951722 255.330108,54.3875627 255.330108,54.845473 L255.330108,56.3291314 C256.013358,55.364535 256.836498,54.5681061 257.800999,53.9405724 C258.764765,53.3137668 260.015672,53 261.552984,53 C262.918748,53 264.090139,53.3618146 265.066421,54.0854439 C266.041967,54.8090731 266.737733,55.6899498 267.152984,56.7273459 C268.665264,54.2426913 270.910124,53 273.887562,53 C275.253326,53 276.394531,53.3385187 277.309703,54.0126442 C278.224875,54.6889536 278.902235,55.5581823 279.341047,56.6196023 C279.779858,57.6810223 280,58.7904901 280,59.9487337 L280,70.3714702 C280,70.8301084 279.835078,71.215947 279.505969,71.5297138 C279.176124,71.8427526 278.77928,72 278.316171,72 C277.852327,72 277.462109,71.8427526 277.14478,71.5297138 C276.827452,71.215947 276.669156,70.8301084 276.669156,70.3714702 L276.669156,60.5995632 C276.669156,59.0321851 276.388641,57.8797655 275.82761,57.1437603 C275.265843,56.4084831 274.302077,56.0401165 272.935577,56.0401165 C271.691296,56.0401165 270.660531,56.3597073 269.842545,56.9988888 C269.025296,57.6387984 268.299343,58.4767232 267.665422,59.5141193 L267.665422,70.3714702 C267.665422,70.8301084 267.5005,71.215947 267.170655,71.5297138 C266.841546,71.8427526 266.444702,72 265.981593,72 C265.517749,72 265.127531,71.8427526 264.810202,71.5297138 C264.492874,71.215947 264.334578,70.8301084 264.334578,70.3714702 L264.334578,60.5995632 C264.334578,59.0321851 264.054063,57.8797655 263.492296,57.1437603 C262.931265,56.4084831 261.967499,56.0401165 260.600999,56.0401165 C259.356718,56.0401165 258.325217,56.3597073 257.507967,56.9988888 C256.690718,57.6387984 255.964765,58.4767232 255.330108,59.5141193 L255.330108,70.3714702 C255.330108,70.8301084 255.165922,71.215947 254.836813,71.5297138 C254.506968,71.8427526 254.110124,72 253.647016,72 C253.183171,72 252.792217,71.8427526 252.475625,71.5297138" id="Fill-19" fill="#F8B23F"></path>
                <path d="M297.413114,68.3437963 C298.340981,67.8894751 299.10761,67.1726572 299.713747,66.1926216 C300.319884,65.2125859 300.622952,63.9700535 300.622952,62.4643033 C300.622952,60.9823509 300.319884,59.752078 299.713747,58.7720424 C299.10761,57.7920067 298.340981,57.080958 297.413114,56.6388963 C296.485247,56.1961134 295.514085,55.9754431 294.500373,55.9754431 C293.461282,55.9754431 292.477429,56.1961134 291.550308,56.6388963 C290.621695,57.080958 289.861038,57.7920067 289.267591,58.7720424 C288.673398,59.752078 288.377048,60.9823509 288.377048,62.4643033 C288.377048,63.9700535 288.673398,65.2125859 289.267591,66.1926216 C289.861038,67.1726572 290.621695,67.8894751 291.550308,68.3437963 C292.477429,68.7981174 293.461282,69.0245569 294.500373,69.0245569 C295.514085,69.0245569 296.485247,68.7981174 297.413114,68.3437963 M289.49004,70.8173227 C288.055318,70.0283903 286.948297,68.9113372 286.168978,67.4647208 C285.389659,66.0195468 285,64.3637985 285,62.4996394 C285,60.6362015 285.389659,58.9811743 286.168978,57.5352792 C286.948297,56.089384 288.055318,54.9716097 289.49004,54.1826773 C290.924763,53.3944662 292.594625,53 294.500373,53 C296.379994,53 298.037167,53.3944662 299.472636,54.1826773 C300.907359,54.9716097 302.020351,56.089384 302.81236,57.5352792 C303.603622,58.9811743 304,60.6362015 304,62.4996394 C304,64.3637985 303.603622,66.0195468 302.81236,67.4647208 C302.020351,68.9113372 300.907359,70.0283903 299.472636,70.8173227 C298.037167,71.6055338 296.379994,72 294.500373,72 C292.594625,72 290.924763,71.6055338 289.49004,70.8173227" id="Fill-21" fill="#F8B23F"></path>
                <path d="M306.6504,70.3867993 C306.216287,70.1005048 306,69.7060386 306,69.2034008 C306,68.8219152 306.140086,68.4865829 306.421028,68.2002885 C306.701201,67.9132729 307.058344,67.7697651 307.492457,67.7697651 C307.721829,67.7697651 307.951201,67.8180818 308.181342,67.9132729 C308.997229,68.247884 309.813116,68.5103807 310.629772,68.7022052 C311.445659,68.8940297 312.364686,68.9892208 313.385314,68.9892208 C316.216287,68.9892208 317.632543,68.1411546 317.632543,66.4435799 C317.632543,65.8940676 317.306958,65.4750826 316.656558,65.1887881 C316.006158,64.9024936 314.940887,64.5794208 313.461515,64.2202907 C311.955973,63.8864007 310.712131,63.5395301 309.730757,63.1811212 C308.748615,62.8227123 307.906558,62.2796903 307.205357,61.5498918 C306.503387,60.8208145 306.153171,59.8588075 306.153171,58.6638706 C306.153171,56.991536 306.796644,55.6292937 308.085129,54.5771435 C309.373615,53.5257145 311.216287,53 313.614686,53 C315.578972,53 317.427802,53.2992751 319.162716,53.8963829 C319.519858,53.9922951 319.794643,54.171139 319.98553,54.4336357 C320.177186,54.6968535 320.272629,54.9716097 320.272629,55.2579041 C320.272629,55.640832 320.125616,55.9754431 319.832358,56.2617376 C319.539101,56.5494743 319.175031,56.692261 318.741687,56.692261 C318.613916,56.692261 318.44843,56.6691843 318.244458,56.6201465 C316.765086,56.1903443 315.310345,55.9754431 313.882543,55.9754431 C312.504772,55.9754431 311.427186,56.2083729 310.649015,56.6742324 C309.870844,57.140813 309.482143,57.7444111 309.482143,58.4850268 C309.482143,59.2018446 309.839286,59.7282803 310.553571,60.0621703 C311.267857,60.3967814 312.377001,60.7198543 313.882543,61.0299465 C315.387315,61.3883554 316.611915,61.7417163 317.555573,62.0878658 C318.49923,62.4347364 319.309729,62.9784795 319.98553,63.7190952 C320.66133,64.4597108 321,65.4520059 321,66.6945383 C321,68.2240862 320.354988,69.4911375 319.067272,70.4942498 C317.778787,71.4980833 315.961515,72 313.614686,72 C311.063116,72 308.741687,71.462026 306.6504,70.3867993" id="Fill-23" fill="#F8B23F"></path>
                <path d="M327.488144,71.5044464 C327.162463,71.1738216 327,70.7672529 327,70.2839731 L327,47.5168906 C327,46.8310936 327.237271,46.2396511 327.713325,45.7440975 C328.189379,45.2477768 328.765178,45 329.441477,45 L330.681484,45 C331.181719,45 331.639637,45.1526551 332.052217,45.4579652 C332.465553,45.7625082 332.772344,46.1437623 332.972588,46.6017274 L341.5,68.186692 L350.027412,46.6017274 C350.227656,46.1437623 350.534447,45.7625082 350.947783,45.4579652 C351.361118,45.1526551 351.817526,45 352.318516,45 L353.558523,45 C354.234822,45 354.810621,45.2477768 355.286675,45.7440975 C355.761973,46.2396511 356,46.8310936 356,47.5168906 L356,70.2839731 C356,70.7672529 355.836781,71.1738216 355.511856,71.5044464 C355.186174,71.8343041 354.784929,72 354.309631,72 C353.833577,72 353.427042,71.8343041 353.088514,71.5044464 C352.750743,71.1738216 352.581479,70.7672529 352.581479,70.2839731 L352.581479,48.6230645 L343.90445,70.3982726 C343.70345,70.8815524 343.384569,71.2689434 342.946297,71.5612126 C342.508025,71.8534818 342.025926,72 341.5,72 C340.974074,72 340.491219,71.8534818 340.053703,71.5612126 C339.615431,71.2689434 339.295794,70.8815524 339.09555,70.3982726 L330.418521,48.6230645 L330.418521,70.2839731 C330.418521,70.7672529 330.249257,71.1738216 329.911486,71.5044464 C329.572958,71.8343041 329.165668,72 328.690369,72 C328.214315,72 327.813826,71.8343041 327.488144,71.5044464" id="Fill-25" fill="#F8B23F"></path>
                <path d="M364.11293,71.0594636 C363.106533,70.431954 362.335613,69.5751341 361.801667,68.4897318 C361.266973,67.4043295 361,66.2097318 361,64.9073946 L361,54.6291954 C361,54.1713027 361.167983,53.7854789 361.503948,53.4709962 C361.839164,53.1579693 362.242622,53 362.715073,53 C363.186775,53 363.584234,53.1579693 363.908201,53.4709962 C364.230667,53.7854789 364.392651,54.1713027 364.392651,54.6291954 L364.392651,64.5448659 C364.392651,67.4887739 365.75901,68.96 368.493229,68.96 C369.735851,68.96 370.847986,68.6469732 371.830385,68.0187356 C372.812034,67.391954 373.737439,66.5482375 374.607349,65.4861303 L374.607349,54.6291954 C374.607349,54.1713027 374.775332,53.7854789 375.111297,53.4709962 C375.446513,53.1579693 375.849971,53 376.322423,53 C376.794124,53 377.192333,53.1579693 377.51555,53.4709962 C377.838017,53.7854789 378,54.1713027 378,54.6291954 L378,70.1545977 C378,70.6132184 377.838017,71.0048659 377.51555,71.3302682 C377.192333,71.6556705 376.794124,71.8194636 376.322423,71.8194636 C375.849971,71.8194636 375.446513,71.6556705 375.111297,71.3302682 C374.775332,71.0048659 374.607349,70.6132184 374.607349,70.1545977 L374.607349,68.6709962 C373.662447,69.6836015 372.644051,70.4931034 371.550664,71.0951341 C370.456527,71.6978927 369.16441,72 367.673563,72 C366.306454,72 365.119326,71.6862452 364.11293,71.0594636" id="Fill-27" fill="#F8B23F"></path>
                <path d="M383.777798,71.5160646 C383.456696,71.1931913 383.296517,70.7961545 383.296517,70.3242051 L383.296517,54.3475945 C383.296517,53.8763942 383.456696,53.4726153 383.777798,53.137756 C384.098156,52.8028966 384.49376,52.6343433 384.963122,52.6343433 C385.456323,52.6343433 385.863848,52.7969036 386.184951,53.1182787 C386.506053,53.4419011 386.666232,53.851673 386.666232,54.3475945 L386.666232,70.3242051 C386.666232,70.7961545 386.500093,71.1931913 386.16707,71.5160646 C385.833302,71.8381888 385.431738,72 384.963122,72 C384.49376,72 384.098156,71.8381888 383.777798,71.5160646 M383.555783,48.3890461 C383.185509,48.0167305 383,47.5695022 383,47.0488597 L383,46.8997836 C383,46.3776428 383.185509,45.9311636 383.555783,45.558848 C383.926057,45.1865324 384.370088,45 384.88862,45 L385.11138,45 C385.629167,45 386.073943,45.1865324 386.444217,45.558848 C386.814491,45.9311636 387,46.3776428 387,46.8997836 L387,47.0488597 C387,47.5695022 386.814491,48.0167305 386.444217,48.3890461 C386.073943,48.7613617 385.629167,48.9478941 385.11138,48.9478941 L384.88862,48.9478941 C384.370088,48.9478941 383.926057,48.7613617 383.555783,48.3890461" id="Fill-29" fill="#F8B23F"></path>
                <path d="M392.777798,71.5160646 C392.456696,71.1931913 392.296517,70.7961545 392.296517,70.3242051 L392.296517,54.3475945 C392.296517,53.8763942 392.456696,53.4726153 392.777798,53.137756 C393.098156,52.8028966 393.49376,52.6343433 393.963122,52.6343433 C394.456323,52.6343433 394.863848,52.7969036 395.184951,53.1182787 C395.506053,53.4419011 395.666232,53.851673 395.666232,54.3475945 L395.666232,70.3242051 C395.666232,70.7961545 395.500093,71.1931913 395.16707,71.5160646 C394.833302,71.8381888 394.431738,72 393.963122,72 C393.49376,72 393.098156,71.8381888 392.777798,71.5160646 M392.555783,48.3890461 C392.185509,48.0167305 392,47.5695022 392,47.0488597 L392,46.8997836 C392,46.3776428 392.185509,45.9311636 392.555783,45.558848 C392.926057,45.1865324 393.370088,45 393.88862,45 L394.11138,45 C394.629167,45 395.073943,45.1865324 395.444217,45.558848 C395.814491,45.9311636 396,46.3776428 396,46.8997836 L396,47.0488597 C396,47.5695022 395.814491,48.0167305 395.444217,48.3890461 C395.073943,48.7613617 394.629167,48.9478941 394.11138,48.9478941 L393.88862,48.9478941 C393.370088,48.9478941 392.926057,48.7613617 392.555783,48.3890461" id="Fill-31" fill="#F8B23F"></path>
                <polygon id="Fill-33" fill="#E73C4A" points="114.919407 73 111.196735 73 114.296955 58.1771404 110 58.1771404 110.671376 55 123 55 122.328624 58.1771404 118.019627 58.1771404"></polygon>
                <path d="M131.130474,64.3516706 C131.130474,62.7651628 130.521776,61.9719089 129.304379,61.9719089 C128.665758,61.9719089 128.093282,62.2177059 127.586953,62.7092999 C127.079835,63.200149 126.667212,63.9204086 126.347507,64.8700787 C126.02859,65.8219834 125.869526,66.7999574 125.869526,67.8062354 C125.869526,69.295914 126.50736,70.0407534 127.784602,70.0407534 C128.423224,70.0407534 128.998062,69.7934667 129.508329,69.2988934 C130.019383,68.8028304 130.417045,68.1145989 130.702889,67.2319642 C130.987946,66.3508193 131.130474,65.3907214 131.130474,64.3516706 M135,64.3516706 C135,66.0506491 134.699982,67.5567142 134.099945,68.8691211 C133.499122,70.181528 132.632927,71.1982337 131.500575,71.9184933 C130.368223,72.6394978 129.02326,73 127.465685,73 C125.804955,73 124.47889,72.5277719 123.487492,71.5810811 C122.496093,70.6351351 122,69.3763567 122,67.8062354 C122,66.0908704 122.303955,64.5624601 122.912654,63.2217493 C123.521352,61.8810385 124.400933,60.8427325 125.549821,60.1060864 C126.699497,59.3694403 128.044461,59 129.585499,59 C131.254104,59 132.573869,59.4752075 133.544006,60.4256225 C134.514144,61.3767823 135,62.6847202 135,64.3516706" id="Fill-35" fill="#E73C4A"></path>
                <path d="M142.226394,70.0709758 C142.746263,70.0709758 143.253008,69.7959152 143.74517,69.2450505 C144.238061,68.6941858 144.633977,67.9604429 144.933649,67.0445653 C145.233321,66.1279443 145.383522,65.1436732 145.383522,64.0910087 C145.383522,63.4479615 145.235509,62.9327803 144.939482,62.5476954 C144.644185,62.1611237 144.240248,61.9693247 143.72767,61.9693247 C143.191761,61.9693247 142.681371,62.2585101 142.1965,62.8376242 C141.71163,63.415995 141.325921,64.1787307 141.037915,65.1280617 C140.749909,66.0766492 140.606271,67.0170592 140.606271,67.9492918 C140.606271,69.3639956 141.145826,70.0709758 142.226394,70.0709758 M140.736785,73 C139.57747,73 138.664601,72.5703107 137.998906,71.7101886 C137.332483,70.8500665 137,69.6450035 137,68.0935128 C137,66.518233 137.281444,65.013577 137.84506,63.5788012 C138.408677,62.1440254 139.151659,61.0266844 140.074007,60.2267783 C140.996354,59.4276156 142.013489,59.0276626 143.124681,59.0276626 C143.771418,59.0276626 144.328472,59.176344 144.798031,59.4729635 C145.266861,59.7710697 145.710171,60.281047 146.128691,61.0043822 L146.222749,61.0043822 L146.24681,60.6668753 C146.293474,59.7829642 146.391907,58.9994131 146.542107,58.3154785 L147.440394,54 L151,54 L147.097703,72.7591361 L144.389719,72.7591361 L144.555961,71.0113859 L144.507838,71.0113859 C143.948596,71.7101886 143.363106,72.2164489 142.752096,72.5301667 C142.141086,72.8431411 141.46883,73 140.736785,73" id="Fill-37" fill="#E73C4A"></path>
                <path d="M159.129921,64.3516706 C159.129921,62.7651628 158.52126,61.9719089 157.303937,61.9719089 C156.666142,61.9719089 156.093701,62.2177059 155.586614,62.7092999 C155.080315,63.200149 154.667717,63.9204086 154.348031,64.8700787 C154.028346,65.8219834 153.869291,66.7999574 153.869291,67.8062354 C153.869291,69.295914 154.507087,70.0407534 155.784252,70.0407534 C156.422835,70.0407534 156.997638,69.7934667 157.507874,69.2988934 C158.018898,68.8028304 158.417323,68.1145989 158.702362,67.2319642 C158.987402,66.3508193 159.129921,65.3907214 159.129921,64.3516706 M163,64.3516706 C163,66.0506491 162.699213,67.5567142 162.099213,68.8691211 C161.498425,70.181528 160.632283,71.1982337 159.500787,71.9184933 C158.368504,72.6394978 157.022835,73 155.465354,73 C153.805512,73 152.479528,72.5277719 151.487402,71.5810811 C150.496063,70.6351351 150,69.3763567 150,67.8062354 C150,66.0908704 150.303937,64.5624601 150.913386,63.2217493 C151.52126,61.8810385 152.400787,60.8427325 153.549606,60.1060864 C154.699213,59.3694403 156.044094,59 157.585039,59 C159.253543,59 160.573228,59.4752075 161.543307,60.4256225 C162.514173,61.3767823 163,62.6847202 163,64.3516706" id="Fill-39" fill="#E73C4A"></path>
                <path d="M173.797016,68.3015535 C173.797016,69.815067 173.292587,70.9770164 172.283729,71.7859119 C171.274871,72.5955522 169.871014,73 168.071409,73 C167.20496,73 166.449441,72.939668 165.804851,72.8182592 C165.161011,72.6975952 164.559144,72.4972335 164,72.2141945 L164,69.2184507 C165.271941,69.9431794 166.564868,70.3059162 167.877283,70.3059162 C168.52562,70.3059162 169.056282,70.1755693 169.470019,69.9133858 C169.883006,69.6519472 170.089875,69.2951692 170.089875,68.8445414 C170.089875,68.4981911 169.93997,68.1883379 169.640161,67.9134922 C169.340352,67.640881 168.80894,67.2937859 168.047424,66.875931 C167.067048,66.3284741 166.381984,65.7825069 165.992982,65.2387742 C165.604729,64.6950415 165.409853,64.05299 165.409853,63.3126197 C165.409853,61.943605 165.857318,60.882209 166.752998,60.1284316 C167.648678,59.3768887 168.926615,59 170.588307,59 C172.217021,59 173.687585,59.3828474 175,60.1470526 L173.797016,62.7450521 C172.662238,62.0679932 171.617403,61.730581 170.661011,61.730581 C170.199305,61.730581 169.826043,61.8318791 169.542723,62.0381996 C169.259403,62.2430304 169.116994,62.518621 169.116994,62.8649713 C169.116994,63.1792935 169.246661,63.4556289 169.505996,63.6924878 C169.765331,63.9300915 170.251772,64.2302618 170.965318,64.5922537 C171.961434,65.0994893 172.682475,65.6514152 173.128441,66.2472867 C173.574407,66.8431581 173.797016,67.5276655 173.797016,68.3015535" id="Fill-41" fill="#E73C4A"></path>
                <path d="M131,27.0003721 C131,41.9115252 118.911692,54 104,54 C89.0883083,54 77,41.9115252 77,27.0003721 C77,12.0884748 89.0883083,0 104,0 C118.911692,0 131,12.0884748 131,27.0003721" id="Fill-43" fill="#F8B23F"></path>
                <path d="M151,30.5 C151,39.0600272 144.060611,46 135.499624,46 C126.939389,46 120,39.0600272 120,30.5 C120,21.9399728 126.939389,15 135.499624,15 C144.060611,15 151,21.9399728 151,30.5" id="Fill-45" fill="#E73C4A"></path>
            </g>
        </g>
    </g>
</svg>